<?xml version="1.0" encoding="UTF-8"?>
<svg id="Layer_2" data-name="Layer 2" xmlns="http://www.w3.org/2000/svg" width="166.448" height="145.02" viewBox="0 0 166.448 145.02">
  <defs>
    <style>
      .cls-1 {
        fill: #fff;
      }

      .cls-2 {
        fill: #fee0cf;
      }

      .cls-3 {
        fill: #d6d6d6;
      }

      .cls-4 {
        fill: #f27038;
      }

      .cls-5 {
        fill: #ffab66;
      }
    </style>
  </defs>
  <g id="Layer_1-2" data-name="Layer 1">
    <g>
      <path class="cls-2" d="m136.766,53.56h-2.48v-30.16c-.006-5.548-4.502-10.044-10.05-10.05h-8c-5.548.006-10.044,4.502-10.05,10.05v6h-28.19v-10.02c0-3.314-2.686-6-6-6h-32.2c-3.314,0-6,2.686-6,6v24.13c0,3.314,2.686,6,6,6h14.07v4h-22.58c-5.291-.002-9.582,4.285-9.584,9.576,0,.399.025.798.074,1.194l7.15,57.23c.604,4.793,4.679,8.388,9.51,8.39h10.8l10.78,7.19c2.347,1.557,5.512.917,7.069-1.429.553-.833.849-1.811.851-2.811v-2.94h61.67c4.829-.007,8.901-3.6,9.51-8.39l7.16-57.23c.046-.395.07-.792.07-1.19-.006-5.289-4.291-9.574-9.58-9.58v.04Zm-78.9-4.02h14.1c3.314,0,6-2.686,6-6v-10.08h28.15v20.1h-48.25v-4.02Z"/>
      <path class="cls-4" d="m151.066,9.55c-.53-.002-1.037-.214-1.41-.59l-3.3-3.3-3.3,3.3c-.781.781-2.049.781-2.83,0-.781-.781-.781-2.049,0-2.83l6.13-6.13,6.13,6.13c.779.783.775,2.05-.008,2.828-.373.37-.876.579-1.402.582l-.01.01Z"/>
      <path class="cls-4" d="m164.486,29.14c-.53-.002-1.037-.214-1.41-.59l-3.3-3.3-3.3,3.3c-.781.781-2.049.781-2.83,0-.781-.781-.781-2.049,0-2.83h0l6.13-6.13,6.09,6.14c.779.783.775,2.05-.008,2.828-.373.37-.876.579-1.402.582h.03Z"/>
      <path class="cls-4" d="m11.426,115.6c-.53-.002-1.037-.214-1.41-.59l-3.3-3.3-3.3,3.3c-.781.781-2.049.781-2.83,0s-.781-2.049,0-2.83l6.13-6.13,6.15,6.13c.779.783.775,2.05-.008,2.828-.373.37-.876.579-1.402.582l-.03.01Z"/>
      <path class="cls-4" d="m100.956,145.02c-.53-.002-1.037-.214-1.41-.59l-3.3-3.3-3.3,3.3c-.781.781-2.049.781-2.83,0s-.781-2.049,0-2.83l6.13-6.13,6.13,6.13c.779.783.775,2.05-.008,2.828-.373.37-.876.579-1.402.582l-.01.01Z"/>
      <path class="cls-1" d="m139.126,54.74c-1.428-1.418-3.358-2.212-5.37-2.21H28.296c-4.184.006-7.574,3.396-7.58,7.58,0,.308.02.615.06.92l7.16,57.24c.469,3.786,3.685,6.629,7.5,6.63h11.43l11.28,7.52c.506.34,1.101.521,1.71.52,1.712,0,3.1-1.388,3.1-3.1h0v-4.95h63.69c3.815-.001,7.031-2.844,7.5-6.63l7.16-57.24c.04-.305.06-.612.06-.92.002-2.012-.792-3.942-2.21-5.37l-.03.01Z"/>
      <path class="cls-4" d="m48.866,98.76h.38c2.569-.007,5.133.221,7.66.68v17.41h-8.04l-4-18.09h4Z"/>
      <path class="cls-3" d="m77.006,64.59v44.23c-5.782-4.825-12.725-8.056-20.14-9.37-2.527-.459-5.091-.687-7.66-.68h-.34v-24.1h.38c10.147-.01,19.97-3.577,27.76-10.08Z"/>
      <path class="cls-4" d="m85.046,94.74v14.07c0,2.209-1.791,4-4,4s-4-1.791-4-4v-44.22c0-2.209,1.791-4,4-4s4,1.791,4,4v30.15Z"/>
      <path class="cls-4" d="m48.866,74.67v24.12h-8c-4.418,0-8-3.582-8-8v-8c0-4.418,3.582-8,8-8l8-.12Z"/>
      <path class="cls-5" d="m85.046,78.67c4.44,0,8.04,3.6,8.04,8.04s-3.6,8.04-8.04,8.04v-16.08Z"/>
      <path class="cls-4" d="m72.986,28.4v12.06c0,2.209-1.791,4-4,4h-32.19c-2.209,0-4-1.791-4-4v-24.12c0-2.209,1.791-4,4-4h32.17c2.209,0,4,1.791,4,4l.02,12.06Z"/>
      <path class="cls-1" d="m59.136,25.48c1.61.818,2.252,2.787,1.433,4.397-.314.617-.816,1.119-1.433,1.433l-9.59,4.79c-1.612.79-3.559.123-4.348-1.488-.218-.446-.332-.935-.332-1.432v-9.57c-.012-1.795,1.434-3.26,3.228-3.271.503-.003,1,.11,1.452.331l9.59,4.81Z"/>
      <rect class="cls-5" x="105.146" y="32.42" width="24.12" height="8.04"/>
      <rect class="cls-4" x="105.146" y="40.46" width="12.06" height="32.17"/>
      <path class="cls-5" d="m129.276,52.52v20.15h-12.06v-32.21h12.06v12.06Z"/>
      <path class="cls-1" d="m129.276,20.36v12.06h-24.13v-12.06c0-4.418,3.582-8,8-8h8c4.418,0,8,3.582,8,8h.13Z"/>
      <path class="cls-3" d="m120.126,90.94c-.818,1.61-2.787,2.252-4.397,1.433-.617-.314-1.119-.816-1.433-1.433l-9.15-18.27h24.12l-9.14,18.27Z"/>
      <path class="cls-3" d="m103.136,98.76h24.13c1.11,0,2.01.9,2.01,2.01h0c0,1.11-.9,2.01-2.01,2.01h-24.13c-1.11,0-2.01-.9-2.01-2.01h0c0-1.11.9-2.01,2.01-2.01Z"/>
      <rect class="cls-3" x="101.126" y="106.81" width="28.15" height="4.02" rx="2.01" ry="2.01"/>
      <rect class="cls-3" x="125.256" y="114.85" width="4.02" height="4.02" rx="2.01" ry="2.01"/>
      <path class="cls-3" d="m103.136,114.85h0c1.11,0,2.01.9,2.01,2.01h0c0,1.11-.9,2.01-2.01,2.01h0c-1.11,0-2.01-.9-2.01-2.01h0c0-1.11.9-2.01,2.01-2.01Z"/>
      <path class="cls-3" d="m119.226,114.85h0c1.11,0,2.01.9,2.01,2.01h0c0,1.11-.9,2.01-2.01,2.01h0c-1.11,0-2.01-.9-2.01-2.01h0c0-1.11.9-2.01,2.01-2.01Z"/>
      <path class="cls-3" d="m111.176,114.85h0c1.11,0,2.01.9,2.01,2.01h0c0,1.11-.9,2.01-2.01,2.01h0c-1.11,0-2.01-.9-2.01-2.01h0c0-1.11.9-2.01,2.01-2.01Z"/>
      <path d="m59.866,134.74c-.964,0-1.907-.285-2.71-.82l-10.85-7.25h-10.87c-4.725-.003-8.711-3.521-9.3-8.21l-7.15-57.2c-.646-5.129,2.988-9.81,8.117-10.457.393-.049.788-.074,1.183-.073h22.79v-4.45h-14.28c-3.212-.006-5.814-2.608-5.82-5.82v-24.12c.006-3.212,2.608-5.814,5.82-5.82h32.17c3.212.006,5.814,2.608,5.82,5.82v10.26h28.57v-6.24c.006-5.432,4.408-9.834,9.84-9.84h8c5.432.006,9.834,4.408,9.84,9.84v30.36h2.69c5.173.006,9.364,4.197,9.37,9.37,0,.391-.024.782-.07,1.17l-7.16,57.23c-.589,4.689-4.575,8.207-9.3,8.21h-61.83v3.15c0,2.693-2.177,4.879-4.87,4.89Zm-.71-3.82c.195.131.425.201.66.2.716.006,1.308-.555,1.34-1.27v-6.75h65.48c2.912-.003,5.367-2.171,5.73-5.06l7.16-57.23c.215-1.579-.296-3.171-1.39-4.33-1.317-1.404-3.165-2.188-5.09-2.16h-1.94v18.78l-9.34,18.64c-.847,1.72-2.603,2.803-4.52,2.79h-14.11c-.994,0-1.799-.807-1.798-1.802,0-.993.806-1.798,1.798-1.798h9.15l-9-17.92v-18.68H29.036c-1.925-.028-3.773.756-5.09,2.16-1.096,1.158-1.607,2.751-1.39,4.33l7.16,57.24c.367,2.885,2.821,5.048,5.73,5.05h12l11.71,7.81Zm56.71-40.79c.413.718,1.33.965,2.048.552.229-.132.42-.322.552-.552l7.85-15.7h-18.25l7.8,15.7Zm3.1-19.3h8.46v-28.57h-8.46v28.57Zm-12.06,0h8.46v-28.57h-8.46v28.57Zm-52.23-20.11h48.67v-20.52h-28.56v10.26c-.006,3.212-2.608,5.814-5.82,5.82h-14.29v4.44ZM36.796,14.12c-1.226,0-2.22.994-2.22,2.22h0v24.12c.006,1.222.998,2.21,2.22,2.21h32.17c1.226,0,2.22-.994,2.22-2.22h0v-24.11c0-1.226-.994-2.22-2.22-2.22h-32.17Zm70.15,24.55h20.52v-4.45h-20.52v4.45Zm6.24-24.54c-3.444.006-6.234,2.796-6.24,6.24v10.3h20.52v-10.31c-.006-3.444-2.796-6.234-6.24-6.24l-8.04.01Z"/>
      <path d="m47.416,118.67l-4-18.09h-2.55c-5.432-.006-9.834-4.408-9.84-9.84v-8c-.028-5.44,4.36-9.872,9.8-9.9.013,0,.027,0,.04,0h8.42c9.454-.018,18.622-3.248,26-9.16h.06v-.08c.53-3.165,3.525-5.3,6.69-4.77,2.814.471,4.869,2.917,4.85,5.77v12.42h.17c5.327,1.077,8.772,6.267,7.696,11.594-.784,3.88-3.816,6.912-7.696,7.696h-.17v12.44c.022,3.209-2.561,5.828-5.77,5.85-2.853.02-5.299-2.036-5.77-4.85v-.08h-.06c-4.774-3.823-10.327-6.554-16.27-8l-.26-.06v17l-11.34.06Zm2.89-3.6h4.8v-14h-.18c-1.881-.274-3.779-.418-5.68-.43h-2.16l3.22,14.43Zm30.72-52.7c-1.226,0-2.22.994-2.22,2.22h0v44.23c0,1.226.994,2.22,2.22,2.22s2.22-.994,2.22-2.22v-44.23c0-1.226-.994-2.22-2.22-2.22h0Zm-6.16,6.08c-7.083,4.871-15.409,7.619-24,7.92h-.2v20.65h.2c8.591.3,16.918,3.048,24,7.92l.33.23v-37l-.33.28Zm-39.91,24.35c.887,2.501,3.257,4.168,5.91,4.16h6.24v-20.52h-6.24c-2.635.013-4.979,1.677-5.86,4.16l-.1.28h6c.994,0,1.801.804,1.802,1.798,0,.994-.804,1.801-1.798,1.802h-6.333v4.44h6.29c.994,0,1.801.804,1.802,1.798,0,.994-.804,1.801-1.798,1.802h-6.003l.09.28Zm51.91-.13l.28-.1c3.236-1.118,4.953-4.649,3.835-7.885-.622-1.799-2.036-3.213-3.835-3.835l-.28-.1v11.92Z"/>
      <path d="m48.086,38.24c-2.787-.006-5.044-2.263-5.05-5.05v-9.58c-.002-2.789,2.257-5.052,5.046-5.054.786,0,1.561.182,2.264.534l9.58,4.79c2.485,1.266,3.474,4.307,2.208,6.792-.484.951-1.257,1.724-2.208,2.208l-9.58,4.79c-.699.362-1.473.557-2.26.57Zm0-16.08c-.799.005-1.445.651-1.45,1.45v9.58c.006.823.677,1.486,1.5,1.48h0c.208.001.414-.047.6-.14l9.58-4.86c.718-.355,1.012-1.224.658-1.942-.141-.286-.372-.517-.658-.658l-9.58-4.79c-.204-.09-.427-.131-.65-.12Z"/>
    </g>
  </g>
</svg>