<?xml version="1.0" encoding="UTF-8"?>
<svg id="Layer_2" data-name="Layer 2" xmlns="http://www.w3.org/2000/svg" width="193.522" height="142.83" viewBox="0 0 193.522 142.83">
  <defs>
    <style>
      .cls-1 {
        fill: #fff;
      }

      .cls-2 {
        fill: #fee0cf;
      }

      .cls-3 {
        fill: #f27038;
      }

      .cls-4 {
        fill: #ffab66;
      }
    </style>
  </defs>
  <g id="Layer_1-2" data-name="Layer 1">
    <g>
      <path class="cls-3" d="m27.002,75.05c-1.105-.005-1.996-.904-1.992-2.008.002-.525.211-1.029.582-1.402l6.13-6.13,6.13,6.13c.781.781.781,2.049,0,2.83-.781.781-2.049.781-2.83,0l-3.3-3.3-3.3,3.3c-.377.374-.888.583-1.42.58Z"/>
      <path class="cls-3" d="m148.382,33.04c-.53-.002-1.037-.214-1.41-.59l-3.3-3.3-3.3,3.3c-.781.781-2.049.781-2.83,0-.781-.781-.781-2.049,0-2.83l6.13-6.13,6.13,6.13c.779.783.775,2.05-.008,2.828-.373.37-.876.579-1.402.582l-.01.01Z"/>
      <path class="cls-3" d="m112.092,9.54c-.53-.002-1.037-.214-1.41-.59l-3.3-3.3-3.3,3.3c-.839.718-2.102.621-2.82-.218-.641-.749-.641-1.853,0-2.602l6.13-6.13,6.13,6.13c.779.783.775,2.05-.008,2.828-.373.37-.876.579-1.402.582h-.02Z"/>
      <path class="cls-3" d="m1.992,109.56c-1.105-.005-1.996-.904-1.992-2.008.002-.525.211-1.029.582-1.402l6.13-6.13,6.13,6.13c.781.781.781,2.049,0,2.83s-2.049.781-2.83,0l-3.3-3.3-3.3,3.3c-.377.374-.888.583-1.42.58Z"/>
      <path class="cls-2" d="m154.102,108.41l-42-72.67c-3.011-5.256-7.991-9.096-13.84-10.67-2.003-.532-4.068-.791-6.14-.77h-.31l-.55.06c-7.853.283-15.018,4.556-19,11.33L30.122,108.19h0c-2.339,4.025-3.387,8.671-3,13.31.104,1.378.332,2.743.68,4.08,1.539,5.883,5.366,10.906,10.63,13.95l.41.22c.32.18.63.35,1,.51l.2.09c3.091,1.504,6.483,2.287,9.92,2.29,1.992,0,3.975-.259,5.9-.77.21-.06.41-.14.62-.2s.7-.21,1-.33l.92-.34c.32-.13.63-.26.94-.4.487-.22.963-.453,1.43-.7l.7-.39c.31-.18.62-.36.92-.56s.53-.36.8-.55.81-.59,1.2-.91.52-.43.77-.65l.65-.59c.42-.41.84-.82,1.23-1.26l.32-.38c.333-.393.667-.8,1-1.22l.35-.48c.38-.54.75-1.1,1.09-1.69l22.41-38.54,22.21,38.68c3.024,5.275,8.033,9.121,13.91,10.68,1.956.526,3.974.792,6,.79,12.658-.022,22.902-10.301,22.881-22.959-.007-4.01-1.066-7.948-3.071-11.421l-.04-.04Z"/>
      <path class="cls-1" d="m141.732,134.99c-9.996,5.782-22.787,2.366-28.57-7.63,0,0,0,0,0,0l-24-41.6-17.96-31.09c-5.772-10.015-2.333-22.813,7.682-28.585,2.972-1.713,6.32-2.669,9.748-2.785h.63c7.479-.005,14.391,3.983,18.13,10.46l42,72.67c5.771,10.002,2.341,22.788-7.66,28.56Z"/>
      <path class="cls-3" d="m89.142,85.73l-24.14,41.53c-5.944,9.901-18.788,13.11-28.69,7.166-9.699-5.822-13.009-18.302-7.47-28.166l42.16-72.56c3.662-6.303,10.342-10.243,17.63-10.4-11.553.389-20.603,10.069-20.215,21.622.115,3.429,1.072,6.776,2.785,9.748l17.94,31.06Z"/>
      <circle class="cls-4" cx="46.911" cy="116.756" r="20.91"/>
      <path d="m151.102,105.41l-42-72.67c-3.011-5.256-7.991-9.096-13.84-10.67-2.003-.532-4.068-.791-6.14-.77h-.31l-.55.06c-7.853.283-15.018,4.556-19,11.33L27.122,105.19h0c-2.339,4.025-3.387,8.671-3,13.31.104,1.378.332,2.743.68,4.08,1.539,5.883,5.366,10.906,10.63,13.95l.41.22c.32.18.63.35,1,.51l.2.09c3.091,1.504,6.483,2.287,9.92,2.29,1.992,0,3.975-.259,5.9-.77.21-.06.41-.14.62-.2s.7-.21,1-.33l.92-.34c.32-.13.63-.26.94-.4.487-.22.963-.453,1.43-.7l.7-.39c.31-.18.62-.36.92-.56s.53-.36.8-.55.81-.59,1.2-.91.52-.43.77-.65l.65-.59c.42-.41.84-.82,1.23-1.26l.32-.38c.333-.393.667-.8,1-1.22l.35-.48c.38-.54.75-1.1,1.09-1.69l22.41-38.54,22.21,38.68c3.024,5.275,8.033,9.121,13.91,10.68,1.956.526,3.974.792,6,.79,12.658-.022,22.902-10.301,22.881-22.959-.007-4.01-1.066-7.948-3.071-11.421l-.04-.04Zm-104.16-7.58c10.444.014,18.899,8.491,18.885,18.935-.004,3.333-.889,6.605-2.565,9.485l-.08.12c-.3.51-.62,1-1,1.48l-.2.26c-.32.42-.64.84-1,1.23l-.05.05c-5.038,5.556-12.874,7.629-20,5.29h-.05c-.5-.17-1-.37-1.47-.58l-.31-.12c-.54-.25-1.07-.52-1.6-.82l-.11-.05c-1.041-.606-2.022-1.309-2.93-2.1l-.1-.08c-.39-.34-.75-.71-1.11-1.08l-.22-.21c-.29-.31-.56-.65-.83-1-.12-.14-.25-.28-.36-.42-.3-.4-.58-.82-.85-1.24l-.19-.28c-1.503-2.424-2.427-5.161-2.7-8-.433-3.986.422-8.006,2.44-11.47h0c3.398-5.835,9.648-9.418,16.4-9.4Zm22.81,17.25c-.913-12.609-11.874-22.09-24.483-21.177-2.851.206-5.638.945-8.217,2.177l29.39-50.57c.19,3.572,1.218,7.049,3,10.15l17.36,30.06-17.05,29.36Zm79.78,6.68c-2.683,10.093-13.04,16.1-23.133,13.417-4.858-1.291-9.002-4.464-11.517-8.817l-42-72.67c-5.22-9.052-2.113-20.622,6.939-25.841,2.818-1.625,6.008-2.496,9.261-2.529h.18c1.665,0,3.322.218,4.93.65,4.849,1.286,8.983,4.458,11.48,8.81l42,72.67c2.5,4.332,3.169,9.483,1.86,14.31h0Z"/>
      <path d="m69.342,86.2c-1.105-.005-1.996-.904-1.992-2.008.002-.525.211-1.029.582-1.402l21.91-21.91,16,16,26.58-26.58,15.14,15.14,36.17-36.17c.781-.781,2.049-.781,2.83,0s.781,2.049,0,2.83l-39,39-15.15-15.15-26.58,26.58-16-16-19.08,19.09c-.375.372-.882.58-1.41.58Z"/>
      <circle class="cls-1" cx="89.832" cy="63.71" r="6.66"/>
      <circle class="cls-3" cx="105.432" cy="79.35" r="6.66"/>
      <circle class="cls-1" cx="132.292" cy="52.72" r="6.66"/>
      <circle class="cls-3" cx="147.762" cy="68.53" r="6.66"/>
      <circle class="cls-1" cx="184.862" cy="30.96" r="6.66"/>
      <path d="m89.832,72.36c-4.783,0-8.66-3.877-8.66-8.66s3.877-8.66,8.66-8.66,8.66,3.877,8.66,8.66h0c-.006,4.781-3.879,8.654-8.66,8.66Zm0-13.32c-2.574,0-4.66,2.086-4.66,4.66s2.086,4.66,4.66,4.66,4.66-2.086,4.66-4.66h0c-.011-2.567-2.093-4.645-4.66-4.65v-.01Z"/>
      <path d="m105.432,88.01c-4.783,0-8.66-3.877-8.66-8.66,0-4.783,3.877-8.66,8.66-8.66,4.783,0,8.66,3.877,8.66,8.66v.01c-.011,4.777-3.883,8.645-8.66,8.65Zm0-13.32c-2.574,0-4.66,2.086-4.66,4.66s2.086,4.66,4.66,4.66c2.57,0,4.654-2.08,4.66-4.65,0-2.575-2.085-4.664-4.66-4.67Z"/>
      <path d="m132.262,61.36c-4.783,0-8.66-3.877-8.66-8.66,0-4.783,3.877-8.66,8.66-8.66,4.783,0,8.66,3.877,8.66,8.66-.006,4.781-3.88,8.654-8.66,8.66Zm0-13.32c-2.574,0-4.66,2.086-4.66,4.66,0,2.574,2.086,4.66,4.66,4.66s4.66-2.086,4.66-4.66h0c-.016-2.564-2.096-4.635-4.66-4.64v-.02Z"/>
      <path d="m147.762,77.19c-4.783,0-8.66-3.877-8.66-8.66,0-4.783,3.877-8.66,8.66-8.66s8.66,3.877,8.66,8.66c-.006,4.781-3.88,8.654-8.66,8.66Zm0-13.32c-2.574,0-4.66,2.086-4.66,4.66,0,2.574,2.086,4.66,4.66,4.66s4.66-2.086,4.66-4.66h0c-.006-2.571-2.089-4.654-4.66-4.66Z"/>
      <path d="m184.862,39.62c-4.783,0-8.66-3.877-8.66-8.66,0-4.783,3.877-8.66,8.66-8.66,4.783,0,8.66,3.877,8.66,8.66-.006,4.781-3.88,8.654-8.66,8.66Zm0-13.32c-2.574,0-4.66,2.086-4.66,4.66,0,2.574,2.086,4.66,4.66,4.66,2.574,0,4.66-2.086,4.66-4.66-.005-2.571-2.089-4.655-4.66-4.66Z"/>
    </g>
  </g>
</svg>