<?xml version="1.0" encoding="UTF-8"?>
<svg id="Layer_2" data-name="Layer 2" xmlns="http://www.w3.org/2000/svg" width="153.736" height="121.233" viewBox="0 0 153.736 121.233">
  <defs>
    <style>
      .cls-1 {
        fill: #fff;
      }

      .cls-2 {
        fill: #fee0cf;
      }

      .cls-3 {
        fill: #d6d6d6;
      }

      .cls-4 {
        fill: #f27038;
      }

      .cls-5 {
        fill: #ffab66;
      }
    </style>
  </defs>
  <g id="Layer_1-2" data-name="Layer 1">
    <g>
      <path class="cls-2" d="m143.856,15.173h-33.38V5.323c-.028-1.104-.946-1.977-2.05-1.948-.131.003-.262.02-.39.049l-31.19,7.8h-19.43c-3.346.003-6.533,1.432-8.76,3.93h-3c-5.421.006-9.814,4.399-9.82,9.82v58.91c.006,5.421,4.399,9.814,9.82,9.82h29.34c-.577,4.703-3.254,8.891-7.28,11.39l-6.91,4.32h-5.32c-5.421.006-9.814,4.399-9.82,9.82,0,1.105.895,2,2,2h94.26c1.105,0,2-.895,2-2-.006-5.421-4.399-9.814-9.82-9.82h-5.33l-6.91-4.32c-4.026-2.499-6.703-6.687-7.28-11.39h29.33c5.421-.006,9.814-4.399,9.82-9.82V24.983c-.006-5.421-4.399-9.814-9.82-9.82l-.06.01Z"/>
      <path class="cls-4" d="m11.416,71.533c-.53-.002-1.037-.214-1.41-.59l-3.3-3.3-3.29,3.3c-.781.781-2.049.781-2.83,0-.781-.781-.781-2.049,0-2.83l6.13-6.13,6.13,6.13c.784.778.79,2.044.012,2.828-.381.384-.901.597-1.442.592Z"/>
      <path class="cls-4" d="m24.186,104.603c-.53-.002-1.037-.214-1.41-.59l-3.3-3.3-3.3,3.3c-.781.781-2.049.781-2.83,0-.781-.781-.781-2.049,0-2.83h0l6.13-6.13,6.13,6.13c.779.783.775,2.05-.008,2.828-.373.37-.876.579-1.402.582l-.01.01Z"/>
      <path class="cls-1" d="m42.416,13.743h98.19c4.322.017,7.816,3.528,7.81,7.85v58.91c.011,4.33-3.49,7.849-7.82,7.86-.013,0-.027,0-.04,0H42.416c-4.33.011-7.849-3.49-7.86-7.82,0-.013,0-.027,0-.04V21.593c-.006-4.33,3.5-7.844,7.83-7.85.01,0,.02,0,.03,0Z"/>
      <path class="cls-5" d="m52.186,108.003h78.55c4.341,0,7.86,3.519,7.86,7.86H44.336c0-4.341,3.519-7.86,7.86-7.86h-.01Z"/>
      <path class="cls-4" d="m109.136,88.323h-35.35c-.008,6.101-3.155,11.769-8.33,15l-7.38,4.62h66.77l-7.38-4.62c-5.175-3.231-8.322-8.899-8.33-15h0Z"/>
      <path class="cls-3" d="m105.216,41.233l-31.43-7.86V9.813l31.42-7.86.01,39.28Z"/>
      <rect class="cls-5" x="54.156" y="9.813" width="19.64" height="23.57"/>
      <path class="cls-4" d="m54.156,9.813v23.56c-5.423,0-9.82-4.397-9.82-9.82v-3.92c0-5.423,4.397-9.82,9.82-9.82Z"/>
      <path class="cls-4" d="m105.216,1.953l-9.8,2.46v34.37l9.82,2.45-.02-39.28Z"/>
      <path class="cls-4" d="m73.786,53.013h-9.81l-3.93-19.64h9.82l3.92,19.64Z"/>
      <path class="cls-4" d="m54.156,54.983c0,3.253-2.637,5.89-5.89,5.89s-5.89-2.637-5.89-5.89,2.637-5.89,5.89-5.89h0c3.253,0,5.89,2.637,5.89,5.89Z"/>
      <path class="cls-4" d="m54.156,74.613c0,3.253-2.637,5.89-5.89,5.89s-5.89-2.637-5.89-5.89,2.637-5.89,5.89-5.89h0c3.253,0,5.89,2.637,5.89,5.89Z"/>
      <rect class="cls-5" x="65.936" y="72.653" width="7.86" height="7.86"/>
      <rect class="cls-5" x="81.646" y="68.723" width="7.86" height="11.78"/>
      <rect class="cls-5" x="97.356" y="64.803" width="7.86" height="15.71"/>
      <rect class="cls-5" x="113.066" y="60.873" width="7.86" height="19.64"/>
      <rect class="cls-5" x="128.776" y="54.983" width="7.86" height="25.53"/>
      <path d="m44.336,117.323c-.942-.005-1.705-.768-1.71-1.71.016-5.279,4.291-9.554,9.57-9.57h5.4l7-4.36c4.098-2.53,6.822-6.788,7.4-11.57v-.28h-29.58c-5.279-.016-9.554-4.291-9.57-9.57V21.323c.027-5.271,4.299-9.534,9.57-9.55h3.13l.07-.08c2.181-2.44,5.297-3.837,8.57-3.84h19.4L104.836.053c.915-.232,1.846.322,2.078,1.238.035.138.053.28.052.422v10.06h33.63c5.255.038,9.503,4.295,9.53,9.55v58.91c-.016,5.279-4.291,9.554-9.57,9.57h-29.61v.28c.577,4.782,3.301,9.041,7.4,11.57l7,4.36h5.4c5.279.016,9.554,4.291,9.57,9.57-.005.942-.768,1.705-1.71,1.71l-94.27.03Zm7.85-7.85c-2.592.013-4.899,1.648-5.77,4.09l-.12.33h90.37l-.12-.33c-.874-2.449-3.19-4.085-5.79-4.09H52.186Zm23.23-19.42c-.59,5.978-3.913,11.346-9,14.54l-2.31,1.44h54.81l-2.31-1.44c-5.087-3.194-8.41-8.562-9-14.54v-.23h-32.19v.23ZM42.416,15.203c-3.396-.022-6.168,2.713-6.19,6.11,0,.003,0,.007,0,.01v58.91c-.011,3.397,2.733,6.159,6.13,6.17.02,0,.04,0,.06,0h98.19c3.389-.006,6.134-2.751,6.14-6.14V21.323c-.006-3.389-2.751-6.134-6.14-6.14h-33.68v25.8c.002.528-.242,1.027-.66,1.35-.416.325-.958.439-1.47.31l-31.19-7.8h-1.65l3.51,17.58c.193.924-.399,1.83-1.324,2.024-.117.024-.237.037-.356.036h-9.81c-.814-.002-1.514-.573-1.68-1.37l-3.66-18.27h-4.48c-6.361-.011-11.518-5.159-11.54-11.52v-3.94c.002-1.309.229-2.608.67-3.84l.12-.33-.99-.01Zm23,35.85h6.32l-3.32-16.21h-6.28l3.28,16.21ZM97.146,5.503v31.69l6.39,1.6V3.903l-6.39,1.6Zm-21.6,5.4v20.89l18.13,4.53V6.323l-18.13,4.58Zm-19.68,20.51h16.21v-4.43h-8.1c-.947,0-1.715-.768-1.715-1.715s.768-1.715,1.715-1.715h8.11v-4.42h-8.11c-.947,0-1.715-.768-1.715-1.715s.768-1.715,1.715-1.715h8.11v-4.38h-16.22v20.09Zm-3.74-19.88c-3.575.931-6.072,4.156-6.08,7.85v3.94c.004,3.695,2.503,6.922,6.08,7.85l.31.08V11.453l-.31.08Z"/>
      <path d="m115.026,23.063c-.947,0-1.715-.768-1.715-1.715s.768-1.715,1.715-1.715h9.82c.947,0,1.715.768,1.715,1.715s-.768,1.715-1.715,1.715h-9.82Z"/>
      <path d="m115.026,11.323c-.944.015-1.722-.738-1.737-1.683-.011-.666.367-1.278.967-1.567l7.86-3.93c.239-.119.503-.18.77-.18.944-.015,1.722.738,1.737,1.683.011.666-.367,1.278-.967,1.567l-7.85,3.93c-.239.12-.503.181-.77.18h-.01Z"/>
      <path d="m122.886,39.023c-.267,0-.531-.061-.77-.18l-7.86-3.93c-.845-.434-1.178-1.471-.744-2.316.292-.569.875-.928,1.514-.934.267-.001.531.06.77.18l7.85,3.93c.407.207.717.566.86,1,.146.431.113.903-.09,1.31-.29.58-.882.947-1.53.95v-.01Z"/>
      <path d="m65.936,82.223c-.942-.005-1.705-.768-1.71-1.71v-7.86c.005-.942.768-1.705,1.71-1.71h7.86c.942.005,1.705.768,1.71,1.71v7.85c-.005.942-.768,1.705-1.71,1.71l-7.86.01Zm1.71-3.43h4.43v-4.47h-4.43v4.47Z"/>
      <path d="m81.646,82.223c-.942-.005-1.705-.768-1.71-1.71v-11.79c.005-.942.768-1.705,1.71-1.71h7.86c.942.005,1.705.768,1.71,1.71v11.78c-.005.942-.768,1.705-1.71,1.71l-7.86.01Zm1.71-3.43h4.43v-8.35h-4.43v8.35Z"/>
      <path d="m97.356,82.223c-.942-.005-1.705-.768-1.71-1.71v-15.71c.005-.942.768-1.705,1.71-1.71h7.85c.942.005,1.705.768,1.71,1.71v15.71c-.005.942-.768,1.705-1.71,1.71h-7.85Zm1.71-3.43h4.43v-12.28h-4.43v12.28Z"/>
      <path d="m113.066,82.223c-.942-.005-1.705-.768-1.71-1.71v-19.64c.005-.942.768-1.705,1.71-1.71h7.85c.942.005,1.705.768,1.71,1.71v19.64c-.005.942-.768,1.705-1.71,1.71h-7.85Zm1.71-3.43h4.43v-16.21h-4.43v16.21Z"/>
      <path d="m128.776,82.223c-.942-.005-1.705-.768-1.71-1.71v-25.53c.005-.942.768-1.705,1.71-1.71h7.85c.942.005,1.705.768,1.71,1.71v25.53c-.005.942-.768,1.705-1.71,1.71h-7.85Zm1.71-3.43h4.43v-22.1h-4.43v22.1Z"/>
      <path d="m63.976,68.483c-.95-.012-1.711-.791-1.699-1.741.008-.699.439-1.323,1.089-1.579l25.52-9.84c.195-.073.402-.111.61-.11h15.31l30.53-15.26-4.92-1c-.923-.202-1.506-1.114-1.304-2.037.175-.797.888-1.36,1.704-1.343h.28l9.8,2c.927.18,1.533,1.078,1.352,2.005-.03.155-.081.305-.152.445l-3.93,7.85c-.447.838-1.489,1.155-2.327.707-.811-.433-1.138-1.427-.743-2.257l1.63-3.26-30.75,15.41c-.239.118-.503.18-.77.18h-15.34l-25.28,9.67c-.192.091-.398.145-.61.16Z"/>
      <path d="m48.266,62.583c-4.203.002-7.612-3.403-7.614-7.606-.002-4.203,3.403-7.612,7.606-7.614,4.203-.002,7.612,3.403,7.614,7.606.002,3.079-1.852,5.855-4.696,7.034-.922.384-1.911.581-2.91.58Zm0-11.78c-2.309-.002-4.182,1.867-4.184,4.176s1.867,4.182,4.176,4.184c2.309.002,4.182-1.867,4.184-4.176.002-1.69-1.015-3.215-2.576-3.864-.507-.211-1.051-.32-1.6-.32Z"/>
      <path d="m48.266,82.223c-4.203.002-7.612-3.403-7.614-7.606-.002-4.203,3.403-7.612,7.606-7.614,4.203-.002,7.612,3.403,7.614,7.606.002,3.079-1.852,5.855-4.696,7.034-.922.384-1.911.581-2.91.58Zm0-11.78c-2.309-.002-4.182,1.867-4.184,4.176s1.867,4.182,4.176,4.184c2.309.002,4.182-1.867,4.184-4.176.002-1.69-1.015-3.215-2.576-3.864-.507-.211-1.051-.32-1.6-.32Z"/>
    </g>
  </g>
</svg>