<?xml version="1.0" encoding="UTF-8"?>
<svg id="Layer_2" data-name="Layer 2" xmlns="http://www.w3.org/2000/svg" width="186.222" height="186.24" viewBox="0 0 186.222 186.24">
  <defs>
    <style>
      .cls-1 {
        fill: #fff;
      }

      .cls-2 {
        fill: #fedfce;
      }

      .cls-3 {
        fill: #f27038;
      }

      .cls-4 {
        fill: #ffab66;
      }
    </style>
  </defs>
  <g id="Layer_1-2" data-name="Layer 1">
    <g>
      <path class="cls-3" d="m140.958,102.477c-.53-.002-1.037-.214-1.41-.59l-3.3-3.3-3.3,3.3c-.781.781-2.049.781-2.83,0s-.781-2.049,0-2.83l6.13-6.13,6.13,6.13c.779.783.775,2.05-.008,2.828-.373.37-.876.579-1.402.582l-.01.01Z"/>
      <g>
        <path class="cls-2" d="m110.792,65.64c0-1.105-.895-2-2-2H22.282c-1.105,0-2,.895-2,2v16.75c.018.129.048.257.09.38v.1c.059.152.136.297.23.43h0l33,44.51v19.41c0,1.105.895,2,2,2h19.75c1.105,0,2-.895,2-2v-19.38l33-44.51h0c.097-.133.178-.277.24-.43v-.1c.042-.123.072-.251.09-.38v-.25l.11-16.53Z"/>
        <path class="cls-1" d="m62.042,136.32c-1.105-.005-1.996-.904-1.992-2.008.002-.525.211-1.029.582-1.402l21.91-21.91,16,16,26.58-26.58,15.15,15.15,36.17-36.19c.781-.781,2.049-.781,2.83,0s.781,2.049,0,2.83l-39,39-15.15-15.15-26.58,26.58-16-16-19.1,19.09c-.371.373-.874.585-1.4.59Z"/>
        <circle class="cls-1" cx="82.542" cy="113.82" r="6.66"/>
        <circle class="cls-3" cx="98.132" cy="129.47" r="6.66"/>
        <circle class="cls-1" cx="125.002" cy="102.83" r="6.66"/>
        <circle class="cls-3" cx="140.472" cy="118.65" r="6.66"/>
        <circle class="cls-1" cx="177.562" cy="81.07" r="6.66"/>
        <path d="m82.542,122.48c-4.783,0-8.66-3.877-8.66-8.66s3.877-8.66,8.66-8.66,8.66,3.877,8.66,8.66h0c-.006,4.781-3.88,8.654-8.66,8.66Zm0-13.32c-2.574,0-4.66,2.086-4.66,4.66s2.086,4.66,4.66,4.66,4.66-2.086,4.66-4.66h0c-.006-2.571-2.089-4.655-4.66-4.66Z"/>
        <path d="m98.132,138.13c-4.783,0-8.66-3.877-8.66-8.66s3.877-8.66,8.66-8.66,8.66,3.877,8.66,8.66c-.006,4.781-3.88,8.654-8.66,8.66Zm0-13.32c-2.574,0-4.66,2.086-4.66,4.66s2.086,4.66,4.66,4.66,4.66-2.086,4.66-4.66h0c-.006-2.571-2.089-4.655-4.66-4.66Z"/>
        <path d="m125.002,111.49c-4.783,0-8.66-3.877-8.66-8.66,0-4.783,3.877-8.66,8.66-8.66s8.66,3.877,8.66,8.66h0c-.006,4.781-3.88,8.654-8.66,8.66Zm0-13.32c-2.574,0-4.66,2.086-4.66,4.66,0,2.574,2.086,4.66,4.66,4.66s4.66-2.086,4.66-4.66c-.005-2.571-2.089-4.655-4.66-4.66Z"/>
        <path d="m140.442,127.31c-4.783,0-8.66-3.877-8.66-8.66,0-4.783,3.877-8.66,8.66-8.66s8.66,3.877,8.66,8.66c-.006,4.781-3.88,8.654-8.66,8.66Zm0-13.31c-2.574,0-4.66,2.086-4.66,4.66,0,2.574,2.086,4.66,4.66,4.66s4.66-2.086,4.66-4.66c-.005-2.571-2.089-4.655-4.66-4.66Z"/>
        <path d="m177.562,89.73c-4.783,0-8.66-3.877-8.66-8.66,0-4.783,3.877-8.66,8.66-8.66s8.66,3.877,8.66,8.66h0c-.006,4.781-3.88,8.654-8.66,8.66Zm0-13.32c-2.574,0-4.66,2.086-4.66,4.66,0,2.574,2.086,4.66,4.66,4.66s4.66-2.086,4.66-4.66c-.005-2.571-2.089-4.655-4.66-4.66Z"/>
        <path class="cls-3" d="m1.992,116.85c-1.105-.005-1.996-.904-1.992-2.008.002-.525.211-1.029.582-1.402l6.13-6.13,6.13,6.13c.781.781.781,2.049,0,2.83-.781.781-2.049.781-2.83,0l-3.3-3.3-3.3,3.3c-.377.374-.888.583-1.42.58Z"/>
        <path class="cls-3" d="m21.862,146.48c-1.105,0-2.001-.894-2.002-1.998,0-.529.209-1.036.582-1.412l6.13-6.13,6.13,6.13c.781.781.781,2.049,0,2.83s-2.049.781-2.83,0l-3.3-3.3-3.3,3.3c-.375.372-.882.58-1.41.58Z"/>
        <path class="cls-3" d="m118.792,149.45c-1.105-.005-1.996-.904-1.992-2.008.002-.525.211-1.029.582-1.402l6.13-6.13,6.13,6.13c.781.781.781,2.049,0,2.83s-2.049.781-2.83,0l-3.3-3.3-3.3,3.3c-.377.374-.888.583-1.42.58Z"/>
        <path class="cls-3" d="m137.752,79.57c-1.105-.005-1.996-.904-1.992-2.008.002-.525.211-1.029.582-1.402l6.1-6.16,6.13,6.13c.793.773.808,2.042.035,2.835-.773.793-2.042.808-2.835.035l-3.3-3.3-3.3,3.3c-.379.371-.89.576-1.42.57Z"/>
        <polygon class="cls-3" points="72.352 124.17 52.732 124.17 19.282 79.14 105.792 79.14 72.352 124.17"/>
        <rect class="cls-4" x="52.732" y="124.18" width="19.62" height="20.07"/>
        <rect class="cls-4" x="19.282" y="62.64" width="86.51" height="16.5"/>
        <circle class="cls-1" cx="43.322" cy="38.98" r="12.93"/>
        <circle class="cls-1" cx="79.202" cy="16.35" r="12.93"/>
        <path class="cls-1" d="m65.622,165.65h-.52v-7.18h3.23c1.105,0,2-.895,2-2s-.895-2-2-2h-3.23v-3.23c0-1.105-.895-2-2-2s-2,.895-2,2v3.23h-.52c-4.192.004-7.587,3.406-7.582,7.598.004,4.186,3.397,7.578,7.582,7.582h.52v7.18h-4.66c-1.105,0-2,.895-2,2s.895,2,2,2h4.67v3.41c0,1.105.895,2,2,2s2-.895,2-2v-3.41h.52c4.192.004,7.593-3.391,7.598-7.582.004-4.192-3.391-7.593-7.582-7.598h-.025Zm-5,0c-1.983-.003-3.588-1.612-3.585-3.595.003-1.979,1.606-3.582,3.585-3.585h.52v7.18h-.52Zm5,11.18h-.52v-7.18h.52c1.983-.003,3.592,1.602,3.595,3.585s-1.602,3.592-3.585,3.595h-.01Z"/>
        <path class="cls-1" d="m92.122,57.74c-.006,1.68-.345,3.343-1,4.89h-23.89c-.655-1.547-.994-3.21-1-4.89,0-7.141,5.789-12.93,12.93-12.93s12.93,5.789,12.93,12.93h.03Z"/>
        <path d="m107.792,61.22c0-1.105-.895-2-2-2h-12c1.589-8.091-3.681-15.938-11.772-17.528-8.091-1.589-15.938,3.681-17.528,11.772-.373,1.9-.373,3.855,0,5.756H19.282c-1.105,0-2,.895-2,2v16.75c.018.129.048.257.09.38v.1c.059.152.136.297.23.43h0l33,44.51v19.41c0,1.105.895,2,2,2h19.75c1.105,0,2-.895,2-2v-19.38l33-44.51h0c.097-.133.178-.277.24-.43v-.1c.042-.123.072-.251.09-.38v-.25l.11-16.53Zm-28.6-15.82c6.034.006,10.924,4.896,10.93,10.93.002.977-.129,1.949-.39,2.89h-21.08c-.261-.941-.392-1.913-.39-2.89.006-6.034,4.896-10.924,10.93-10.93Zm-57.91,17.82h82.51v12.5H21.282v-12.5Zm49.06,77.6h-15.61v-16.06h15.62l-.01,16.06Zm1-20.07h-17.61l-30.47-41h78.56l-30.48,41Z"/>
        <path d="m43.322,52.49c8.246,0,14.93-6.684,14.93-14.93,0-8.246-6.684-14.93-14.93-14.93s-14.93,6.684-14.93,14.93h0c.011,8.241,6.689,14.919,14.93,14.93Zm0-25.86c6.036,0,10.93,4.894,10.93,10.93,0,6.036-4.894,10.93-10.93,10.93-6.036,0-10.93-4.894-10.93-10.93h0c.006-6.034,4.896-10.924,10.93-10.93Z"/>
        <path d="m79.202,29.86c8.246-.006,14.926-6.694,14.92-14.94C94.116,6.674,87.427-.006,79.182,0c-8.242.006-14.92,6.688-14.92,14.93.011,8.245,6.695,14.924,14.94,14.93Zm0-25.86c6.036.006,10.926,4.904,10.92,10.94s-4.904,10.926-10.94,10.92c-6.033-.006-10.92-4.897-10.92-10.93.006-6.038,4.902-10.93,10.94-10.93Z"/>
      </g>
    </g>
  </g>
</svg>