<?xml version="1.0" encoding="utf-8"?>
<!-- Generator: Adobe Illustrator 20.0.0, SVG Export Plug-In . SVG Version: 6.00 Build 0)  -->
<svg version="1.1" id="Layer_1" xmlns="http://www.w3.org/2000/svg" xmlns:xlink="http://www.w3.org/1999/xlink" x="0px" y="0px"
	 viewBox="0 0 88 16" width="88" height="16" style="enable-background:new 0 0 88 16;" xml:space="preserve">
<style type="text/css">
	.st0{fill:#FFFFFF;}
</style>
<path class="st0" d="M29,0c-3.9,0-7,3.1-7,7s3.1,7,7,7s7-3.1,7-7S32.9,0,29,0z M31,10.2l-2.9-2.9V3.5h1.8v3.1L32.2,9L31,10.2
	L31,10.2z"/>
<path class="st0" d="M50,14l1.4-0.8l0.3-7.6l3.7-2.2C56,3,56.2,2.3,55.8,1.7c-0.3-0.6-1-0.8-1.6-0.4l-3.7,2.2L44.1,0l-1.4,0.8
	l4.8,4.5l-3.7,2.2L42,6.8l-1,0.6l2,2l0.7,2.8l1-0.6l0.2-2l3.7-2.2L50,14z"/>
<g>
	<path class="st0" d="M0,13.4h17V15H0V13.4z"/>
	<path class="st0" d="M17,8.8c0.1-0.7-0.5-1.3-1.2-1.3L11.1,7L7.4,0.2L5.7,0l1.2,6.6L2.4,6.1L1.3,4.4L0,4.3l0.5,2.9l0.2,1.2l1.4,0.1
		L6.9,9l3.9,0.4l4.7,0.5C16.3,10,16.9,9.5,17,8.8z"/>
</g>
<ellipse transform="matrix(0.9998 -2.081505e-02 2.081505e-02 0.9998 -8.837920e-02 1.4219)" class="st0" cx="68.3" cy="5" rx="2.5" ry="2.5"/>
<g>
	<path class="st0" d="M75.4,6h-3V4h3V6z M64,6h-3V4h3V6z"/>
</g>
<path class="st0" d="M80.9,10h1l2.5-4.2h2.8c0.4,0,0.8-0.4,0.8-0.8s-0.3-0.8-0.8-0.8h-2.8L81.9,0h-1l1.2,4.2h-2.8l-0.8-1.1h-0.8
	L78.4,5l-0.5,1.8h0.8l0.8-1.1h2.8L80.9,10z"/>
</svg>
