<?xml version="1.0" encoding="utf-8"?>
<!-- Generator: Adobe Illustrator 20.1.0, SVG Export Plug-In . SVG Version: 6.00 Build 0)  -->
<svg version="1.1" id="Layer_1" xmlns="http://www.w3.org/2000/svg" xmlns:xlink="http://www.w3.org/1999/xlink" x="0px" y="0px"
	 viewBox="0 0 90 30" style="enable-background:new 0 0 90 30;" xml:space="preserve" width="90" height="30">
<style type="text/css">
	.st0{fill:#D8D8D8;}
	.st1{fill:#888888;}
</style>
<g>
	<circle class="st0" cx="45" cy="15" r="15"/>
	<path class="st1" d="M41.1,15.2c-0.5-1.1-0.8-2.4-0.8-3.8h-2.6v1c0,0.5,0.3,1.1,1,1.7C39.4,14.6,40.2,15,41.1,15.2z M52.3,12.4v-1
		h-2.6c0,1.4-0.3,2.7-0.8,3.8c1-0.2,1.8-0.6,2.4-1.2C51.9,13.5,52.3,12.9,52.3,12.4z M53.6,11v1.3c0,0.5-0.1,1-0.4,1.5
		c-0.3,0.5-0.7,0.9-1.2,1.3c-0.5,0.4-1.1,0.7-1.8,1c-0.7,0.3-1.4,0.4-2.2,0.5c-0.3,0.4-0.6,0.7-1,1c-0.3,0.2-0.4,0.5-0.5,0.7
		c-0.1,0.3-0.1,0.6-0.1,0.9c0,0.4,0.1,0.7,0.3,0.9s0.5,0.4,1,0.4s1,0.2,1.4,0.5s0.6,0.7,0.6,1.2v0.7c0,0.1,0,0.2-0.1,0.2
		s-0.1,0.1-0.2,0.1h-8.6c-0.1,0-0.2,0-0.2-0.1s-0.1-0.1-0.1-0.2v-0.7c0-0.5,0.2-0.9,0.6-1.2c0.4-0.3,0.9-0.5,1.4-0.5s0.8-0.1,1-0.4
		s0.3-0.6,0.3-0.9c0-0.4,0-0.7-0.1-0.9c-0.1-0.3-0.3-0.5-0.5-0.7c-0.4-0.3-0.7-0.6-1-1c-0.8,0-1.5-0.2-2.2-0.5
		c-0.7-0.3-1.3-0.6-1.8-1s-0.9-0.8-1.2-1.3s-0.4-1-0.4-1.5V11c0-0.3,0.1-0.5,0.3-0.7s0.4-0.3,0.7-0.3h3V9c0-0.5,0.2-0.8,0.5-1.2
		c0.3-0.3,0.7-0.5,1.2-0.5H48c0.5,0,0.8,0.2,1.2,0.5c0.3,0.3,0.5,0.7,0.5,1.2v1h3c0.3,0,0.5,0.1,0.7,0.3
		C53.5,10.5,53.6,10.8,53.6,11z"/>
</g>
<circle class="st0" cx="75" cy="15" r="15"/>
<g>
	<circle class="st0" cx="15" cy="15" r="15"/>
	<path class="st1" d="M18,8.5c-0.5-0.8-0.4-1.9,0.4-2.4s1.9-0.4,2.4,0.4s0.4,1.9-0.4,2.4C19.6,9.5,18.5,9.3,18,8.5z M11.1,22.2h6.1
		c2.1,0,4-1.6,4.3-3.7l1.7-8.5h-1.7l-1.7,8.2c-0.2,1.3-1.3,2.2-2.6,2.2h-6.1C11.1,20.4,11.1,22.2,11.1,22.2z M5.9,20.9l1.3,1.3
		l3.3-2.6h5.9c1.3,0,2.3-0.9,2.6-2.1l1.2-5.1c0.2-1.1-0.5-2.1-1.6-2.3l0,0c-0.3-0.1-0.6,0-0.9,0.1c-0.2,0.1-0.5,0.2-0.7,0.3
		l-1.4,1.1c-1.1,0.9-2.7,1.4-4.1,1.1v1.8c1.6,0.3,3.1-0.3,4.5-1.1L15.2,17H11L5.9,20.9z"/>
</g>
<path class="st1" d="M73,10.3h4v-1h-4V10.3z M70.2,10.3v10h-0.5c-0.5,0-0.9-0.2-1.2-0.5S68,19,68,18.5V12c0-0.5,0.2-0.9,0.5-1.2
	s0.8-0.5,1.2-0.5H70.2z M79,10.3v10h-8v-10h1V9c0-0.2,0.1-0.4,0.2-0.5c0.1-0.1,0.3-0.2,0.5-0.2h4.5c0.2,0,0.4,0.1,0.5,0.2
	C77.9,8.6,78,8.8,78,9v1.2H79z M82,12v6.5c0,0.5-0.2,0.9-0.5,1.2s-0.8,0.5-1.2,0.5h-0.5v-10h0.5c0.5,0,0.9,0.2,1.2,0.5
	S82,11.5,82,12z"/>
</svg>
