<svg xmlns="http://www.w3.org/2000/svg" width="477.231" height="659.05" viewBox="0 0 477.231 659.05">
  <path id="Single_Grain_copy" data-name="Single Grain copy" d="M1509.606,531.872l-.06-2.22a18.891,18.891,0,0,0,.045-2.251l-.435-7.219c-1.786-24.051-8-52.546-18.454-84.649l0-.028c-12.35-37.875-30.657-81.288-54.427-129.036-27.416-55.042-52.026-95.678-52.986-97.284l-2.431-4.052c-13.536-22.9-47.509-77.836-99.384-71.848-13.9,1.68-27.491,7.578-40.4,17.528-19.808,15.23-35.009,37.3-47.209,56.782l-11.149,17.752c-12.14,19.689-36.33,60.009-61.255,107.773a129.718,129.718,0,0,0-9.116,17.726c-.06.115-.173.18-.233.3-27.611,54.382-48.439,103.2-61.885,145.062-5.042,15.682-9.063,30.507-11.96,44.029-1.943,9.011-3.448,17.732-4.483,26.076a.962.962,0,0,0-.034.109q-.765,6.348-1.2,12.395a16.024,16.024,0,0,0,0,2.4c-.06.961-.135,2.476-.135,2.656-.87,36.465,11.93,69.778,37.065,96.383l6.542,6.453a486.875,486.875,0,0,0,136.224,90.681l2.3,1.005c18.128,9.184,33.9,13.491,50.78,13.491a115.561,115.561,0,0,0,20.783-2c28.451-5.193,47.419-17.707,66.6-34.454l2.926-2.356c14.3-11.6,28.391-23.965,41.9-36.75,7.908-7.473,15.231-14.735,21.969-21.684,4.982-5.147,9.649-10.114,14.556-15.485.052-.059.09-.131.142-.188a.235.235,0,0,0,.053-.038c14.556-15.966,27.656-31.782,40.051-48.348.03-.046,2-2.656,2.026-2.716l3.241-4.517c3.046-4.412,5.867-8.944,8.493-13.55a.118.118,0,0,0,.015-.015C1502.163,585.053,1509.606,558.117,1509.606,531.872ZM1263.568,180.027c7.593-5.852,15.1-9.258,22.194-10.113,24.76-2.792,47.614,27.325,63.385,54.065l2.551,4.247c.24.405,24.88,41.1,51.561,94.688q11.5,23.069,21.189,44.657c-.285-.167-.623-.264-.912-.431a203.584,203.584,0,0,0-30.961-14.664c-2.037-.764-4.322-1.548-7.1-2.475-.383-.127-.739-.264-1.125-.391l-.544-.165c-.364-.12-.6-.2-.987-.33l-4.472-1.351c-.075-.015-3.751-1.11-3.811-1.14l-.184-.047c-.116-.034-.731-.191-1.054-.268-.953-.242-2.026-.517-2.063-.525l-.026-.008-.018-.007v0l-6.048-1.519-.368-.089-.488-.122c-2.266-.512-4.765-1.026-7.766-1.609-.36-.07-.713-.154-1.073-.222h-.022c-.3-.058-.593-.112-.893-.165-.233-.043-.375-.074-.615-.119-3.061-.556-6.122-1.066-9.244-1.515l-2.491-.3q-2.228-.293-4.457-.539c-.022-.005-.615-.07-1-.116-.5-.06-.713-.086-1.328-.157a.077.077,0,0,1-.03-.011.084.084,0,0,0-.045,0c-.4-.047-.66-.076-.863-.1,0,0-.086-.012-.1-.012h0l-.4-.047c-3.174-.315-6.37-.555-9.6-.751a.074.074,0,0,0-.03.008c-.51-.034-1.088-.073-1.291-.083a.13.13,0,0,1-.03.006l-9.574-.4c-43.352-1.156-80.1-23.155-93.637-56.048a69.318,69.318,0,0,1-5.282-27.761,72,72,0,0,1,1.553-12.567l8.966-14.279C1235.582,210.458,1248.382,191.716,1263.568,180.027Zm-78.647,113.925c.255.645.51,1.29.78,1.951,19.073,46.353,68.832,77.34,127,78.931,2.881.03,5.747.165,9.454.376l8.073.617c.229.023,1.512.177,2.446.284.4.048.878.1.915.1s.1.017.154.022l27.007,5,3.016.693c.217.056.427.034.641.082.157.047.281.16.439.2s.315.024.473.062c.127.045.221.152.352.193s1.081.315,1.246.375h.015v.016c.045.013.09.007.135.02v.01l12.605,4.141a167.412,167.412,0,0,1,24.055,11.184c2.7,1.523,4.986,3.45,7.555,5.108a154.178,154.178,0,0,1,13.615,9.3c2.584,2.093,4.678,4.556,7.079,6.794a137.948,137.948,0,0,1,10.692,10.434c2.251,2.616,3.95,5.548,5.965,8.3a124.069,124.069,0,0,1,7.728,11.033,404.5,404.5,0,0,1,12.732,49.069,109.177,109.177,0,0,0-8.1-8.164,116.283,116.283,0,0,0-20.858-14.842c-2.307-1.312-4.855-2.226-7.263-3.4a130.66,130.66,0,0,0-16.859-7.028c-3.031-.98-6.167-1.644-9.3-2.423a144.6,144.6,0,0,0-17.306-3.318c-3.455-.428-6.91-.672-10.436-.865-2.859-.157-5.6-.7-8.494-.7-5.222,0-10.489.27-15.8.78-5.132.509-10.189,1.245-15.366,2.206l-70.438,13.9c-4.322.825-8.718,1.5-13.235,1.936a137.151,137.151,0,0,1-21.863.494c-33-1.785-61.675-15.216-78.691-36.823a73.321,73.321,0,0,1-10.489-18.143,69.142,69.142,0,0,1-4.922-27.312,77.831,77.831,0,0,1,5.958-28.076,102.286,102.286,0,0,1,7.833-15.05C1164.514,330.282,1175.288,310.789,1184.922,293.952ZM1074.313,547.973c2.656-12.349,6.363-25.959,11.03-40.486,6.768-21.1,15.546-44.131,26.26-68.907.282.651.8,1.184,1.1,1.829a110.717,110.717,0,0,0,13.385,22.39c23.589,29.952,62.11,48.5,105.657,50.857a175.771,175.771,0,0,0,27.551-.616c5.6-.555,11.1-1.381,16.522-2.416l70.5-13.9c3.947-.75,7.923-1.336,11.945-1.726,30.537-2.957,58.973,5.192,77.941,22.4a67.5,67.5,0,0,1,22.764,51.261c0,2.131-.12,4.246-.3,6.317a83.281,83.281,0,0,1-3.841,18.586c-1.591,2.706-3.253,5.394-5.027,8.005a84.084,84.084,0,0,0-4.652-13.6c-.458-1.06-1.05-2.046-1.553-3.085a84.268,84.268,0,0,0-6.52-11.215c-.848-1.231-1.677-2.45-2.589-3.64a87.7,87.7,0,0,0-11.082-12.154c-22.1-19.673-54.066-28.646-87.815-24.609a145.845,145.845,0,0,0-62.7,23.169l-.12.081-.015.009-.735.5-56.873,38.6a130.675,130.675,0,0,1-50.27,17.887c-32.443,4.306-62.485-3.961-80.417-22.434a56.58,56.58,0,0,1-8.733-11.755c-.75-1.332-1.148-2.81-1.778-4.2a52.272,52.272,0,0,1-3.039-8.152q1.317-9.217,3.406-18.994Zm318.712,120.993q-9.611,9.9-20.843,20.573c-12.83,12.155-26.215,23.889-39.766,34.873l-3.436,2.793c-18.592,16.221-31.543,23.124-49.49,26.394-17.767,3.2-29.937,1.186-49.069-8.477l-3.136-1.41a453.143,453.143,0,0,1-128.046-85.864l-2.851-2.821a1.453,1.453,0,0,0-.15-.166,99.551,99.551,0,0,1-14.736-20.018,122.341,122.341,0,0,0,23.544,9.93c2.236.709,4.543,1.181,6.839,1.775a140.037,140.037,0,0,0,20.982,3.76c2.607.271,5.147.6,7.8.729a156.966,156.966,0,0,0,29.194-.977,168.1,168.1,0,0,0,64.511-22.944l2.746-1.711c2.431-1.561,4.8-3.181,6.662-4.532L1293.4,587.08a108.6,108.6,0,0,1,46.563-17.2c18.487-2.188,35.707,1.157,49.2,8.914a57.467,57.467,0,0,1,9.694,6.632,47.779,47.779,0,0,1,15.445,26.41,51.893,51.893,0,0,1,1.032,10.565,59.613,59.613,0,0,1-2.071,15.125,73.238,73.238,0,0,1-7.957,18.371C1401.443,660.114,1397.4,664.454,1393.025,668.966Z" transform="translate(-1032.375 -132.83)" fill="rgba(239,241,243,0.45)"/>
</svg>
