<svg height="348.956" viewBox="0 0 218.973 348.956" width="218.973" xmlns="http://www.w3.org/2000/svg" xmlns:xlink="http://www.w3.org/1999/xlink"><linearGradient id="a" gradientTransform="matrix(-1 0 0 1 -550.468 0)" gradientUnits="userSpaceOnUse" x1="-646.482" x2="-644.09" y1="218.135" y2="359.272"><stop offset="0" stop-color="#a94531"/><stop offset=".09" stop-color="#bb4f33"/><stop offset=".259" stop-color="#d96136"/><stop offset=".405" stop-color="#eb6c38"/><stop offset=".51" stop-color="#f27039"/><stop offset="1" stop-color="#f3b545"/></linearGradient><linearGradient id="b" gradientTransform="matrix(-1 0 0 1 -550.468 0)" gradientUnits="userSpaceOnUse" x1="-632.226" x2="-664.137" y1="153.941" y2="270.947"><stop offset="0" stop-color="#c56b2e"/><stop offset=".376" stop-color="#f27039"/><stop offset="1" stop-color="#f3b545"/></linearGradient><linearGradient id="c" gradientTransform="matrix(-1 0 0 1 -550.468 0)" gradientUnits="userSpaceOnUse" x1="-653.221" x2="-692.816" y1="-30.005" y2="145.346"><stop offset="0" stop-color="#f28c2a"/><stop offset=".258" stop-color="#f58834"/><stop offset="1" stop-color="#f3b545"/></linearGradient><linearGradient id="d" gradientTransform="matrix(-1 0 0 1 -550.468 0)" gradientUnits="userSpaceOnUse" x1="-666.327" x2="-693.877" y1="28.037" y2="150.046"><stop offset=".058" stop-color="#f28c2a" stop-opacity=".8"/><stop offset=".999" stop-color="#f4deba" stop-opacity=".4"/></linearGradient><linearGradient id="e" x1="-653.433" x2="-679.946" xlink:href="#c" y1="53.15" y2="207.967"/><path d="m.136 252.779-.068.013c.123-1.839.313-3.731.551-5.659 1.452 6.685 4.771 12.624 9.53 17.523 10.6 10.912 28.154 16.539 47.806 13.856 10.492-1.432 20.235-5.062 28.551-10.159.345-.211.691-.42 1.031-.636h.003s.154-.103.154-.103c1.059-.678 2.089-1.384 3.097-2.109l23.195-15.794 1.536-1.046c.021-.014.043-.028.064-.042 7.941-5.235 17.252-8.824 27.113-10.002 26.782-3.2 47.813 12.576 47.743 35.247-.01 3.322-.479 6.618-1.334 9.845-1.106 4.175-2.876 8.233-5.211 12.068-.121.132-.246.267-.367.4-2.11 2.307-4.367 4.712-6.776 7.198-3.267 3.371-6.814 6.891-10.635 10.509-6.067 5.745-12.833 11.744-20.319 17.806l-1.442 1.174c-9.687 8.446-17.632 13.166-29.002 15.238-11.525 2.1-19.69.239-29.797-4.875l-1.527-.685c-34.839-15.482-57.157-35.755-65.178-43.377-.391-.363-.771-.735-1.152-1.107-1.172-1.141-1.783-1.783-1.783-1.783h.006c-10.37-10.962-16.293-25.191-15.907-41.383.017-.707.077-1.411.118-2.117z" fill="url(#a)"/><path d="m115.585 248.624c-.021.014-.043.028-.064.042l.063-.043z" fill="#de6ca6" opacity=".49"/><path d="m2.721 234.91c1.445-6.72 3.388-13.771 5.715-21.014 7.497-23.338 18.887-48.477 30.222-70.792-2.249 5.496-3.529 11.295-3.65 17.247-.123 6.079.981 11.845 3.103 17.17 1.613 4.046 3.808 7.831 6.527 11.287 9.926 12.613 26.552 20.76 45.844 21.808 4.001.217 8.105.143 12.292-.276 2.501-.25 4.961-.622 7.379-1.087.778-.15 1.554-.306 2.323-.477l.006.004 32.749-6.443-.004.006c2.232-.422 4.489-.753 6.77-.976 33.784-3.3 60.16 17.169 60.139 45.76-.001 1.303-.074 2.599-.181 3.893-.337 4.076-1.174 8.102-2.488 12.018-1.175 2.062-2.438 4.092-3.807 6.074l.004-.002s-.503.725-1.467 2.036c-.314.428-.627.856-.95 1.279-3.351 4.475-9.819 12.899-19.351 23.358 2.336-3.836 4.106-7.894 5.211-12.068.854-3.227 1.323-6.523 1.334-9.845.07-22.67-20.961-38.447-47.743-35.247-9.861 1.178-19.173 4.767-27.113 10.002s-.063.042-.063.042c-.518.342-1.03.69-1.536 1.046l-23.195 15.794-3.097 2.109-.154.105h-.003c-.34.215-.686.424-1.031.635-8.316 5.097-18.06 8.727-28.551 10.159-19.652 2.682-37.206-2.945-47.806-13.856-4.759-4.899-8.077-10.837-9.53-17.523.482-3.915 1.195-8.003 2.103-12.224z" fill="url(#b)"/><g fill="none"><path d="m139.915 142.113c-1.464-.143-2.942-.26-4.434-.349 1.491.089 2.969.206 4.432.349z"/><path d="m141.643 142.312c-.394-.045-.782-.102-1.177-.142.395.041.783.098 1.177.142z"/><path d="m157.941 145.392c-.312-.085-.632-.157-.946-.239.314.082.633.154.946.239z"/><path d="m153.837 144.361c-1.331-.304-2.679-.581-4.039-.838 1.36.257 2.708.533 4.039.838z"/><path d="m159.815 145.933c-.426-.124-.844-.262-1.273-.381.429.119.847.256 1.273.381z"/><path d="m134.985 141.737c-1.528-.085-3.068-.147-4.623-.174 1.555.027 3.094.089 4.622.174z"/></g><path d="m73.396 81.208c2.573-4.172 4.079-6.514 4.079-6.514l1.401-2.21c5.263-8.398 12.381-19.007 21.322-25.885 4.7-3.616 9.9-6.193 15.597-6.875.986-.118 1.984-.187 3-.187 17.681 0 29.866 18.664 37.432 31.474l1.231 2.059s12.398 20.415 26.014 47.758c9.493 19.065 19.573 41.495 26.554 62.922-8.921-15.88-24.111-28.402-43.29-35.546-1.215-.453-2.452-.876-3.699-1.285-1.06-.348-2.138-.668-3.22-.984-.425-.125-.844-.262-1.273-.381-.199-.055-.401-.107-.601-.161-.312-.085-.632-.157-.946-.239-1.046-.273-2.092-.548-3.158-.792-1.331-.304-2.679-.581-4.039-.838-2.663-.502-5.387-.898-8.156-1.211-.394-.044-.781-.101-1.177-.142-.183-.019-.366-.04-.55-.058-1.464-.143-2.941-.26-4.432-.349-.165-.01-.331-.017-.496-.026-1.528-.085-3.067-.147-4.622-.174v-.021c-25.405-.673-46.808-14.108-54.806-33.549-2.234-5.431-3.419-11.293-3.319-17.438.052-3.183.46-6.304 1.158-9.348z" fill="url(#c)"/><path d="m73.396 81.208c2.573-4.172 4.079-6.514 4.079-6.514l1.401-2.21c5.263-8.398 12.381-19.007 21.322-25.885 4.7-3.616 9.9-6.193 15.597-6.875.986-.118 1.984-.187 3-.187 17.681 0 29.866 18.664 37.432 31.474l1.231 2.059s12.398 20.415 26.014 47.758c9.493 19.065 19.573 41.495 26.554 62.922-8.921-15.88-24.111-28.402-43.29-35.546-1.215-.453-2.452-.876-3.699-1.285-1.06-.348-2.138-.668-3.22-.984-.425-.125-.844-.262-1.273-.381-.199-.055-.401-.107-.601-.161-.312-.085-.632-.157-.946-.239-1.046-.273-2.092-.548-3.158-.792-1.331-.304-2.679-.581-4.039-.838-2.663-.502-5.387-.898-8.156-1.211-.394-.044-.781-.101-1.177-.142-.183-.019-.366-.04-.55-.058-1.464-.143-2.941-.26-4.432-.349-.165-.01-.331-.017-.496-.026-1.528-.085-3.067-.147-4.622-.174v-.021c-25.405-.673-46.808-14.108-54.806-33.549-2.234-5.431-3.419-11.293-3.319-17.438.052-3.183.46-6.304 1.158-9.348z" fill="url(#d)"/><path d="m139.915 142.113c.184.018.367.039.55.058-.183-.019-.366-.039-.55-.058z" fill="#9e403e" opacity=".49"/><path d="m139.915 142.113c.184.018.367.039.55.058-.183-.019-.366-.039-.55-.058z" fill="#de6ca6" opacity=".49"/><path d="m134.985 141.737c.165.009.331.016.496.026-.165-.01-.331-.017-.496-.026z" fill="#9e403e" opacity=".49"/><path d="m134.985 141.737c.165.009.331.016.496.026-.165-.01-.331-.017-.496-.026z" fill="#de6ca6" opacity=".49"/><path d="m149.092 143.393c-1.399-.254-2.81-.49-4.239-.693h-.001c-1.059-.151-2.133-.268-3.209-.388 2.769.313 5.493.709 8.156 1.211-.235-.044-.471-.087-.706-.13z" fill="#9e403e" opacity=".49"/><path d="m149.092 143.393c-1.399-.254-2.81-.49-4.239-.693h-.001c-1.059-.151-2.133-.268-3.209-.388 2.769.313 5.493.709 8.156 1.211-.235-.044-.471-.087-.706-.13z" fill="#de6ca6" opacity=".49"/><path d="m154.274 144.466c-.146-.034-.291-.071-.437-.105 1.065.243 2.112.518 3.158.792-.902-.236-1.804-.473-2.72-.687z" fill="#9e403e" opacity=".49"/><path d="m154.274 144.466c-.146-.034-.291-.071-.437-.105 1.065.243 2.112.518 3.158.792-.902-.236-1.804-.473-2.72-.687z" fill="#de6ca6" opacity=".49"/><path d="m38.658 143.103c1.164-2.846 2.596-5.604 4.257-8.261 12.576-24.054 24.489-43.919 30.481-53.634-.698 3.044-1.107 6.165-1.158 9.348-.1 6.145 1.085 12.007 3.319 17.438 7.998 19.44 29.401 32.876 54.805 33.549v.021c1.556.027 3.095.089 4.623.174.165.009.331.016.496.026 1.491.089 2.969.206 4.434.349.184.018.367.039.55.058.396.041.784.098 1.177.142 1.075.12 2.15.237 3.209.388h.001c1.429.203 2.84.439 4.239.694.236.043.472.086.706.13 1.36.257 2.708.534 4.039.838.146.034.291.071.437.105.916.214 1.819.451 2.72.687.314.082.634.154.946.239.2.054.402.105.601.161.429.119.847.257 1.273.381.822.241 1.646.476 2.455.734.256.082.51.166.765.25 1.248.409 2.484.833 3.699 1.285 19.179 7.144 34.369 19.666 43.29 35.546 4.591 14.093 7.857 27.803 8.755 39.945.082 1.108.151 2.207.193 3.288l-.052.002c.018.614.052 1.222.052 1.842 0 11.895-3.438 23.559-9.506 34.209 1.314-3.916 2.152-7.941 2.488-12.018.107-1.293.18-2.59.181-3.893.021-28.591-26.355-49.06-60.139-45.76-2.281.223-4.539.554-6.77.976l.004-.006-32.749 6.443-.006-.004c-.769.171-1.544.328-2.323.477-2.418.465-4.877.837-7.379 1.087-4.186.419-8.291.493-12.292.276-19.292-1.047-35.918-9.195-45.844-21.808-2.719-3.455-4.915-7.241-6.527-11.287-2.122-5.324-3.226-11.091-3.103-17.17.12-5.952 1.401-11.751 3.65-17.247z" fill="url(#e)"/><path d="m162.27 146.668c-.809-.258-1.633-.494-2.455-.734 1.083.316 2.16.636 3.22.984-.255-.084-.509-.168-.765-.25z" fill="#9e403e" opacity=".49"/><path d="m162.27 146.668c-.809-.258-1.633-.494-2.455-.734 1.083.316 2.16.636 3.22.984-.255-.084-.509-.168-.765-.25z" fill="#de6ca6" opacity=".49"/><path d="m157.941 145.392c.2.054.401.106.601.161-.199-.055-.401-.107-.601-.161z" fill="#9e403e" opacity=".49"/><path d="m157.941 145.392c.2.054.401.106.601.161-.199-.055-.401-.107-.601-.161z" fill="#de6ca6" opacity=".49"/><g fill-rule="evenodd"><path d="m92.923 0h5v5h-5z" fill="#f27038"/><path d="m107.923 10h5v5h-5z" fill="#fde29a"/><path d="m112.923 10h5v5h-5z" fill="#fde29a"/><path d="m112.923 15h5v5h-5z" fill="#fde29a"/><path d="m112.923 5h5v5h-5z" fill="#f8c94e"/><path d="m107.923 5h5v5h-5z" fill="#f8c94e"/><path d="m102.923 5h5v5h-5z" fill="#f8c94e"/><g fill="#f27038"><path d="m112.923 20h5v5h-5z"/><path d="m107.923 15h5v5h-5z"/><path d="m102.923 10h5v5h-5z"/><path d="m97.923 5h5v5h-5z"/><path d="m97.923 0h5v5h-5z"/><path d="m102.923 0h5v5h-5z"/><path d="m107.923 0h5v5h-5z"/><path d="m112.923 0h5v5h-5z"/></g><path d="m117.923 35h5v5h-5z" fill="#f89f21"/><path d="m117.923 30h5v5h-5z" fill="#f89f21"/><path d="m117.923 25h5v5h-5z" fill="#f89f21"/><path d="m117.923 20h5v5h-5z" fill="#f89f21"/><path d="m117.923 15h5v5h-5z" fill="#f89f21"/><path d="m117.923 10h5v5h-5z" fill="#f89f21"/><path d="m117.923 5h5v5h-5z" fill="#f89f21"/><path d="m117.923 0h5v5h-5z" fill="#f89f21"/></g></svg>