<?xml version="1.0" encoding="UTF-8"?>
<svg xmlns="http://www.w3.org/2000/svg" width="147.981" height="29.871" xmlns:xlink="http://www.w3.org/1999/xlink" viewBox="0 0 147.981 29.871">
  <defs>
    <style>
      .cls-1 {
        fill: url(#linear-gradient-2);
      }

      .cls-2 {
        fill: url(#linear-gradient-6);
      }

      .cls-3 {
        isolation: isolate;
      }

      .cls-4 {
        fill: #515048;
      }

      .cls-5 {
        fill: url(#linear-gradient-5);
      }

      .cls-6 {
        fill: #df6ca8;
      }

      .cls-6, .cls-7 {
        opacity: .49;
      }

      .cls-8 {
        fill: none;
      }

      .cls-9 {
        fill: url(#linear-gradient-4);
        mix-blend-mode: overlay;
      }

      .cls-10 {
        fill: url(#linear-gradient-3);
      }

      .cls-11 {
        fill: url(#linear-gradient);
      }

      .cls-7 {
        fill: #9f413e;
      }
    </style>
    <linearGradient id="linear-gradient" x1="-2971.247" y1="17.242" x2="-2971.016" y2="30.867" gradientTransform="translate(-2961.978) rotate(-180) scale(1 -1)" gradientUnits="userSpaceOnUse">
      <stop offset="0" stop-color="#aa4632"/>
      <stop offset=".09" stop-color="#bc5033"/>
      <stop offset=".259" stop-color="#da6236"/>
      <stop offset=".405" stop-color="#ec6d38"/>
      <stop offset=".51" stop-color="#f37139"/>
      <stop offset="1" stop-color="#f3b646"/>
    </linearGradient>
    <linearGradient id="linear-gradient-2" x1="-2969.871" y1="11.045" x2="-2972.952" y2="22.34" gradientTransform="translate(-2961.978) rotate(-180) scale(1 -1)" gradientUnits="userSpaceOnUse">
      <stop offset="0" stop-color="#c56b2e"/>
      <stop offset=".376" stop-color="#f37139"/>
      <stop offset="1" stop-color="#f3b646"/>
    </linearGradient>
    <linearGradient id="linear-gradient-3" x1="-2971.898" y1="-6.714" x2="-2975.72" y2="10.215" gradientTransform="translate(-2961.978) rotate(-180) scale(1 -1)" gradientUnits="userSpaceOnUse">
      <stop offset="0" stop-color="#f38e2a"/>
      <stop offset=".258" stop-color="#f58835"/>
      <stop offset="1" stop-color="#f3b646"/>
    </linearGradient>
    <linearGradient id="linear-gradient-4" x1="-2973.163" y1="-1.11" x2="-2975.823" y2="10.669" gradientTransform="translate(-2961.978) rotate(-180) scale(1 -1)" gradientUnits="userSpaceOnUse">
      <stop offset=".058" stop-color="#f38e2a" stop-opacity=".8"/>
      <stop offset=".999" stop-color="#f4debb" stop-opacity=".4"/>
    </linearGradient>
    <linearGradient id="linear-gradient-5" x1="-2971.918" y1="1.314" x2="-2974.478" y2="16.26" xlink:href="#linear-gradient-3"/>
    <linearGradient id="linear-gradient-6" x1="-2971.918" y1="1.314" x2="-2974.478" y2="16.26" xlink:href="#linear-gradient-3"/>
  </defs>
  <g class="cls-3">
    <g id="Layer_2" data-name="Layer 2">
      <g id="Isolation_Mode" data-name="Isolation Mode">
        <g>
          <g>
            <g>
              <path class="cls-11" d="m.013,20.586h-.007c.012-.176.03-.359.053-.545.14.645.461,1.219.92,1.692,1.023,1.053,2.718,1.597,4.615,1.338,1.013-.138,1.953-.489,2.756-.981.033-.02.067-.041.1-.061h0s.015-.01.015-.01c.102-.065.202-.134.299-.204l2.239-1.525.148-.101.006-.004c.767-.505,1.666-.852,2.618-.966,2.586-.309,4.616,1.214,4.609,3.403,0,.321-.046.639-.129.95-.107.403-.278.795-.503,1.165-.012.013-.024.026-.035.039-.204.223-.422.455-.654.695-.315.325-.658.665-1.027,1.015-.586.555-1.239,1.134-1.962,1.719l-.139.113c-.935.815-1.702,1.271-2.8,1.471-1.113.203-1.901.023-2.877-.471l-.147-.066c-3.363-1.495-5.518-3.452-6.292-4.188-.038-.035-.074-.071-.111-.107-.113-.11-.172-.172-.172-.172h0C.536,23.728-.035,22.354.002,20.791c.002-.068.007-.136.011-.204Z"/>
              <polygon class="cls-6" points="11.159 20.185 11.152 20.189 11.158 20.185 11.159 20.185"/>
              <path class="cls-1" d="m.263,18.861c.14-.649.327-1.329.552-2.029.724-2.253,1.823-4.68,2.918-6.834-.217.531-.341,1.09-.352,1.665-.012.587.095,1.144.3,1.658.156.391.368.756.63,1.09.958,1.218,2.563,2.004,4.426,2.105.386.021.782.014,1.187-.027.241-.024.479-.06.712-.105.075-.014.15-.03.224-.046h0s3.162-.622,3.162-.622h0c.215-.04.433-.072.654-.094,3.262-.319,5.808,1.658,5.806,4.418,0,.126-.007.251-.017.376-.032.394-.113.782-.24,1.16-.113.199-.235.395-.368.586h0s-.049.07-.142.196c-.03.041-.061.083-.092.124-.324.432-.948,1.245-1.868,2.255.225-.37.396-.762.503-1.165.083-.311.128-.63.129-.95.007-2.189-2.024-3.712-4.609-3.403-.952.114-1.851.46-2.618.966h0s-.006.004-.006.004c-.05.033-.099.067-.148.101l-2.239,1.525-.299.204-.015.01h0c-.033.021-.066.041-.1.061-.803.492-1.743.842-2.756.981-1.897.259-3.592-.284-4.615-1.338-.459-.473-.78-1.046-.92-1.692.047-.378.115-.773.203-1.18Z"/>
              <path class="cls-8" d="m13.507,9.903h0c-.141-.014-.284-.025-.428-.034h0c.144.009.287.02.428.034Z"/>
              <path class="cls-8" d="m13.674,9.922c-.038-.004-.075-.01-.114-.014h0c.038.004.076.009.114.014Z"/>
              <path class="cls-8" d="m15.248,10.219c-.03-.008-.061-.015-.091-.023.03.008.061.015.091.023h0Z"/>
              <path class="cls-8" d="m14.851,10.12h0c-.128-.029-.259-.056-.39-.081h0c.131.025.261.052.39.081Z"/>
              <path class="cls-8" d="m15.429,10.271c-.041-.012-.082-.025-.123-.037h0c.041.012.082.025.123.037Z"/>
              <path class="cls-8" d="m13.031,9.866c-.148-.008-.296-.014-.446-.017.15.003.299.009.446.017h0Z"/>
              <path class="cls-10" d="m7.086,4.023c.248-.403.394-.629.394-.629l.135-.213c.508-.811,1.195-1.835,2.058-2.499.454-.349.956-.598,1.506-.664.095-.011.192-.018.29-.018,1.707,0,2.883,1.802,3.614,3.038l.119.199s1.197,1.971,2.511,4.611c.917,1.841,1.89,4.006,2.563,6.074-.861-1.533-2.328-2.742-4.179-3.432-.117-.044-.237-.085-.357-.124h0c-.102-.034-.206-.065-.311-.095-.041-.012-.081-.025-.123-.037h0c-.019-.005-.039-.01-.058-.016h0c-.03-.008-.061-.015-.091-.023-.101-.026-.202-.053-.305-.076h0c-.128-.029-.259-.056-.39-.081h0c-.257-.049-.52-.087-.787-.117-.038-.004-.075-.01-.114-.014h0c-.018-.002-.035-.004-.053-.006h0c-.141-.014-.284-.025-.428-.034h0c-.016,0-.032-.002-.048-.003h0c-.147-.008-.296-.014-.446-.017v-.002c-2.453-.065-4.519-1.362-5.291-3.239-.216-.524-.33-1.09-.32-1.683.005-.307.044-.609.112-.902Z"/>
              <path class="cls-9" d="m7.086,4.023c.248-.403.394-.629.394-.629l.135-.213c.508-.811,1.195-1.835,2.058-2.499.454-.349.956-.598,1.506-.664.095-.011.192-.018.29-.018,1.707,0,2.883,1.802,3.614,3.038l.119.199s1.197,1.971,2.511,4.611c.917,1.841,1.89,4.006,2.563,6.074-.861-1.533-2.328-2.742-4.179-3.432-.117-.044-.237-.085-.357-.124h0c-.102-.034-.206-.065-.311-.095-.041-.012-.081-.025-.123-.037h0c-.019-.005-.039-.01-.058-.016h0c-.03-.008-.061-.015-.091-.023-.101-.026-.202-.053-.305-.076h0c-.128-.029-.259-.056-.39-.081h0c-.257-.049-.52-.087-.787-.117-.038-.004-.075-.01-.114-.014h0c-.018-.002-.035-.004-.053-.006h0c-.141-.014-.284-.025-.428-.034h0c-.016,0-.032-.002-.048-.003h0c-.147-.008-.296-.014-.446-.017v-.002c-2.453-.065-4.519-1.362-5.291-3.239-.216-.524-.33-1.09-.32-1.683.005-.307.044-.609.112-.902Z"/>
              <path class="cls-7" d="m13.507,9.903c.018.002.035.004.053.006-.018-.002-.035-.004-.053-.006Z"/>
              <path class="cls-6" d="m13.507,9.903c.018.002.035.004.053.006-.018-.002-.035-.004-.053-.006Z"/>
              <path class="cls-7" d="m13.031,9.866c.016,0,.032.002.048.003-.016,0-.032-.002-.048-.003Z"/>
              <path class="cls-6" d="m13.031,9.866c.016,0,.032.002.048.003-.016,0-.032-.002-.048-.003Z"/>
              <path class="cls-7" d="m14.393,10.026c-.135-.025-.271-.047-.409-.067h0c-.102-.015-.206-.026-.31-.037.267.03.53.068.787.117-.023-.004-.045-.008-.068-.013Z"/>
              <path class="cls-6" d="m14.393,10.026c-.135-.025-.271-.047-.409-.067h0c-.102-.015-.206-.026-.31-.037.267.03.53.068.787.117-.023-.004-.045-.008-.068-.013Z"/>
              <path class="cls-7" d="m14.894,10.13c-.014-.003-.028-.007-.042-.01.103.023.204.05.305.076-.087-.023-.174-.046-.263-.066Z"/>
              <path class="cls-6" d="m14.894,10.13c-.014-.003-.028-.007-.042-.01.103.023.204.05.305.076-.087-.023-.174-.046-.263-.066Z"/>
              <path class="cls-5" d="m3.732,9.998c.112-.275.251-.541.411-.798,1.214-2.322,2.364-4.24,2.943-5.178-.067.294-.107.595-.112.902-.01.593.105,1.159.32,1.683.772,1.877,2.838,3.174,5.291,3.239v.002c.15.003.299.009.446.017.016,0,.032.002.048.003.144.009.287.02.428.034.018.002.035.004.053.006.038.004.076.009.114.014.104.012.208.023.31.037h0c.138.02.274.042.409.067.023.004.046.008.068.013.131.025.261.052.39.081.014.003.028.007.042.01.089.021.176.044.263.066.03.008.061.015.091.023.019.005.039.01.058.016.041.012.082.025.123.037.079.023.159.046.237.071.025.008.049.016.074.024.12.04.24.08.357.124,1.852.69,3.318,1.899,4.179,3.432.443,1.361.759,2.684.845,3.856.008.107.015.213.019.317h-.005c.002.059.005.118.005.178,0,1.148-.332,2.274-.918,3.303.127-.378.208-.767.24-1.16.01-.125.017-.25.017-.376.002-2.76-2.544-4.736-5.806-4.418-.22.022-.438.053-.654.094h0s-3.162.621-3.162.621h0c-.074.016-.149.031-.224.046-.233.045-.471.081-.712.105-.404.04-.8.048-1.187.027-1.862-.101-3.468-.888-4.426-2.105-.263-.334-.474-.699-.63-1.09-.205-.514-.311-1.071-.3-1.658.012-.575.135-1.134.352-1.665Z"/>
              <path class="cls-7" d="m15.666,10.342c-.078-.025-.158-.048-.237-.071.104.03.209.061.311.095-.025-.008-.049-.016-.074-.024Z"/>
              <path class="cls-6" d="m15.666,10.342c-.078-.025-.158-.048-.237-.071.104.03.209.061.311.095-.025-.008-.049-.016-.074-.024Z"/>
              <path class="cls-7" d="m15.248,10.219c.019.005.039.01.058.016-.019-.005-.039-.01-.058-.016Z"/>
              <path class="cls-6" d="m15.248,10.219c.019.005.039.01.058.016-.019-.005-.039-.01-.058-.016Z"/>
            </g>
            <g>
              <path class="cls-11" d="m.013,20.586h-.007c.012-.176.03-.359.053-.545.14.645.461,1.219.92,1.692,1.023,1.053,2.718,1.597,4.615,1.338,1.013-.138,1.953-.489,2.756-.981.033-.02.067-.041.1-.061h0s.015-.01.015-.01c.102-.065.202-.134.299-.204l2.239-1.525.148-.101.006-.004c.767-.505,1.666-.852,2.618-.966,2.586-.309,4.616,1.214,4.609,3.403,0,.321-.046.639-.129.95-.107.403-.278.795-.503,1.165-.012.013-.024.026-.035.039-.204.223-.422.455-.654.695-.315.325-.658.665-1.027,1.015-.586.555-1.239,1.134-1.962,1.719l-.139.113c-.935.815-1.702,1.271-2.8,1.471-1.113.203-1.901.023-2.877-.471l-.147-.066c-3.363-1.495-5.518-3.452-6.292-4.188-.038-.035-.074-.071-.111-.107-.113-.11-.172-.172-.172-.172h0C.536,23.728-.035,22.354.002,20.791c.002-.068.007-.136.011-.204Z"/>
              <polygon class="cls-6" points="11.159 20.185 11.152 20.189 11.158 20.185 11.159 20.185"/>
              <path class="cls-1" d="m.263,18.861c.14-.649.327-1.329.552-2.029.724-2.253,1.823-4.68,2.918-6.834-.217.531-.341,1.09-.352,1.665-.012.587.095,1.144.3,1.658.156.391.368.756.63,1.09.958,1.218,2.563,2.004,4.426,2.105.386.021.782.014,1.187-.027.241-.024.479-.06.712-.105.075-.014.15-.03.224-.046h0s3.162-.622,3.162-.622h0c.215-.04.433-.072.654-.094,3.262-.319,5.808,1.658,5.806,4.418,0,.126-.007.251-.017.376-.032.394-.113.782-.24,1.16-.113.199-.235.395-.368.586h0s-.049.07-.142.196c-.03.041-.061.083-.092.124-.324.432-.948,1.245-1.868,2.255.225-.37.396-.762.503-1.165.083-.311.128-.63.129-.95.007-2.189-2.024-3.712-4.609-3.403-.952.114-1.851.46-2.618.966h0s-.006.004-.006.004c-.05.033-.099.067-.148.101l-2.239,1.525-.299.204-.015.01h0c-.033.021-.066.041-.1.061-.803.492-1.743.842-2.756.981-1.897.259-3.592-.284-4.615-1.338-.459-.473-.78-1.046-.92-1.692.047-.378.115-.773.203-1.18Z"/>
              <path class="cls-8" d="m13.507,9.903h0c-.141-.014-.284-.025-.428-.034h0c.144.009.287.02.428.034Z"/>
              <path class="cls-8" d="m13.674,9.922c-.038-.004-.075-.01-.114-.014h0c.038.004.076.009.114.014Z"/>
              <path class="cls-8" d="m15.248,10.219c-.03-.008-.061-.015-.091-.023.03.008.061.015.091.023h0Z"/>
              <path class="cls-8" d="m14.851,10.12h0c-.128-.029-.259-.056-.39-.081h0c.131.025.261.052.39.081Z"/>
              <path class="cls-8" d="m15.429,10.271c-.041-.012-.082-.025-.123-.037h0c.041.012.082.025.123.037Z"/>
              <path class="cls-8" d="m13.031,9.866c-.148-.008-.296-.014-.446-.017.15.003.299.009.446.017h0Z"/>
              <path class="cls-10" d="m7.086,4.023c.248-.403.394-.629.394-.629l.135-.213c.508-.811,1.195-1.835,2.058-2.499.454-.349.956-.598,1.506-.664.095-.011.192-.018.29-.018,1.707,0,2.883,1.802,3.614,3.038l.119.199s1.197,1.971,2.511,4.611c.917,1.841,1.89,4.006,2.563,6.074-.861-1.533-2.328-2.742-4.179-3.432-.117-.044-.237-.085-.357-.124h0c-.102-.034-.206-.065-.311-.095-.041-.012-.081-.025-.123-.037h0c-.019-.005-.039-.01-.058-.016h0c-.03-.008-.061-.015-.091-.023-.101-.026-.202-.053-.305-.076h0c-.128-.029-.259-.056-.39-.081h0c-.257-.049-.52-.087-.787-.117-.038-.004-.075-.01-.114-.014h0c-.018-.002-.035-.004-.053-.006h0c-.141-.014-.284-.025-.428-.034h0c-.016,0-.032-.002-.048-.003h0c-.147-.008-.296-.014-.446-.017v-.002c-2.453-.065-4.519-1.362-5.291-3.239-.216-.524-.33-1.09-.32-1.683.005-.307.044-.609.112-.902Z"/>
              <path class="cls-9" d="m7.086,4.023c.248-.403.394-.629.394-.629l.135-.213c.508-.811,1.195-1.835,2.058-2.499.454-.349.956-.598,1.506-.664.095-.011.192-.018.29-.018,1.707,0,2.883,1.802,3.614,3.038l.119.199s1.197,1.971,2.511,4.611c.917,1.841,1.89,4.006,2.563,6.074-.861-1.533-2.328-2.742-4.179-3.432-.117-.044-.237-.085-.357-.124h0c-.102-.034-.206-.065-.311-.095-.041-.012-.081-.025-.123-.037h0c-.019-.005-.039-.01-.058-.016h0c-.03-.008-.061-.015-.091-.023-.101-.026-.202-.053-.305-.076h0c-.128-.029-.259-.056-.39-.081h0c-.257-.049-.52-.087-.787-.117-.038-.004-.075-.01-.114-.014h0c-.018-.002-.035-.004-.053-.006h0c-.141-.014-.284-.025-.428-.034h0c-.016,0-.032-.002-.048-.003h0c-.147-.008-.296-.014-.446-.017v-.002c-2.453-.065-4.519-1.362-5.291-3.239-.216-.524-.33-1.09-.32-1.683.005-.307.044-.609.112-.902Z"/>
              <path class="cls-7" d="m13.507,9.903c.018.002.035.004.053.006-.018-.002-.035-.004-.053-.006Z"/>
              <path class="cls-6" d="m13.507,9.903c.018.002.035.004.053.006-.018-.002-.035-.004-.053-.006Z"/>
              <path class="cls-7" d="m13.031,9.866c.016,0,.032.002.048.003-.016,0-.032-.002-.048-.003Z"/>
              <path class="cls-6" d="m13.031,9.866c.016,0,.032.002.048.003-.016,0-.032-.002-.048-.003Z"/>
              <path class="cls-7" d="m14.393,10.026c-.135-.025-.271-.047-.409-.067h0c-.102-.015-.206-.026-.31-.037.267.03.53.068.787.117-.023-.004-.045-.008-.068-.013Z"/>
              <path class="cls-6" d="m14.393,10.026c-.135-.025-.271-.047-.409-.067h0c-.102-.015-.206-.026-.31-.037.267.03.53.068.787.117-.023-.004-.045-.008-.068-.013Z"/>
              <path class="cls-7" d="m14.894,10.13c-.014-.003-.028-.007-.042-.01.103.023.204.05.305.076-.087-.023-.174-.046-.263-.066Z"/>
              <path class="cls-6" d="m14.894,10.13c-.014-.003-.028-.007-.042-.01.103.023.204.05.305.076-.087-.023-.174-.046-.263-.066Z"/>
              <path class="cls-2" d="m3.732,9.998c.112-.275.251-.541.411-.798,1.214-2.322,2.364-4.24,2.943-5.178-.067.294-.107.595-.112.902-.01.593.105,1.159.32,1.683.772,1.877,2.838,3.174,5.291,3.239v.002c.15.003.299.009.446.017.016,0,.032.002.048.003.144.009.287.02.428.034.018.002.035.004.053.006.038.004.076.009.114.014.104.012.208.023.31.037h0c.138.02.274.042.409.067.023.004.046.008.068.013.131.025.261.052.39.081.014.003.028.007.042.01.089.021.176.044.263.066.03.008.061.015.091.023.019.005.039.01.058.016.041.012.082.025.123.037.079.023.159.046.237.071.025.008.049.016.074.024.12.04.24.08.357.124,1.852.69,3.318,1.899,4.179,3.432.443,1.361.759,2.684.845,3.856.008.107.015.213.019.317h-.005c.002.059.005.118.005.178,0,1.148-.332,2.274-.918,3.303.127-.378.208-.767.24-1.16.01-.125.017-.25.017-.376.002-2.76-2.544-4.736-5.806-4.418-.22.022-.438.053-.654.094h0s-3.162.621-3.162.621h0c-.074.016-.149.031-.224.046-.233.045-.471.081-.712.105-.404.04-.8.048-1.187.027-1.862-.101-3.468-.888-4.426-2.105-.263-.334-.474-.699-.63-1.09-.205-.514-.311-1.071-.3-1.658.012-.575.135-1.134.352-1.665Z"/>
              <path class="cls-7" d="m15.666,10.342c-.078-.025-.158-.048-.237-.071.104.03.209.061.311.095-.025-.008-.049-.016-.074-.024Z"/>
              <path class="cls-6" d="m15.666,10.342c-.078-.025-.158-.048-.237-.071.104.03.209.061.311.095-.025-.008-.049-.016-.074-.024Z"/>
              <path class="cls-7" d="m15.248,10.219c.019.005.039.01.058.016-.019-.005-.039-.01-.058-.016Z"/>
              <path class="cls-6" d="m15.248,10.219c.019.005.039.01.058.016-.019-.005-.039-.01-.058-.016Z"/>
            </g>
          </g>
          <g>
            <path class="cls-4" d="m35.295,15.866l-.009-.004h0c-.199-.112-.413-.218-.64-.33l-.023-.011c-.951-.469-1.936-.955-1.936-1.869,0-.757.688-1.286,1.674-1.286.655,0,1.075.233,1.388.406.202.112.362.2.533.2.317,0,.562-.309.562-.575,0-.581-1.237-1.152-2.498-1.152-1.726,0-2.932,1.007-2.932,2.45,0,1.558,1.403,2.266,2.531,2.835l.024.012c.197.1.383.194.556.29.878.493,1.27,1.024,1.27,1.725,0,.95-.769,1.588-1.914,1.588-.801,0-1.26-.332-1.6-.577-.214-.153-.382-.274-.576-.274-.33,0-.577.319-.577.604,0,.278.239.564.693.828.59.343,1.352.54,2.09.54,1.521,0,3.158-.857,3.158-2.739,0-1.105-.581-1.975-1.774-2.66Z"/>
            <path class="cls-4" d="m41.835,21.179c.253,0,.427-.068.531-.207.105-.143.105-.308.105-.469v-8.482c0-.16,0-.326-.105-.468-.104-.14-.278-.208-.531-.208s-.427.068-.53.207c-.107.142-.107.308-.107.469v8.482c0,.16,0,.326.107.469.104.14.277.207.53.207Z"/>
            <path class="cls-4" d="m55.161,11.345c-.156,0-.379.021-.516.208-.106.142-.106.308-.106.468v6.91l-5.68-7.097c-.246-.295-.436-.488-.825-.488-.386,0-.607.204-.607.56v8.597c0,.16,0,.326.107.469.138.186.36.207.515.207s.378-.021.517-.207c.105-.143.105-.308.105-.469v-6.912l5.707,7.096c.243.306.429.507.798.507.38,0,.607-.215.607-.575v-8.597c0-.16,0-.326-.106-.468-.137-.184-.348-.208-.516-.208Z"/>
            <path class="cls-4" d="m68.704,19.839v-3.159c0-.16,0-.326-.106-.468-.104-.14-.278-.207-.531-.207s-.427.068-.531.207c-.105.143-.105.308-.105.468v3.014c-.256.106-1.072.407-2.124.407-2.448,0-4.029-1.552-4.029-3.954,0-2.788,2.019-3.782,3.909-3.782.623,0,1.226.108,1.79.321.303.115.51.229.661.313l.013.007c.175.097.301.167.447.167.32,0,.577-.338.577-.618,0-.259-.195-.473-.653-.715-.743-.394-1.717-.61-2.744-.61-2.453,0-5.318,1.303-5.318,4.974,0,3.104,2.055,5.032,5.364,5.032.843,0,1.635-.135,2.422-.412.763-.264.961-.466.961-.985Z"/>
            <path class="cls-4" d="m77.687,19.971h-3.339v-7.95c0-.16,0-.326-.105-.468-.104-.14-.278-.208-.531-.208s-.427.068-.53.207c-.107.142-.107.308-.107.469v8.467c0,.412.198.604.622.604h3.992c.164,0,.318,0,.46-.097.141-.091.222-.26.222-.464s-.08-.372-.218-.461c-.145-.1-.3-.1-.464-.1Z"/>
            <path class="cls-4" d="m82.79,21.092h4.84c.164,0,.318,0,.46-.097.141-.091.222-.26.222-.464s-.08-.372-.219-.461c-.145-.1-.3-.1-.463-.1h-4.203v-3.538h4.122c.164,0,.319,0,.46-.097.141-.09.222-.259.222-.463s-.08-.372-.218-.461c-.145-.1-.3-.1-.464-.1h-4.122v-2.744h4.179c.164,0,.319,0,.459-.097.142-.09.223-.259.223-.463s-.08-.372-.219-.46c-.145-.1-.3-.1-.464-.1h-4.816c-.424,0-.622.192-.622.604v8.439c0,.401.209.604.622.604Z"/>
            <path class="cls-4" d="m105.254,16.004c-.253,0-.427.068-.531.207-.105.143-.105.308-.105.468v3.014c-.256.106-1.072.407-2.124.407-2.448,0-4.03-1.552-4.03-3.954,0-2.788,2.019-3.782,3.909-3.782.623,0,1.226.108,1.79.321.303.115.51.23.661.313l.012.007c.175.097.301.167.447.167.32,0,.577-.338.577-.618,0-.259-.196-.473-.653-.715-.743-.394-1.718-.61-2.744-.61-2.453,0-5.319,1.303-5.319,4.974,0,3.104,2.056,5.032,5.364,5.032.843,0,1.635-.135,2.422-.412.763-.264.96-.466.96-.985v-3.159c0-.16,0-.326-.106-.468-.104-.14-.277-.207-.531-.207Z"/>
            <path class="cls-4" d="m134.566,20.971c.106-.143.106-.308.106-.469v-8.482c0-.16,0-.326-.106-.468-.104-.14-.277-.208-.531-.208s-.427.068-.53.207c-.107.142-.107.308-.107.469v8.482c0,.16,0,.326.107.469.104.14.277.207.53.207s.427-.068.531-.207Z"/>
            <path class="cls-4" d="m140.247,21.179c.155,0,.377-.021.517-.207.105-.143.105-.308.105-.469v-6.912l5.707,7.096c.243.306.43.507.798.507.38,0,.607-.215.607-.575v-8.597c0-.16,0-.326-.106-.468-.137-.184-.347-.208-.516-.208s-.379.023-.516.208c-.106.142-.106.308-.106.468v6.91l-5.68-7.097c-.246-.295-.436-.488-.825-.488-.386,0-.607.204-.607.56v8.597c0,.16,0,.326.107.469.138.186.36.207.515.207Z"/>
            <path class="cls-4" d="m117.586,21.179c.375,0,.524-.142.583-.261.078-.155.042-.351-.098-.538l-2.765-3.677c1.262-.454,1.956-1.387,1.956-2.634,0-1.043-.482-1.829-1.393-2.276-.549-.269-1.229-.413-2.079-.438v-.01h-2.851c-.374,0-.679.304-.679.679v8.479c0,.16,0,.326.107.469.104.14.277.207.53.207.155,0,.378-.021.516-.207.106-.143.106-.308.106-.469v-3.403h2.626c.129.201.345.523.657.943l1.936,2.641c.192.255.373.495.846.495Zm-1.658-7.023c0,1.114-.835,1.712-2.483,1.778h-1.925l.004-3.493h1.791c.096-.002.184-.003.25-.003.028,0,.057.004.086.003l.104.004c1.442.049,2.173.625,2.173,1.711Z"/>
            <path class="cls-4" d="m128.931,21.179c.547,0,.606-.311.606-.445,0-.129-.047-.275-.086-.375l-3.33-8.407c-.122-.322-.293-.62-.717-.62-.419,0-.591.289-.716.602l-3.452,8.429c-.062.164-.1.27-.1.387,0,.101.042.431.577.431.467,0,.609-.27.716-.546l.573-1.441h4.637l.561,1.441c.13.328.305.546.731.546Zm-4.884-4.612l1.31-3.24,1.824,4.686h-3.709l.134-.339h.01l.444-1.106h-.012Z"/>
          </g>
        </g>
      </g>
    </g>
  </g>
</svg>