<?xml version="1.0" encoding="utf-8"?>
<!-- Generator: Adobe Illustrator 24.0.0, SVG Export Plug-In . SVG Version: 6.00 Build 0)  -->
<svg version="1.1" id="Layer_1" xmlns="http://www.w3.org/2000/svg" xmlns:xlink="http://www.w3.org/1999/xlink" x="0px" y="0px"
	 viewBox="0 0 130 115" style="enable-background:new 0 0 130 115;" xml:space="preserve">
<style type="text/css">
	.st0{fill:#444444;}
	.st1{fill:#455D88;}
	.st2{fill:#919191;}
	.st3{fill:#0770E3;}
	.st4{fill:#FFFFFF;}
</style>
<g>
	<rect x="2.3" y="38" class="st0" width="3.7" height="3.4"/>
	<g>
		<path class="st0" d="M2.3,54.7c0-0.5,0-11.7,0-11.7H6v11.7c0,1.4-0.1,3.2-1.2,4.2C3.6,60,1.9,60,1.6,60C0.4,60,0,59.9,0,59.9v-3.3
			c0,0,1.5,0.5,2.1-0.4C2.3,55.8,2.3,55.3,2.3,54.7z"/>
	</g>
	<g>
		<path class="st0" d="M7.5,43H11c0,0,0,5.4,0,6.1c0,1.3,0.3,2.7,2.1,2.7s2-2,2-2.2c0-0.3,0-6.6,0-6.6h3.7v11.7h-3.4v-1.5
			c0,0-1,1.7-3.5,1.7c-4.5,0-4.3-4-4.3-4C7.5,48.9,7.5,43,7.5,43z"/>
	</g>
	<g>
		<path class="st1" d="M37.3,45.8H39V55h3.5v-9.2h2.7V43h-2.7c0,0,0-0.3,0-1.1s0.1-2,1.8-2c0.9,0,1.3,0.3,1.3,0.3v-3
			c0,0-1.2-0.3-2.1-0.3c-1.2,0-2.3,0.3-3,0.8c-1.2,0.8-1.6,2.2-1.6,3.9c0,0,0,1,0,1.3h-1.7L37.3,45.8L37.3,45.8z"/>
	</g>
	<g>
		<path class="st1" d="M51.1,43h3.8l3,7.8H58l2.6-7.8h3.7l-4.8,12.2c-0.7,1.7-1.2,3.1-2.1,3.9c-0.9,0.8-2.9,1.2-5.9,0.4l0.5-2.9
			c0,0,2,0.5,2.9,0s1.2-1.9,1.2-1.9L51.1,43z"/>
	</g>
	<g>
		<rect x="46.6" y="37" class="st1" width="3.7" height="18"/>
	</g>
	<g>
		<ellipse class="st2" cx="64.3" cy="53.3" rx="1.7" ry="1.7"/>
	</g>
	<g>
		<path class="st0" d="M27.4,46.5c-0.6-0.6-1.5-1-2.4-1c-0.7,0-1.4,0.3-1.4,0.9c0,0.6,0.6,0.8,2.1,1.2c1.7,0.4,3.6,1.3,3.6,3.5
			c0,2.9-2.5,3.9-4.8,3.9c-1.8,0-3.8-0.6-4.9-1.8l2.1-2.2c0.7,0.7,1.7,1.3,2.8,1.3c0.6,0,1.3-0.3,1.3-1s-0.7-0.9-2.2-1.3
			c-1.6-0.4-3.3-1.2-3.3-3.3c0-2.7,2.5-3.8,4.7-3.8c1.7,0,3.2,0.4,4.3,1.4L27.4,46.5z"/>
	</g>
	<g>
		<path class="st0" d="M34.1,45.8V50c0,1.1,0.6,1.9,1.7,1.9c0.4,0,0.9-0.1,1.1-0.2v2.8c-0.5,0.2-1.4,0.4-2.2,0.4
			c-3.2,0-4.2-1.7-4.2-4.3V39.4h3.7V43h1.7v2.8H34.1z"/>
	</g>
	<g>
		<path class="st2" d="M97.2,54.9V50c0-1-0.2-1.9-1.2-1.9S94.6,49,94.6,50v4.8h-2.8v-5.1c0-1-0.4-1.7-1.2-1.7
			c-0.9,0-1.4,0.8-1.4,1.9v4.8h-2.8v-8.9h2.7V47l0,0c0.4-0.8,1.3-1.5,2.6-1.5c1.2,0,2.1,0.6,2.6,1.5c0.6-0.9,1.5-1.5,2.7-1.5
			c2.3,0,3.1,2,3.1,3.6v5.5L97.2,54.9L97.2,54.9z"/>
	</g>
	<g>
		<path class="st2" d="M73.7,48.9c-0.3-0.4-0.9-0.7-1.5-0.7c-1.2,0-2,1-2,2.2s0.8,2.2,2,2.2c0.6,0,1.2-0.2,1.5-0.6l1.6,1.9
			c-0.7,0.7-1.9,1.1-3.2,1.1c-2.7,0-4.8-1.7-4.8-4.6c0-2.8,2.1-4.6,4.8-4.6c1.2,0,2.5,0.5,3.2,1.2L73.7,48.9z"/>
	</g>
	<g>
		<path class="st2" d="M80.5,55c-2.6,0-4.8-1.8-4.8-4.6s2.2-4.6,4.8-4.6c2.7,0,4.9,1.7,4.9,4.6C85.3,53.2,83.1,55,80.5,55z
			 M80.5,48.2c-1.4,0-2.1,1.1-2.1,2.2c0,1.1,0.7,2.2,2.1,2.2s2.1-1.1,2.1-2.2S81.8,48.2,80.5,48.2z"/>
	</g>
</g>
<path class="st1" d="M6,115h2l5-8h5.5c0.8,0,1.5-0.7,1.5-1.5s-0.7-1.5-1.5-1.5H13l-5-8H6l2.5,8H3l-1.5-2H0l1,3.5L0,109h1.5l1.5-2
	h5.5L6,115z"/>
<path class="st3" d="M14.4,23.8c0.3,0,0.6-0.1,0.9-0.2l3.1-1.8c0.6-0.4,1.4-0.5,2.1-0.4c3.8,0.4,6.5,1.2,7.2,1.4
	c0.2,0,0.3,0,0.4-0.1c0.1-0.2,0.3-0.4,0.4-0.8c0.1-0.4,0.1-0.7,0.1-0.9c0-0.2-0.1-0.3-0.3-0.4c-1.2-0.4-6.7-1.8-14-1.8
	s-12.7,1.5-14,1.8c-0.2,0-0.3,0.2-0.3,0.4c0,0.2,0,0.5,0.1,0.9s0.3,0.6,0.4,0.8c0.1,0.1,0.3,0.2,0.4,0.1c0.8-0.2,3.5-0.9,7.2-1.4
	c0.7-0.1,1.5,0.1,2.1,0.4l3.1,1.8C13.8,23.8,14.1,23.8,14.4,23.8z M9.2,13.7c0.2,0.3,0.4,0.5,0.8,0.6c0.3,0.1,0.6,0,0.9-0.1
	s0.5-0.4,0.6-0.8c0.1-0.3,0-0.6-0.1-0.9L8.5,7.6C8.4,7.4,8.2,7.4,8.1,7.4c-0.2,0-0.5,0.1-0.9,0.3C6.8,7.9,6.5,8.2,6.4,8.3
	c-0.1,0.1-0.1,0.3,0,0.5C6.4,8.8,9.2,13.7,9.2,13.7z M6.6,17.2c0.3,0.2,0.6,0.2,0.9,0.1c0.3-0.1,0.6-0.3,0.8-0.6
	c0.2-0.3,0.2-0.6,0.1-0.9c-0.1-0.3-0.3-0.6-0.6-0.8L3,12.2c-0.2-0.1-0.3-0.1-0.5,0c-0.2,0.1-0.4,0.4-0.6,0.8
	c-0.2,0.4-0.3,0.7-0.3,0.9c0,0.2,0.1,0.4,0.2,0.4L6.6,17.2z M15.6,12c0,0.3-0.1,0.7-0.4,0.9c-0.2,0.2-0.5,0.4-0.9,0.4
	c-0.3,0-0.7-0.1-0.9-0.4c-0.2-0.2-0.4-0.5-0.4-0.9V6.4c0-0.2,0.1-0.3,0.3-0.4c0.2-0.1,0.5-0.2,1-0.2s0.8,0.1,1,0.2
	c0.2,0.1,0.3,0.2,0.3,0.4V12z M19.6,13.7c-0.2,0.3-0.4,0.5-0.8,0.6c-0.3,0.1-0.6,0-0.9-0.1s-0.5-0.4-0.6-0.8c-0.1-0.3,0-0.6,0.1-0.9
	l2.8-4.9c0.1-0.2,0.3-0.2,0.4-0.2c0.2,0,0.5,0.1,0.9,0.3c0.4,0.2,0.6,0.4,0.8,0.6c0.1,0.1,0.1,0.3,0,0.5L19.6,13.7L19.6,13.7z
	 M22.2,17.2c-0.3,0.2-0.6,0.2-0.9,0.1c-0.3-0.1-0.6-0.3-0.8-0.6c-0.2-0.3-0.2-0.6-0.1-0.9c0.1-0.3,0.3-0.6,0.6-0.8l4.9-2.8
	c0.2-0.1,0.3-0.1,0.5,0c0.2,0.1,0.4,0.4,0.6,0.8c0.2,0.4,0.3,0.7,0.3,0.9c0,0.2-0.1,0.4-0.2,0.4L22.2,17.2z M53.2,13.3h2.3
	c0.1,0,0.2,0.1,0.2,0.1l2.3,6l2.3-6c0-0.1,0.1-0.1,0.2-0.1h2.3c0.2,0,0.3,0.2,0.2,0.3l-5.7,13.1c0,0.1-0.1,0.1-0.2,0.1h-2
	c-0.1,0-0.3-0.2-0.2-0.3l2-4.6L53,13.6C53,13.5,53.1,13.3,53.2,13.3L53.2,13.3z M87.8,14.6v-1.1c0-0.1,0.1-0.2,0.2-0.2h2.1
	c0.1,0,0.2,0.1,0.2,0.2v8.9c0,0.1-0.1,0.2-0.2,0.2H88c-0.1,0-0.2-0.1-0.2-0.2v-1.2c-0.4,0.7-1.4,1.6-3,1.6c-3,0-4.6-2.3-4.6-4.9
	c0-3.4,2.3-4.8,4.5-4.8C86.2,13.1,87.2,13.8,87.8,14.6z M82.7,18c0,1.6,1,2.8,2.6,2.8s2.6-1.1,2.6-2.7s-1-2.9-2.7-2.9
	C83.6,15.2,82.7,16.4,82.7,18z M92.2,22.4v-8.9c0-0.1,0.1-0.2,0.2-0.2h2.1c0.1,0,0.2,0.1,0.2,0.2v1.2c0.5-0.8,1.4-1.6,3-1.6
	c1.6,0,3.4,0.8,3.4,4.4v4.9c0,0.1-0.1,0.2-0.2,0.2h-2.1c-0.1,0-0.2-0.1-0.2-0.2v-4.9c0-0.9-0.2-2.4-1.8-2.4c-1.5,0-2.1,1.4-2.1,2.6
	v4.6c0,0.1-0.1,0.2-0.2,0.2h-2.1C92.2,22.6,92.2,22.5,92.2,22.4L92.2,22.4z M102.8,22.4v-8.9c0-0.1,0.1-0.2,0.2-0.2h2.1
	c0.1,0,0.2,0.1,0.2,0.2v1.2c0.5-0.8,1.4-1.6,3-1.6c1.6,0,3.4,0.8,3.4,4.4v4.9c0,0.1-0.1,0.2-0.2,0.2h-2.1c-0.1,0-0.2-0.1-0.2-0.2
	v-4.9c0-0.9-0.2-2.4-1.8-2.4s-2.1,1.4-2.1,2.6v4.6c0,0.1-0.1,0.2-0.2,0.2H103C102.9,22.6,102.8,22.5,102.8,22.4L102.8,22.4z
	 M124.5,13.3h2c0.1,0,0.2,0.1,0.2,0.2v1.8c0.4-1.8,2-2.5,3.1-2.2c0.1,0,0.2,0.1,0.2,0.2v2c0,0.1-0.1,0.2-0.3,0.2
	c-2.1-0.4-3,0.7-3,2.3v4.5c0,0.1-0.1,0.2-0.2,0.2h-2.1c-0.1,0-0.2-0.1-0.2-0.2v-8.9C124.3,13.4,124.4,13.3,124.5,13.3L124.5,13.3z
	 M39.5,15.3c-0.6-0.2-1-0.3-1.5-0.5c-0.5-0.2-1.4-0.7-1.4-1.5c0-0.8,0.6-1.4,1.7-1.4c1.1,0,1.6,0.5,2,1.3c0.1,0.1,0.2,0.2,0.3,0.1
	l1.7-1c0.1-0.1,0.1-0.2,0.1-0.3c-0.5-1.1-1.7-2.5-4.1-2.5c-2.6,0-4.3,1.6-4.3,3.6c0,2.1,1.4,3.1,3.2,3.8c0.7,0.2,0.9,0.3,1.5,0.5
	c1.1,0.4,1.6,0.9,1.6,1.5c0,0.7-0.4,1.5-2.1,1.5c-1.5,0-2.1-0.8-2.4-1.6c0-0.1-0.2-0.2-0.3-0.1l-1.8,1c-0.1,0.1-0.1,0.2-0.1,0.3
	c0.7,1.7,2.6,2.7,4.7,2.7c2.5,0,4.6-1.3,4.6-3.8S40.1,15.6,39.5,15.3z M53.1,20.2c-0.1-0.1-0.2-0.1-0.3-0.1
	c-0.8,0.6-1.7,0.6-2.5-0.5c-0.6-0.9-1.3-2.1-1.3-2.1l3.1-3.9c0.1-0.1,0-0.3-0.2-0.3h-2.5c-0.1,0-0.1,0-0.2,0.1l-2.7,3.7V9.6
	c0-0.1-0.1-0.2-0.2-0.2h-2.1c-0.1,0-0.2,0.1-0.2,0.2v12.8c0,0.1,0.1,0.2,0.2,0.2h2.1c0.1,0,0.2-0.1,0.2-0.2v-4.2c0,0,1.4,2.2,1.9,3
	c0.7,1.1,1.7,1.6,2.8,1.6c1,0,1.7-0.3,2.5-1c0.1-0.1,0.1-0.2,0-0.3L53.1,20.2L53.1,20.2z M68,17.3c-0.7-0.2-0.9-0.3-1.4-0.5
	c-0.5-0.2-0.9-0.5-0.9-0.9S66,15,66.8,15c0.7,0,1.1,0.3,1.3,0.7c0.1,0.1,0.2,0.1,0.3,0.1l1.5-0.8c0.1-0.1,0.1-0.2,0.1-0.3
	c-0.4-0.7-1.2-1.6-3.1-1.6c-2.3,0-3.5,1.3-3.5,2.8s1.2,2.2,2.3,2.6c1.3,0.5,1.3,0.5,1.5,0.6c0.4,0.2,0.9,0.4,0.9,0.8
	c0,0.4-0.5,0.8-1.3,0.8c-0.7,0-1.6-0.3-1.9-1.1c0-0.1-0.2-0.2-0.3-0.1L63,20.5c-0.1,0.1-0.1,0.2-0.1,0.3c0.4,1.1,1.7,2.1,3.8,2.1
	c2.2,0,3.7-1.2,3.7-2.9S69.2,17.7,68,17.3L68,17.3z M76.4,15.3c0.9,0,1.6,0.3,2.3,0.7c0.1,0.1,0.2,0,0.3-0.1l0.9-1.5
	c0.1-0.1,0-0.2-0.1-0.3c-0.9-0.6-2-1.2-3.5-1.2c-1.5,0-2.8,0.4-3.8,1.4c-1,1-1.4,2.1-1.4,3.5c0,1.7,0.7,2.7,1.4,3.5
	c0.7,0.7,2.1,1.4,3.8,1.4c1.5,0,2.7-0.6,3.5-1.2c0.1-0.1,0.1-0.2,0.1-0.3l-0.8-1.5c-0.1-0.1-0.2-0.1-0.3-0.1
	c-0.6,0.4-1.4,0.7-2.3,0.7c-1,0-2.9-0.6-2.9-2.6S75.3,15.3,76.4,15.3L76.4,15.3z M118.4,20.8c-0.8,0-1.6-0.2-2.2-0.7
	s-0.8-0.9-0.8-1.5h7.4c0.1,0,0.2-0.1,0.2-0.2c0-2.2-0.8-3.2-1.4-3.9c-0.7-0.7-1.9-1.4-3.5-1.4s-2.8,0.6-3.7,1.4
	c-0.8,0.8-1.5,1.9-1.5,3.5c0,1.6,0.6,2.7,1.4,3.4s2.1,1.4,3.9,1.4c1.7,0,3.2-0.6,4.3-1.8c0.1-0.1,0.1-0.3-0.1-0.3l-1.5-0.9
	c-0.1,0-0.2,0-0.2,0C120,20.5,119,20.8,118.4,20.8z M118,15.1c1.2,0,2.3,0.7,2.4,2h-5C115.8,15.7,116.8,15.1,118,15.1L118,15.1z"/>
<path class="st4" d="M11.9,84.1c0.2,0,0.5-0.1,0.7-0.2l2.6-1.5c0.5-0.3,1.1-0.4,1.7-0.4c3.2,0.4,5.4,1,6,1.2c0.1,0,0.3,0,0.4-0.1
	c0.1-0.1,0.2-0.3,0.3-0.7c0.1-0.3,0.1-0.5,0.1-0.7c0-0.1-0.1-0.3-0.2-0.3c-1-0.3-5.5-1.5-11.6-1.5S1.3,81.1,0.3,81.4
	c-0.1,0-0.2,0.2-0.2,0.3c0,0.2,0,0.4,0.1,0.7s0.2,0.5,0.3,0.7c0.1,0.1,0.2,0.2,0.4,0.1c0.7-0.2,2.9-0.8,6-1.2
	C7.4,82,8,82.1,8.6,82.4l2.6,1.5C11.4,84.1,11.6,84.1,11.9,84.1z M7.5,75.7c0.1,0.2,0.4,0.4,0.6,0.5c0.3,0.1,0.5,0,0.8-0.1
	c0.2-0.1,0.4-0.4,0.5-0.6s0-0.5-0.1-0.8l-2.3-4c-0.1-0.1-0.2-0.2-0.4-0.2c-0.2,0-0.5,0.1-0.8,0.3s-0.5,0.4-0.6,0.5
	c-0.1,0.1-0.1,0.3,0,0.4C5.2,71.7,7.5,75.7,7.5,75.7z M5.4,78.6c0.2,0.1,0.5,0.2,0.8,0.1c0.3-0.1,0.5-0.2,0.6-0.5
	C7,78,7,77.7,6.9,77.4S6.7,77,6.4,76.8l-4-2.3c-0.1-0.1-0.3,0-0.4,0c-0.2,0.1-0.3,0.3-0.5,0.6s-0.3,0.6-0.3,0.8c0,0.2,0,0.3,0.2,0.4
	L5.4,78.6z M12.9,74.3c0,0.3-0.1,0.5-0.3,0.7c-0.2,0.2-0.4,0.3-0.7,0.3c-0.3,0-0.5-0.1-0.7-0.3c-0.2-0.2-0.3-0.4-0.3-0.7v-4.7
	c0-0.2,0.1-0.3,0.2-0.3c0.2-0.1,0.4-0.1,0.8-0.1s0.6,0,0.8,0.1c0.1,0.1,0.2,0.2,0.2,0.3V74.3z M16.2,75.7c-0.1,0.2-0.4,0.4-0.6,0.5
	c-0.3,0.1-0.5,0-0.8-0.1s-0.4-0.4-0.5-0.6s0-0.5,0.1-0.8l2.3-4c0.1-0.1,0.2-0.2,0.4-0.2c0.2,0,0.5,0.1,0.8,0.3
	c0.3,0.2,0.5,0.4,0.6,0.5c0.1,0.1,0.1,0.3,0,0.4L16.2,75.7L16.2,75.7z M18.3,78.6c-0.2,0.1-0.5,0.2-0.8,0.1
	c-0.3-0.1-0.5-0.2-0.6-0.5c-0.1-0.2-0.2-0.5-0.1-0.8c0.1-0.3,0.2-0.5,0.5-0.6l4-2.3c0.1-0.1,0.3,0,0.4,0c0.2,0.1,0.3,0.3,0.5,0.6
	s0.3,0.6,0.3,0.8c0,0.2,0,0.3-0.2,0.4L18.3,78.6z M44.2,75.4h1.9c0.1,0,0.1,0,0.2,0.1l1.9,5l1.9-5c0-0.1,0.1-0.1,0.2-0.1h1.9
	c0.1,0,0.2,0.1,0.2,0.2l-4.7,10.9c0,0.1-0.1,0.1-0.2,0.1h-1.7c-0.1,0-0.2-0.1-0.2-0.2l1.6-3.8l-3.2-7C43.9,75.5,44,75.4,44.2,75.4
	L44.2,75.4z M72.9,76.5v-0.9c0-0.1,0.1-0.2,0.2-0.2h1.7c0.1,0,0.2,0.1,0.2,0.2V83c0,0.1-0.1,0.2-0.2,0.2h-1.7
	c-0.1,0-0.2-0.1-0.2-0.2v-1c-0.4,0.6-1.2,1.3-2.5,1.3c-2.5,0-3.8-1.9-3.8-4.1c0-2.8,1.9-4,3.8-4C71.5,75.2,72.4,75.8,72.9,76.5z
	 M68.6,79.3c0,1.3,0.8,2.3,2.1,2.3s2.2-0.9,2.2-2.3c0-1.4-0.8-2.4-2.2-2.4C69.4,76.9,68.6,78,68.6,79.3z M76.5,83v-7.4
	c0-0.1,0.1-0.2,0.2-0.2h1.7c0.1,0,0.2,0.1,0.2,0.2v1c0.4-0.7,1.2-1.3,2.5-1.3c1.3,0,2.8,0.7,2.8,3.7V83c0,0.1-0.1,0.2-0.2,0.2H82
	c-0.1,0-0.2-0.1-0.2-0.2v-4c0-0.7-0.2-2-1.5-2c-1.3,0-1.7,1.1-1.7,2.2V83c0,0.1-0.1,0.2-0.2,0.2h-1.7C76.6,83.1,76.5,83.1,76.5,83
	L76.5,83z M85.3,83v-7.4c0-0.1,0.1-0.2,0.2-0.2h1.7c0.1,0,0.2,0.1,0.2,0.2v1c0.4-0.7,1.2-1.3,2.5-1.3c1.3,0,2.8,0.7,2.8,3.7V83
	c0,0.1-0.1,0.2-0.2,0.2h-1.7c-0.1,0-0.2-0.1-0.2-0.2v-4c0-0.7-0.2-2-1.5-2s-1.7,1.1-1.7,2.2V83c0,0.1-0.1,0.2-0.2,0.2h-1.7
	C85.4,83.1,85.3,83.1,85.3,83L85.3,83z M103.4,75.4h1.7c0.1,0,0.2,0.1,0.2,0.2v1.5c0.3-1.5,1.6-2,2.6-1.8c0.1,0,0.1,0.1,0.1,0.2v1.7
	c0,0.1-0.1,0.2-0.2,0.2c-1.8-0.3-2.5,0.6-2.5,1.9V83c0,0.1-0.1,0.2-0.2,0.2h-1.7c-0.1,0-0.2-0.1-0.2-0.2v-7.4
	C103.2,75.5,103.3,75.4,103.4,75.4L103.4,75.4z M32.7,77.1c-0.5-0.2-0.8-0.3-1.2-0.4c-0.4-0.2-1.2-0.6-1.2-1.3s0.5-1.1,1.4-1.1
	c0.9,0,1.4,0.4,1.7,1.1c0,0.1,0.2,0.1,0.2,0.1l1.4-0.8c0.1,0,0.1-0.1,0.1-0.2c-0.4-0.9-1.4-2.1-3.4-2.1c-2.2,0-3.6,1.3-3.6,3
	c0,1.7,1.1,2.6,2.7,3.1c0.6,0.2,0.8,0.3,1.3,0.4c0.9,0.3,1.3,0.7,1.3,1.3c0,0.6-0.4,1.2-1.8,1.2c-1.3,0-1.7-0.7-2-1.3
	c0-0.1-0.2-0.1-0.2-0.1L28,80.9c-0.1,0-0.1,0.1-0.1,0.2c0.6,1.4,2.1,2.2,3.9,2.2c2.1,0,3.8-1,3.8-3.2C35.5,78,33.3,77.3,32.7,77.1z
	 M44.1,81.1c0-0.1-0.2-0.1-0.2-0.1c-0.7,0.5-1.4,0.5-2-0.4c-0.5-0.8-1.1-1.7-1.1-1.7l2.6-3.2c0.1-0.1,0-0.3-0.1-0.3h-2
	c-0.1,0-0.1,0-0.1,0.1l-2.3,3.1v-6.2c0-0.1-0.1-0.2-0.2-0.2h-1.7c-0.1,0-0.2,0.1-0.2,0.2V83c0,0.1,0.1,0.2,0.2,0.2h1.7
	c0.1,0,0.2-0.1,0.2-0.2v-3.5c0,0,1.2,1.8,1.6,2.5c0.6,0.9,1.4,1.3,2.3,1.3c0.9,0,1.4-0.2,2.1-0.9c0.1-0.1,0.1-0.1,0-0.2L44.1,81.1
	L44.1,81.1z M56.4,78.7c-0.5-0.2-0.7-0.3-1.2-0.4s-0.8-0.4-0.8-0.7s0.3-0.7,0.9-0.7c0.5,0,0.9,0.2,1.1,0.6c0,0.1,0.2,0.1,0.2,0.1
	l1.2-0.7c0.1,0,0.1-0.2,0.1-0.2c-0.3-0.6-1-1.3-2.6-1.3c-1.9,0-2.9,1.1-2.9,2.3s1,1.8,1.9,2.2c1,0.4,1.1,0.5,1.2,0.5
	c0.3,0.1,0.7,0.3,0.7,0.7s-0.4,0.7-1.1,0.7c-0.6,0-1.3-0.2-1.6-0.9c0-0.1-0.2-0.1-0.2-0.1l-1.2,0.7c-0.1,0-0.1,0.1-0.1,0.2
	c0.4,0.9,1.4,1.7,3.1,1.7c1.9,0,3.1-1,3.1-2.4C58.4,79.5,57.5,79.1,56.4,78.7L56.4,78.7z M63.4,77.1c0.8,0,1.3,0.2,1.9,0.6
	c0.1,0.1,0.2,0,0.2,0l0.7-1.2c0-0.1,0-0.2-0.1-0.2c-0.7-0.5-1.6-1-2.9-1c-1.2,0-2.3,0.3-3.2,1.2c-0.8,0.8-1.2,1.8-1.2,2.9
	c0,1.4,0.6,2.3,1.2,2.9c0.6,0.6,1.7,1.1,3.2,1.1c1.3,0,2.2-0.5,2.9-1c0.1,0,0.1-0.2,0-0.2l-0.7-1.2c0-0.1-0.2-0.1-0.2-0.1
	c-0.5,0.3-1.1,0.6-1.9,0.6c-0.8,0-2.4-0.5-2.4-2.2C61,77.6,62.5,77.1,63.4,77.1L63.4,77.1z M98.3,81.6c-0.7,0-1.3-0.2-1.8-0.5
	c-0.5-0.4-0.7-0.8-0.7-1.2h6.1c0.1,0,0.2-0.1,0.2-0.2c0-1.8-0.6-2.7-1.2-3.3c-0.6-0.6-1.6-1.1-2.9-1.1s-2.3,0.5-3.1,1.2
	c-0.7,0.7-1.2,1.6-1.2,2.9c0,1.3,0.5,2.2,1.2,2.9c0.7,0.7,1.7,1.1,3.3,1.1c1.4,0,2.7-0.5,3.5-1.5c0.1-0.1,0-0.2,0-0.3l-1.2-0.7
	c-0.1,0-0.1,0-0.2,0C99.6,81.4,98.9,81.6,98.3,81.6z M98,76.9c1,0,1.9,0.6,2,1.7h-4.1C96.1,77.4,97,76.9,98,76.9L98,76.9z"/>
</svg>
