<svg id="Layer_1" data-name="Layer 1" xmlns="http://www.w3.org/2000/svg" width="194.96" height="187.44" viewBox="0 0 194.96 187.44"><defs><style>.cls-1{fill:#ffecdf;}.cls-2{fill:#fee0cf;}.cls-3{fill:#f27038;}.cls-4{fill:#fff;}.cls-5{fill:#d6d6d6;}.cls-6{fill:#ffab66;}</style></defs><title>Artboard 1</title><path class="cls-1" d="M16.88,80.89c1.26-13.6-19.39-43.9,2-66.07s47.68,12.48,91.67-8.1c35.78-16.74,76.08-1,83,33.93S180,88.53,174.88,109c-2.76,11-5.54,37.59-32.5,61.27-18.56,16.29-51.22,22.65-91.76,11.65C14.63,172.18-.53,154.67,0,122.52.38,101.19,15.32,97.75,16.88,80.89Z"/><path class="cls-2" d="M146.9,75.89h-2.48V45.73a10.06,10.06,0,0,0-10.05-10.05h-8a10.06,10.06,0,0,0-10.05,10.05v6H88.13V41.71a6,6,0,0,0-6-6H49.93a6,6,0,0,0-6,6V65.84a6,6,0,0,0,6,6H64v4H41.42a9.58,9.58,0,0,0-9.51,10.77l7.15,57.23a9.59,9.59,0,0,0,9.51,8.39h10.8l10.78,7.19a5.1,5.1,0,0,0,7.92-4.24v-2.94h61.67a9.6,9.6,0,0,0,9.51-8.39l7.16-57.23a10.32,10.32,0,0,0,.07-1.19,9.59,9.59,0,0,0-9.58-9.58ZM68,71.87H82.1a6,6,0,0,0,6-6V55.79h28.15v20.1H68Z"/><path class="cls-3" d="M161.2,31.88a2,2,0,0,1-1.41-.59l-3.3-3.3-3.3,3.3a2,2,0,0,1-2.83-2.83l6.13-6.13,6.13,6.13a2,2,0,0,1-1.41,3.41Z"/><path class="cls-3" d="M174.62,51.47a2,2,0,0,1-1.41-.59l-3.3-3.3-3.3,3.3a2,2,0,0,1-2.83-2.83l6.13-6.13L176,48.06a2,2,0,0,1-1.41,3.41Z"/><path class="cls-3" d="M21.56,137.93a2,2,0,0,1-1.41-.59l-3.3-3.3-3.3,3.3a2,2,0,0,1-2.83-2.83l6.13-6.13L23,134.51a2,2,0,0,1-1.41,3.41Z"/><path class="cls-3" d="M111.09,167.35a2,2,0,0,1-1.41-.59l-3.3-3.3-3.3,3.3a2,2,0,0,1-2.83-2.83l6.13-6.13,6.13,6.13a2,2,0,0,1-1.41,3.41Z"/><path class="cls-4" d="M149.26,77.07a7.61,7.61,0,0,0-5.37-2.21H38.43a7.59,7.59,0,0,0-7.58,7.58,7.07,7.07,0,0,0,.06.92l7.16,57.24a7.56,7.56,0,0,0,7.5,6.63H57l11.28,7.52a3.06,3.06,0,0,0,1.71.52,3.1,3.1,0,0,0,3.1-3.1v-4.95h63.69a7.56,7.56,0,0,0,7.5-6.63l7.16-57.24a7.07,7.07,0,0,0,.06-.92,7.61,7.61,0,0,0-2.21-5.37Zm0,0"/><path class="cls-3" d="M59,121.09h.38a42.27,42.27,0,0,1,7.66.68v17.41H59l-4-18.09Zm0,0"/><path class="cls-5" d="M87.14,86.92v44.23A43.2,43.2,0,0,0,67,121.78a42.27,42.27,0,0,0-7.66-.68H59V97h.38A43.38,43.38,0,0,0,87.14,86.92Zm0,0"/><path class="cls-3" d="M95.18,117.07v14.07a4,4,0,1,1-8,0V86.92a4,4,0,0,1,4-4,4,4,0,0,1,4,4Zm0,0"/><path class="cls-3" d="M59,97v24.12H51a8,8,0,0,1-8-8v-8a8,8,0,0,1,8-8Zm0,0"/><path class="cls-6" d="M95.18,101a8,8,0,0,1,0,16.08Zm0,0"/><path class="cls-3" d="M83.12,50.73V62.79a4,4,0,0,1-4,4H46.93a4,4,0,0,1-4-4V38.67a4,4,0,0,1,4-4H79.1a4,4,0,0,1,4,4Zm0,0"/><path class="cls-4" d="M69.27,47.81a3.27,3.27,0,0,1,0,5.83l-9.59,4.79A3.25,3.25,0,0,1,55,55.51V45.94A3.25,3.25,0,0,1,59.68,43Zm0,0"/><rect class="cls-6" x="115.28" y="54.75" width="24.12" height="8.04"/><rect class="cls-3" x="115.28" y="62.79" width="12.06" height="32.17"/><path class="cls-6" d="M139.41,74.85V95H127.35V62.79h12.06Zm0,0"/><path class="cls-4" d="M139.41,42.69V54.75H115.28V42.69a8,8,0,0,1,8-8h8a8,8,0,0,1,8,8Zm0,0"/><path class="cls-5" d="M130.26,113.27a3.27,3.27,0,0,1-5.83,0L115.28,95h24.12Zm0,0"/><rect class="cls-5" x="111.26" y="121.09" width="28.15" height="4.02" rx="2.01" ry="2.01"/><rect class="cls-5" x="111.26" y="129.14" width="28.15" height="4.02" rx="2.01" ry="2.01"/><rect class="cls-5" x="135.39" y="137.18" width="4.02" height="4.02" rx="2.01" ry="2.01"/><rect class="cls-5" x="111.26" y="137.18" width="4.02" height="4.02" rx="2.01" ry="2.01"/><rect class="cls-5" x="127.35" y="137.18" width="4.02" height="4.02" rx="2.01" ry="2.01"/><rect class="cls-5" x="119.3" y="137.18" width="4.02" height="4.02" rx="2.01" ry="2.01"/><path d="M70,157.07a4.89,4.89,0,0,1-2.71-.82L56.44,149H45.57a9.38,9.38,0,0,1-9.3-8.21L29.12,83.59a9.36,9.36,0,0,1,9.3-10.53H61.21V68.61H46.93a5.83,5.83,0,0,1-5.82-5.82V38.67a5.83,5.83,0,0,1,5.82-5.82H79.1a5.83,5.83,0,0,1,5.82,5.82V48.93h28.57V42.69a9.85,9.85,0,0,1,9.84-9.84h8a9.85,9.85,0,0,1,9.84,9.84V73.05h2.69a9.38,9.38,0,0,1,9.37,9.37,10.05,10.05,0,0,1-.07,1.17L146,140.82a9.38,9.38,0,0,1-9.3,8.21H74.87v3.15A4.89,4.89,0,0,1,70,157.07Zm-.71-3.82a1.18,1.18,0,0,0,.66.2,1.33,1.33,0,0,0,1.34-1.27v-6.75h65.48a5.78,5.78,0,0,0,5.73-5.06l7.16-57.23a5.27,5.27,0,0,0-1.39-4.33,6.84,6.84,0,0,0-5.09-2.16h-1.94V95.43l-9.34,18.64a5,5,0,0,1-4.52,2.79H113.27a1.8,1.8,0,0,1,0-3.6h9.15l-9-17.92,0-18.68H39.17a6.84,6.84,0,0,0-5.09,2.16,5.26,5.26,0,0,0-1.39,4.33l7.16,57.24a5.78,5.78,0,0,0,5.73,5.05h12ZM126,112.46a1.5,1.5,0,0,0,2.6,0l7.85-15.7H118.2Zm3.1-19.3h8.46V64.59h-8.46Zm-12.06,0h8.46V64.59h-8.46ZM64.81,73.05h48.67V52.53H84.92V62.79a5.83,5.83,0,0,1-5.82,5.82H64.81ZM46.93,36.45a2.22,2.22,0,0,0-2.22,2.22V62.79A2.22,2.22,0,0,0,46.93,65H79.1a2.22,2.22,0,0,0,2.22-2.22V38.67a2.22,2.22,0,0,0-2.22-2.22ZM117.08,61h20.52V56.55H117.08Zm6.24-24.54a6.25,6.25,0,0,0-6.24,6.24V53h20.52V42.69a6.25,6.25,0,0,0-6.24-6.24Z"/><path d="M57.55,141l-4-18.09H51a9.85,9.85,0,0,1-9.84-9.84v-8A9.85,9.85,0,0,1,51,95.17h8.42a41.71,41.71,0,0,0,26-9.16l.06,0v-.08a5.81,5.81,0,0,1,11.54,1V99.35l.17,0a9.84,9.84,0,0,1,0,19.29l-.17,0v12.44a5.81,5.81,0,0,1-11.54,1v-.08l-.06,0a41.86,41.86,0,0,0-16.27-8l-.26-.06v17Zm2.89-3.6h4.8v-14l-.18,0a41.19,41.19,0,0,0-5.68-.43H57.22ZM91.16,84.7a2.22,2.22,0,0,0-2.22,2.22v44.23a2.22,2.22,0,0,0,4.44,0V86.92A2.22,2.22,0,0,0,91.16,84.7ZM85,90.78A45.15,45.15,0,0,1,61,98.7h-.2v20.65H61a45.13,45.13,0,0,1,24,7.92l.33.23v-37ZM45.09,115.13A6.25,6.25,0,0,0,51,119.29h6.24V98.77H51a6.25,6.25,0,0,0-5.86,4.16l-.1.28h6a1.8,1.8,0,1,1,0,3.6H44.71v4.44H51a1.8,1.8,0,1,1,0,3.6H45ZM97,115l.28-.1a6.2,6.2,0,0,0,0-11.72l-.28-.1Z"/><path d="M58.22,60.57a5.06,5.06,0,0,1-5.05-5.05V45.94a5.05,5.05,0,0,1,7.31-4.52l9.58,4.79a5.05,5.05,0,0,1,0,9L60.48,60A5.09,5.09,0,0,1,58.22,60.57Zm0-16.08a1.46,1.46,0,0,0-1.45,1.45v9.58A1.49,1.49,0,0,0,58.27,57a1.32,1.32,0,0,0,.6-.14L68.45,52a1.45,1.45,0,0,0,0-2.6l-9.58-4.79A1.44,1.44,0,0,0,58.22,44.49Z"/></svg>