<svg id="Layer_1" data-name="Layer 1" xmlns="http://www.w3.org/2000/svg" width="207.79" height="191.7" viewBox="0 0 207.79 191.7"><defs><style>.cls-1{fill:#ffecdf;}.cls-2{fill:#fedfce;}.cls-3{fill:#fff;}.cls-4{fill:#f27038;}.cls-5{fill:#ffab66;}</style></defs><title>Artboard 1</title><path class="cls-1" d="M76.72,15c42.29-2,38.66,34.27,90.43,43.45,38.54,6.83,50.49,55.86,31.25,85.36-15.93,24.42-43.75,17.85-61.48,28.88-9.55,5.94-29.67,20.68-65.16,18.89C47.33,190.32,24,174.16,9.53,147.66-1.29,127.81-4.74,99.22,9,70.57,20.08,47.55,34.64,17,76.72,15Z"/><path class="cls-2" d="M132.35,65.64a2,2,0,0,0-2-2H43.84a2,2,0,0,0-2,2v16.5s0,.07,0,.11,0,.1,0,.14a2,2,0,0,0,.09.38l0,.1a2,2,0,0,0,.23.43l0,0,33,44.51v19.41a2,2,0,0,0,2,2H96.91a2,2,0,0,0,2-2V127.84l33-44.51,0,0a2,2,0,0,0,.24-.43l0-.1a2,2,0,0,0,.09-.38s0-.1,0-.14,0-.07,0-.11Z"/><path d="M83.6,136.32a2,2,0,0,1-1.41-3.41L104.1,111l16,16,26.58-26.58,15.15,15.15L198,79.38a2,2,0,0,1,2.83,2.83l-39,39-15.15-15.15-26.58,26.58-16-16L85,135.73A2,2,0,0,1,83.6,136.32Z"/><circle class="cls-3" cx="104.1" cy="113.82" r="6.66"/><circle class="cls-4" cx="119.69" cy="129.47" r="6.66"/><circle class="cls-3" cx="146.56" cy="102.83" r="6.66"/><circle class="cls-4" cx="162.03" cy="118.65" r="6.66"/><circle class="cls-3" cx="199.12" cy="81.07" r="6.66"/><path d="M104.1,122.48a8.66,8.66,0,1,1,8.66-8.66A8.67,8.67,0,0,1,104.1,122.48Zm0-13.32a4.66,4.66,0,1,0,4.66,4.66A4.67,4.67,0,0,0,104.1,109.16Z"/><path d="M119.69,138.13a8.66,8.66,0,1,1,8.66-8.66A8.67,8.67,0,0,1,119.69,138.13Zm0-13.32a4.66,4.66,0,1,0,4.66,4.66A4.67,4.67,0,0,0,119.69,124.81Z"/><path d="M146.56,111.49a8.66,8.66,0,1,1,8.66-8.66A8.67,8.67,0,0,1,146.56,111.49Zm0-13.32a4.66,4.66,0,1,0,4.66,4.66A4.67,4.67,0,0,0,146.56,98.17Z"/><path d="M162,127.31a8.66,8.66,0,1,1,8.66-8.66A8.67,8.67,0,0,1,162,127.31ZM162,114a4.66,4.66,0,1,0,4.66,4.66A4.67,4.67,0,0,0,162,114Z"/><path d="M199.12,89.73a8.66,8.66,0,1,1,8.66-8.66A8.67,8.67,0,0,1,199.12,89.73Zm0-13.32a4.66,4.66,0,1,0,4.66,4.66A4.67,4.67,0,0,0,199.12,76.41Z"/><path class="cls-4" d="M23.55,116.85a2,2,0,0,1-1.41-3.41l6.13-6.13,6.13,6.13a2,2,0,0,1-2.83,2.83l-3.3-3.3-3.3,3.3A2,2,0,0,1,23.55,116.85Z"/><path class="cls-4" d="M43.42,146.48A2,2,0,0,1,42,143.07l6.13-6.13,6.13,6.13a2,2,0,0,1-2.83,2.83l-3.3-3.3-3.3,3.3A2,2,0,0,1,43.42,146.48Z"/><path class="cls-4" d="M140.35,149.45a2,2,0,0,1-1.41-3.41l6.13-6.13,6.13,6.13a2,2,0,0,1-2.83,2.83l-3.3-3.3-3.3,3.3A2,2,0,0,1,140.35,149.45Z"/><path class="cls-4" d="M159.31,79.57a2,2,0,0,1-1.41-3.41L164,70l6.13,6.13A2,2,0,0,1,167.33,79l-3.3-3.3-3.3,3.3A2,2,0,0,1,159.31,79.57Z"/><polygon class="cls-4" points="93.91 124.17 74.29 124.17 40.84 79.14 127.35 79.14 93.91 124.17"/><rect class="cls-5" x="74.29" y="124.18" width="19.62" height="20.07"/><rect class="cls-5" x="40.84" y="62.64" width="86.51" height="16.5"/><circle class="cls-3" cx="64.88" cy="38.98" r="12.93"/><circle class="cls-3" cx="100.76" cy="16.35" r="12.93"/><path d="M87.18,165.65h-.52v-7.18h3.23a2,2,0,1,0,0-4H86.66v-3.23a2,2,0,0,0-4,0v3.23h-.52a7.59,7.59,0,0,0,0,15.18h.52v7.18H78a2,2,0,0,0,0,4h4.67v3.41a2,2,0,0,0,4,0v-3.41h.52a7.59,7.59,0,1,0,0-15.18Zm-5,0a3.59,3.59,0,0,1,0-7.18h.52v7.18Zm5,11.18h-.52v-7.18h.52a3.59,3.59,0,1,1,0,7.18Z"/><path class="cls-3" d="M113.68,57.74a12.66,12.66,0,0,1-1,4.89H88.79a12.66,12.66,0,0,1-1-4.89,12.93,12.93,0,1,1,25.86,0Z"/><path d="M129.35,61.22a2,2,0,0,0-2-2h-12a14.93,14.93,0,1,0-29.3,0H40.84a2,2,0,0,0-2,2v16.5s0,.07,0,.11,0,.1,0,.14a2,2,0,0,0,.09.38l0,.1a2,2,0,0,0,.23.43l0,0,33,44.51v19.41a2,2,0,0,0,2,2H93.91a2,2,0,0,0,2-2V123.42l33-44.51,0,0a2,2,0,0,0,.24-.43l0-.1a2,2,0,0,0,.09-.38s0-.1,0-.14,0-.07,0-.11ZM100.75,45.4a10.94,10.94,0,0,1,10.93,10.93,10.76,10.76,0,0,1-.39,2.89H90.21a10.76,10.76,0,0,1-.39-2.89A10.94,10.94,0,0,1,100.75,45.4ZM42.84,63.22h82.51v12.5H42.84Zm49.06,77.6H76.29V124.76H91.91Zm1-20.07H75.29l-30.47-41h78.56Z"/><path d="M64.88,52.49A14.93,14.93,0,1,0,49.95,37.56,14.95,14.95,0,0,0,64.88,52.49Zm0-25.86A10.93,10.93,0,1,1,53.95,37.56,10.94,10.94,0,0,1,64.88,26.63Z"/><path d="M100.76,29.86A14.93,14.93,0,1,0,85.82,14.93,14.95,14.95,0,0,0,100.76,29.86Zm0-25.86A10.93,10.93,0,1,1,89.82,14.93,10.94,10.94,0,0,1,100.76,4Z"/></svg>