<svg id="Layer_1" data-name="Layer 1" xmlns="http://www.w3.org/2000/svg" width="219.26" height="180.36" viewBox="0 0 219.26 180.36"><defs><style>.cls-1{fill:#ffecdf;}.cls-2{fill:#f27038;}.cls-3{fill:#fee0cf;}.cls-4{fill:#ffab66;}.cls-5{fill:#fff;}</style></defs><title>Artboard 1</title><path class="cls-1" d="M202.78,96.17c-1.07,12.9,11,38.87-11,60.2s-49.35,25.69-89.67,23.46C60.81,177.54,8.88,159.51,1,126.51S34.43,90.57,39.43,71.07C42.12,60.56,34,39.36,61.78,16.51,80.93.78,133.43-6.93,168.93,8.07s41.35,41.08,40.68,52.75S204.12,80.17,202.78,96.17Z"/><path class="cls-2" d="M52.74,86.69a2,2,0,0,1-1.41-3.41l6.13-6.13,6.13,6.13a2,2,0,0,1-2.83,2.83l-3.3-3.3-3.3,3.3A2,2,0,0,1,52.74,86.69Z"/><path class="cls-2" d="M174.12,44.68a2,2,0,0,1-1.41-.59l-3.3-3.3-3.3,3.3a2,2,0,0,1-2.83-2.83l6.13-6.13,6.13,6.13a2,2,0,0,1-1.41,3.41Z"/><path class="cls-2" d="M137.83,21.18a2,2,0,0,1-1.41-.59l-3.3-3.3-3.3,3.3A2,2,0,0,1,127,17.77l6.13-6.13,6.13,6.13a2,2,0,0,1-1.41,3.41Z"/><path class="cls-2" d="M27.73,121.2a2,2,0,0,1-1.41-3.41l6.13-6.13,6.13,6.13a2,2,0,0,1-2.83,2.83l-3.3-3.3-3.3,3.3A2,2,0,0,1,27.73,121.2Z"/><path class="cls-3" d="M179.84,120.05l-42-72.67A22.77,22.77,0,0,0,124,36.71a23,23,0,0,0-6.14-.77v0h-.31L117,36A23,23,0,0,0,98,47.33l-42.14,72.5,0,0a22.73,22.73,0,0,0-3,13.31,23.15,23.15,0,0,0,.68,4.08,22.77,22.77,0,0,0,10.63,13.95l.41.22c.32.18.63.35,1,.51l.2.09a22.71,22.71,0,0,0,9.92,2.29,23,23,0,0,0,5.9-.77c.21-.06.41-.14.62-.2s.7-.21,1-.33l.92-.34c.32-.13.63-.26.94-.4q.73-.33,1.43-.7l.7-.39c.31-.18.62-.36.92-.56s.53-.36.8-.55.81-.59,1.2-.91.52-.43.77-.65l.65-.59c.42-.41.84-.82,1.23-1.26l.32-.38q.5-.59,1-1.22l.35-.48c.38-.54.75-1.1,1.09-1.69l22.41-38.54L140.16,143a22.76,22.76,0,0,0,13.91,10.68,23,23,0,0,0,6,.79,22.92,22.92,0,0,0,19.81-34.38Z"/><path class="cls-4" d="M167.47,146.63A20.91,20.91,0,0,1,138.9,139l-24-41.6L96.94,66.31a20.93,20.93,0,0,1,17.43-31.37H115a20.92,20.92,0,0,1,18.13,10.46l42,72.67A20.91,20.91,0,0,1,167.47,146.63Z"/><path class="cls-2" d="M114.88,97.37,90.74,138.9a20.91,20.91,0,0,1-36.16-21L96.74,45.34a20.91,20.91,0,0,1,17.63-10.4A20.93,20.93,0,0,0,96.94,66.31Z"/><circle class="cls-4" cx="72.65" cy="128.39" r="20.91" transform="translate(-74.86 126.68) rotate(-59.83)"/><path d="M176.84,117.05l-42-72.67A22.77,22.77,0,0,0,121,33.71a23,23,0,0,0-6.14-.77v0h-.31L114,33A23,23,0,0,0,95,44.33l-42.14,72.5,0,0a22.73,22.73,0,0,0-3,13.31,23.15,23.15,0,0,0,.68,4.08,22.77,22.77,0,0,0,10.63,13.95l.41.22c.32.18.63.35,1,.51l.2.09a22.71,22.71,0,0,0,9.92,2.29,23,23,0,0,0,5.9-.77c.21-.06.41-.14.62-.2s.7-.21,1-.33l.92-.34c.32-.13.63-.26.94-.4q.73-.33,1.43-.7l.7-.39c.31-.18.62-.36.92-.56s.53-.36.8-.55.81-.59,1.2-.91.52-.43.77-.65l.65-.59c.42-.41.84-.82,1.23-1.26l.32-.38q.5-.59,1-1.22l.35-.48c.38-.54.75-1.1,1.09-1.69l22.41-38.54L137.16,140a22.76,22.76,0,0,0,13.91,10.68,23,23,0,0,0,6,.79,22.92,22.92,0,0,0,19.81-34.38ZM72.68,109.47A18.91,18.91,0,0,1,89,137.89l-.08.12c-.3.51-.62,1-1,1.48l-.2.26c-.32.42-.64.84-1,1.23l-.05.05a19,19,0,0,1-20,5.29h-.05c-.5-.17-1-.37-1.47-.58l-.31-.12c-.54-.25-1.07-.52-1.6-.82l-.11-.05a19.09,19.09,0,0,1-2.93-2.1l-.1-.08c-.39-.34-.75-.71-1.11-1.08l-.22-.21c-.29-.31-.56-.65-.83-1-.12-.14-.25-.28-.36-.42-.3-.4-.58-.82-.85-1.24l-.19-.28a18.54,18.54,0,0,1-2.7-8,18.76,18.76,0,0,1,2.44-11.47l0,0A18.92,18.92,0,0,1,72.68,109.47Zm22.81,17.25a22.89,22.89,0,0,0-32.7-19L92.18,57.15a22.8,22.8,0,0,0,3,10.15l17.36,30.06Zm79.78,6.68A18.91,18.91,0,0,1,140.62,138l-42-72.67a18.92,18.92,0,0,1,16.2-28.37H115a19,19,0,0,1,4.93.65,18.79,18.79,0,0,1,11.48,8.81l42,72.67A18.79,18.79,0,0,1,175.27,133.4Z"/><path d="M95.08,97.84a2,2,0,0,1-1.41-3.41l21.91-21.91,16,16,26.58-26.58L173.3,77.08l36.17-36.17a2,2,0,0,1,2.83,2.83l-39,39L158.15,67.59,131.57,94.17l-16-16L96.49,97.26A2,2,0,0,1,95.08,97.84Z"/><circle class="cls-5" cx="115.57" cy="75.35" r="6.66"/><circle class="cls-2" cx="131.17" cy="90.99" r="6.66"/><circle class="cls-5" cx="158.03" cy="64.36" r="6.66"/><circle class="cls-2" cx="173.5" cy="80.17" r="6.66"/><circle class="cls-5" cx="210.6" cy="42.6" r="6.66"/><path d="M115.57,84a8.66,8.66,0,1,1,8.66-8.66A8.67,8.67,0,0,1,115.57,84Zm0-13.32a4.66,4.66,0,1,0,4.66,4.66A4.67,4.67,0,0,0,115.57,70.69Z"/><path d="M131.17,99.65A8.66,8.66,0,1,1,139.83,91,8.67,8.67,0,0,1,131.17,99.65Zm0-13.32A4.66,4.66,0,1,0,135.83,91,4.67,4.67,0,0,0,131.17,86.33Z"/><path d="M158,73a8.66,8.66,0,1,1,8.66-8.66A8.67,8.67,0,0,1,158,73Zm0-13.32a4.66,4.66,0,1,0,4.66,4.66A4.67,4.67,0,0,0,158,59.7Z"/><path d="M173.5,88.83a8.66,8.66,0,1,1,8.66-8.66A8.67,8.67,0,0,1,173.5,88.83Zm0-13.32a4.66,4.66,0,1,0,4.66,4.66A4.67,4.67,0,0,0,173.5,75.51Z"/><path d="M210.6,51.26a8.66,8.66,0,1,1,8.66-8.66A8.67,8.67,0,0,1,210.6,51.26Zm0-13.32a4.66,4.66,0,1,0,4.66,4.66A4.67,4.67,0,0,0,210.6,37.94Z"/></svg>