<svg id="Layer_1" data-name="Layer 1" xmlns="http://www.w3.org/2000/svg" width="194.72" height="176.79" viewBox="0 0 194.72 176.79"><defs><style>.cls-1{fill:#ffecdf;}.cls-2{fill:#fee0cf;}.cls-3{fill:#f27038;}.cls-4{fill:#fff;}.cls-5{fill:#ffab66;}.cls-6{fill:#d6d6d6;}</style></defs><title>Artboard 1</title><path class="cls-1" d="M76.72.06c42.29-2,29.81,47.86,81.58,57,38.54,6.83,45.24,44.13,26,73.63-15.93,24.42-29.65,16-47.38,27-9.55,5.94-29.67,20.68-65.16,18.89C47.33,175.41,24,159.25,9.53,132.75-1.29,112.9-4.74,84.32,9,55.66,20.08,32.64,34.64,2.05,76.72.06Z"/><path class="cls-2" d="M157.44,36.85H124.06V27a2,2,0,0,0-2.44-1.9l-31.19,7.8H71a11.75,11.75,0,0,0-8.76,3.93h-3a9.83,9.83,0,0,0-9.82,9.82v58.91a9.83,9.83,0,0,0,9.82,9.82H88.58a15.65,15.65,0,0,1-7.28,11.39l-6.91,4.32H69.07a9.83,9.83,0,0,0-9.82,9.82,2,2,0,0,0,2,2h94.26a2,2,0,0,0,2-2,9.83,9.83,0,0,0-9.82-9.82h-5.33l-6.91-4.32a15.65,15.65,0,0,1-7.28-11.39h29.33a9.83,9.83,0,0,0,9.82-9.82V46.66a9.83,9.83,0,0,0-9.82-9.82Zm5.89,68.73"/><path class="cls-3" d="M25,93.21a2,2,0,0,1-1.41-.59l-3.3-3.3L17,92.62a2,2,0,0,1-2.83-2.83l6.13-6.13,6.13,6.13A2,2,0,0,1,25,93.21Z"/><path class="cls-3" d="M37.77,126.28a2,2,0,0,1-1.41-.59l-3.3-3.3-3.3,3.3a2,2,0,0,1-2.83-2.83l6.13-6.13,6.13,6.13a2,2,0,0,1-1.41,3.41Z"/><path class="cls-3" d="M182.35,112.86a2,2,0,0,1-1.41-.59l-3.3-3.3-3.3,3.3a2,2,0,0,1-2.83-2.83l6.13-6.13,6.13,6.13a2,2,0,0,1-1.41,3.41Z"/><path class="cls-4" d="M56,35.42h98.19A7.84,7.84,0,0,1,162,43.27v58.91a7.84,7.84,0,0,1-7.86,7.86H56a7.84,7.84,0,0,1-7.86-7.86V43.27A7.84,7.84,0,0,1,56,35.42Zm0,0"/><path class="cls-5" d="M65.77,129.68h78.55a7.86,7.86,0,0,1,7.86,7.86H57.92a7.86,7.86,0,0,1,7.86-7.86Zm0,0"/><path class="cls-3" d="M122.72,110H87.37a17.71,17.71,0,0,1-8.33,15l-7.38,4.62h66.77l-7.38-4.62a17.71,17.71,0,0,1-8.33-15Zm0,0"/><path class="cls-6" d="M118.8,62.91,87.37,55.05V31.49l31.42-7.86Zm0,0"/><rect class="cls-5" x="67.74" y="31.49" width="19.64" height="23.57"/><path class="cls-3" d="M67.74,31.49V55.05a9.82,9.82,0,0,1-9.82-9.82V41.31a9.82,9.82,0,0,1,9.82-9.82Zm0,0"/><path class="cls-3" d="M118.8,23.63,109,26.09V60.46l9.82,2.45Zm0,0"/><path class="cls-3" d="M87.37,74.69H77.56L73.63,55.05h9.82Zm0,0"/><path class="cls-3" d="M67.74,76.66a5.89,5.89,0,1,1-5.89-5.89,5.89,5.89,0,0,1,5.89,5.89Zm0,0"/><path class="cls-3" d="M67.74,96.29a5.89,5.89,0,1,1-5.89-5.89,5.89,5.89,0,0,1,5.89,5.89Zm0,0"/><rect class="cls-5" x="79.52" y="94.33" width="7.86" height="7.86"/><rect class="cls-5" x="95.23" y="90.4" width="7.86" height="11.78"/><rect class="cls-5" x="110.94" y="86.48" width="7.86" height="15.71"/><rect class="cls-5" x="126.65" y="82.55" width="7.86" height="19.64"/><rect class="cls-5" x="142.36" y="76.66" width="7.86" height="25.53"/><path d="M57.92,139a1.72,1.72,0,0,1-1.71-1.71,9.6,9.6,0,0,1,9.57-9.57h5.4l7-4.36a15.83,15.83,0,0,0,7.4-11.57l0-.28H56a9.6,9.6,0,0,1-9.57-9.57V43A9.6,9.6,0,0,1,56,33.45h3.13l.07-.08a11.51,11.51,0,0,1,8.57-3.84h19.4l31.25-7.8a1.71,1.71,0,0,1,2.13,1.66V33.45h33.63A9.6,9.6,0,0,1,163.71,43v58.91a9.6,9.6,0,0,1-9.57,9.57H124.53l0,.28a15.82,15.82,0,0,0,7.4,11.57l7,4.36h5.4a9.6,9.6,0,0,1,9.57,9.57,1.72,1.72,0,0,1-1.71,1.71Zm7.85-7.85A6.16,6.16,0,0,0,60,135.24l-.12.33h90.37l-.12-.33a6.16,6.16,0,0,0-5.79-4.09ZM89,111.73a19.42,19.42,0,0,1-9,14.54l-2.31,1.44h54.81l-2.31-1.44a19.42,19.42,0,0,1-9-14.54l0-.23H89ZM56,36.88A6.15,6.15,0,0,0,49.81,43v58.91A6.15,6.15,0,0,0,56,108.08h98.19a6.15,6.15,0,0,0,6.14-6.14V43a6.15,6.15,0,0,0-6.14-6.14H120.51V62.66a1.7,1.7,0,0,1-.66,1.35,1.71,1.71,0,0,1-1.47.31l-31.19-7.8H85.54L89.05,74.1a1.71,1.71,0,0,1-1.68,2.06H77.56a1.72,1.72,0,0,1-1.68-1.37L72.22,56.52H67.74A11.56,11.56,0,0,1,56.2,45V41.06a11.45,11.45,0,0,1,.67-3.84l.12-.33ZM79,72.73h6.32L82,56.52H75.72Zm31.73-45.55V58.87l6.39,1.6V25.58Zm-21.6,5.4V53.47L107.26,58V28ZM69.45,53.09H85.66V48.66H77.56a1.71,1.71,0,0,1,0-3.43h8.11V40.81H77.56a1.71,1.71,0,0,1,0-3.43h8.11V33H69.45ZM65.71,33.21a8.13,8.13,0,0,0-6.08,7.85V45a8.12,8.12,0,0,0,6.08,7.85l.31.08V33.13Z"/><path d="M128.61,44.74a1.71,1.71,0,1,1,0-3.43h9.82a1.71,1.71,0,1,1,0,3.43Z"/><path d="M128.61,33a1.71,1.71,0,0,1-.77-3.25l7.86-3.93a1.73,1.73,0,0,1,.77-.18,1.71,1.71,0,0,1,.77,3.25l-7.85,3.93a1.7,1.7,0,0,1-.77.18Z"/><path d="M136.47,60.7a1.73,1.73,0,0,1-.77-.18l-7.86-3.93a1.72,1.72,0,0,1,.77-3.25,1.7,1.7,0,0,1,.77.18l7.85,3.93a1.73,1.73,0,0,1,.86,1,1.71,1.71,0,0,1-.09,1.31,1.72,1.72,0,0,1-1.53.95Z"/><path d="M79.52,103.9a1.72,1.72,0,0,1-1.71-1.71V94.33a1.72,1.72,0,0,1,1.71-1.71h7.86a1.72,1.72,0,0,1,1.71,1.71v7.85a1.72,1.72,0,0,1-1.71,1.71Zm1.71-3.43h4.43V96H81.23Z"/><path d="M95.23,103.9a1.72,1.72,0,0,1-1.71-1.71V90.4a1.72,1.72,0,0,1,1.71-1.71h7.86a1.72,1.72,0,0,1,1.71,1.71v11.78a1.72,1.72,0,0,1-1.71,1.71Zm1.71-3.43h4.43V92.12H96.94Z"/><path d="M110.94,103.9a1.72,1.72,0,0,1-1.71-1.71V86.48a1.72,1.72,0,0,1,1.71-1.71h7.85a1.72,1.72,0,0,1,1.71,1.71v15.71a1.72,1.72,0,0,1-1.71,1.71Zm1.71-3.43h4.43V88.19h-4.43Z"/><path d="M126.65,103.9a1.72,1.72,0,0,1-1.71-1.71V82.55a1.72,1.72,0,0,1,1.71-1.71h7.85a1.72,1.72,0,0,1,1.71,1.71v19.64a1.72,1.72,0,0,1-1.71,1.71Zm1.71-3.43h4.43V84.26h-4.43Z"/><path d="M142.36,103.9a1.72,1.72,0,0,1-1.71-1.71V76.66a1.72,1.72,0,0,1,1.71-1.71h7.85a1.72,1.72,0,0,1,1.71,1.71v25.53a1.72,1.72,0,0,1-1.71,1.71Zm1.71-3.43h4.43V78.37h-4.43Z"/><path d="M77.56,90.16a1.72,1.72,0,0,1-.61-3.32L102.47,77a1.72,1.72,0,0,1,.61-.11h15.31l30.53-15.26-4.92-1a1.71,1.71,0,0,1,.4-3.38l.28,0,9.8,2a1.71,1.71,0,0,1,1.2,2.45l-3.93,7.85A1.72,1.72,0,0,1,148.68,68l1.63-3.26L119.56,80.15a1.74,1.74,0,0,1-.77.18H103.45L78.17,90A1.7,1.7,0,0,1,77.56,90.16Z"/><path d="M61.85,84.26a7.61,7.61,0,1,1,2.91-.58,7.55,7.55,0,0,1-2.91.58Zm0-11.78a4.18,4.18,0,1,0,1.6.32A4.15,4.15,0,0,0,61.85,72.48Z"/><path d="M61.85,103.9a7.61,7.61,0,1,1,2.91-.58,7.55,7.55,0,0,1-2.91.58Zm0-11.78a4.18,4.18,0,1,0,1.6.32A4.15,4.15,0,0,0,61.85,92.12Z"/></svg>