<?xml version="1.0" encoding="utf-8"?>
<!-- Generator: Adobe Illustrator 20.0.0, SVG Export Plug-In . SVG Version: 6.00 Build 0)  -->
<svg version="1.1" id="Layer_1" xmlns="http://www.w3.org/2000/svg" xmlns:xlink="http://www.w3.org/1999/xlink" x="0px" y="0px"
	 viewBox="0 0 43 82" style="enable-background:new 0 0 43 82;" xml:space="preserve" width="43" height="82">
<style type="text/css">
	.st0{fill:#344C70;}
	.st1{fill:#375D82;}
	.st2{fill:#7BA0BF;}
</style>
<g>
	<path class="st0" d="M40.1,13.5l-10,3.5L29,21.8c-1.5-0.6-3.1-1-4.8-1c-0.8,0-1.5,0.1-2.2,0.2v-1.1l-10,3.5l-1,2.9
		c-1.2,0.3-2.3,0.8-3.3,1.5l-0.3-5.9l-4-5.8l2.7-1l4,2.7l10-3.5l-9.7-13L14,0l14.2,11.5l10-3.5c1.5-0.5,3.2,0.3,3.7,1.8
		S41.6,12.9,40.1,13.5z"/>
	<g>
		<path class="st0" d="M43,38.5c0,3.8-2.8,6.9-6.5,7.4V46h-1.4v-8.6c0-2.3-1.8-4.1-4.1-4.1H14.8c-2.2,0-4.1,1.8-4.1,4.1V46H5.3
			c-3,0-5.3-2.3-5.3-5.2s2.4-5.2,5.3-5.2c0.2,0,0.4,0,0.6,0c0.2-3.9,3.5-7,7.6-7c0.7,0,1.4,0.1,2.1,0.3c1.5-3.2,4.8-5.5,8.7-5.5
			c4.7,0,8.6,3.4,9.4,7.8c0.5-0.1,1.1-0.2,1.7-0.2C39.6,31,43,34.3,43,38.5z"/>
	</g>
	<g>
		<g>
			<path class="st0" d="M32.6,36.1l-9.7,7.1l-9.7-7.1c0.4-0.5,1-0.9,1.8-0.9h15.9C31.6,35.2,32.2,35.6,32.6,36.1z"/>
		</g>
		<g>
			<path class="st0" d="M33.1,38.1v9.6c0,1.2-1,2.3-2.2,2.3H15c-1.2,0-2.2-1-2.2-2.3v-9.6l9.4,6.9c0.2,0.2,0.5,0.3,0.8,0.3
				s0.6-0.1,0.8-0.3L33.1,38.1z"/>
		</g>
	</g>
</g>
<g>
	<g>
		<path class="st1" d="M24.5,58.6l-6.3,2.3L17.5,64c-0.9-0.4-2-0.6-3-0.6c-0.5,0-0.9,0-1.4,0.1l0-0.7L6.8,65l-0.6,1.9
			c-0.8,0.2-1.5,0.5-2.1,1L3.9,64l-2.5-3.7l1.7-0.6l2.5,1.7l6.3-2.3l-6-8.4L8.1,50l8.9,7.4l6.3-2.3c0.9-0.3,2,0.2,2.3,1.1
			C25.9,57.2,25.4,58.3,24.5,58.6z"/>
	</g>
	<g>
		<path class="st2" d="M26.3,74.6c0,2.4-1.8,4.4-4.1,4.7v0.1h-0.9V74c0-1.5-1.1-2.6-2.6-2.6H8.6C7.2,71.3,6,72.5,6,74v5.5H2.7
			c-1.9,0-3.4-1.5-3.4-3.4c0-1.8,1.5-3.3,3.4-3.3c0.1,0,0.2,0,0.3,0c0.2-2.5,2.2-4.5,4.8-4.5c0.4,0,0.9,0.1,1.3,0.2
			c0.9-2.1,3-3.5,5.5-3.5c3,0,5.4,2.2,5.9,5c0.3-0.1,0.7-0.1,1.1-0.1C24.1,69.8,26.3,72,26.3,74.6z"/>
	</g>
	<g>
		<g>
			<path class="st1" d="M19.8,73.1l-6.1,4.5l-6.1-4.5c0.3-0.3,0.7-0.6,1.1-0.6h10C19.1,72.6,19.5,72.8,19.8,73.1z"/>
		</g>
		<g>
			<path class="st1" d="M20.1,74.4v6.2c0,0.8-0.6,1.4-1.4,1.4h-10c-0.8,0-1.4-0.6-1.4-1.4v-6.2l5.9,4.4c0.2,0.1,0.3,0.2,0.5,0.2
				c0.2,0,0.4-0.1,0.5-0.2L20.1,74.4z"/>
		</g>
	</g>
</g>
</svg>
