<?xml version="1.0" encoding="utf-8"?>
<!-- Generator: Adobe Illustrator 20.1.0, SVG Export Plug-In . SVG Version: 6.00 Build 0)  -->
<svg version="1.1" id="Layer_1" xmlns="http://www.w3.org/2000/svg" xmlns:xlink="http://www.w3.org/1999/xlink" x="0px" y="0px"
	 viewBox="0 0 30 60" style="enable-background:new 0 0 30 60;" xml:space="preserve" width="30" height="60">
<style type="text/css">
	.st0{fill:#445C8A;}
</style>
<g>
	<polygon class="st0" points="18.9,13.7 16.9,15.5 17.5,18.1 15,16.9 12.5,18.1 13.1,15.5 11.1,13.7 13.8,13.4 15,11.1 16.2,13.4 	
		"/>
	<path class="st0" d="M15,0C6.7,0,0,6.7,0,15s6.7,15,15,15s15-6.7,15-15S23.3,0,15,0z M15,22.5c0,0-8.8-2.7-6.6-13
		c4.1,0.5,4.8-0.5,6.6-2c1.8,1.5,2.5,2.5,6.6,2C23.8,19.7,15,22.5,15,22.5z"/>
</g>
<g>
	<path class="st0" d="M15,30C6.7,30,0,36.7,0,45c0,8.3,6.7,15,15,15s15-6.7,15-15C30,36.7,23.3,30,15,30z M18.6,36.7
		c0.8-0.5,1.8-0.4,2.3,0.4c0.5,0.8,0.4,1.8-0.4,2.3c-0.8,0.5-1.8,0.4-2.3-0.4C17.7,38.3,17.8,37.2,18.6,36.7z M8,51.8l-1.3-1.1
		l4.8-3.7h4l0.9-3.3c-1.3,0.8-2.7,1.3-4.2,1V43c1.3,0.3,2.8-0.3,3.8-1l1.4-1c0.1-0.3,0.4-0.3,0.8-0.3c0.3,0,0.5,0,0.8,0
		c1,0.1,1.7,1,1.5,2l-1.1,4.7c-0.3,1.1-1.3,1.9-2.4,1.9h-5.7L8,51.8z M21.6,48.3c-0.3,2-2,3.4-4.1,3.4h-5.9v-1.5h5.9
		c1.1,0,2.3-0.9,2.4-2l1.7-7.7h1.7L21.6,48.3z"/>
</g>
</svg>
