<svg xmlns="http://www.w3.org/2000/svg" viewBox="0 0 52 44"><defs><style>.cls-1{fill:none;stroke:#fff;stroke-linecap:round;stroke-linejoin:round;stroke-width:2px;}</style></defs><g id="Layer_2" data-name="Layer 2"><g id="Icons"><rect class="cls-1" x="7" y="19" width="8" height="8" rx="1"/><line class="cls-1" x1="7" y1="31" x2="13" y2="31"/><line class="cls-1" x1="17" y1="31" x2="23" y2="31"/><line class="cls-1" x1="27" y1="31" x2="33" y2="31"/><line class="cls-1" x1="37" y1="31" x2="43" y2="31"/><line class="cls-1" x1="7" y1="37" x2="15" y2="37"/><line class="cls-1" x1="19" y1="37" x2="23" y2="37"/><circle class="cls-1" cx="40" cy="12" r="11"/><polyline class="cls-1" points="46 8 42 12 38 16 34 12"/><path class="cls-1" d="M29.05,11H5a4,4,0,0,0-4,4V39a4,4,0,0,0,4,4H43a4,4,0,0,0,4-4V25"/></g></g></svg>