<svg xmlns="http://www.w3.org/2000/svg" viewBox="0 0 73.78 44"><defs><style>.cls-1{fill:#fff;}</style></defs><g id="Layer_2" data-name="Layer 2"><g id="Õ__1" data-name="Õº≤„_1"><path class="cls-1" d="M22.54,15.1A7.55,7.55,0,1,0,15,7.55,7.56,7.56,0,0,0,22.54,15.1Zm0-12.6a5.05,5.05,0,1,1-5.05,5.05A5.06,5.06,0,0,1,22.54,2.5Z"/><path class="cls-1" d="M72.53,8.06h-39a1.25,1.25,0,0,0-1.25,1.25v9.78H27a1.24,1.24,0,0,0-1,.58l-3.4,5.27-3.4-5.27a1.25,1.25,0,0,0-1.05-.58h-7A6.09,6.09,0,0,0,5,25.19V38.7s0,.09,0,.14a5.8,5.8,0,0,0,1,2.66H1.25a1.25,1.25,0,0,0,0,2.5H38.79a1.25,1.25,0,0,0,0-2.5H24.44a4.43,4.43,0,0,0,.44-2.16A4.69,4.69,0,0,0,20.1,35H14.59V30a1.25,1.25,0,0,0-2.5,0v6.18a1.25,1.25,0,0,0,1.25,1.25.7.7,0,0,0,.14,0,.7.7,0,0,0,.14,0H20.1a2.22,2.22,0,0,1,2.28,2,1.73,1.73,0,0,1-.45,1.35A2.65,2.65,0,0,1,20,41.5H10.66a3.21,3.21,0,0,1-3.2-3.21V25.19a3.59,3.59,0,0,1,3.59-3.59h6.36l4.08,6.33a1.24,1.24,0,0,0,1.05.58,1.25,1.25,0,0,0,1.05-.58l4.08-6.33h4.64V35.47a1.25,1.25,0,0,0,1.25,1.25H48.84V41.5H45A1.25,1.25,0,0,0,45,44H61.14a1.25,1.25,0,0,0,0-2.5H57.25V36.72H72.53a1.25,1.25,0,0,0,1.25-1.25V9.31A1.25,1.25,0,0,0,72.53,8.06ZM54.75,41.5H51.34V36.72h3.41Zm16.53-7.28H34.81V10.56H71.28Z"/></g></g></svg>