<svg xmlns="http://www.w3.org/2000/svg" viewBox="0 0 47.83 45.97"><defs><style>.cls-1,.cls-2{fill:none;stroke:#fff;stroke-width:2px;}.cls-1{stroke-linejoin:round;}.cls-2{stroke-miterlimit:10;}</style></defs><g id="Layer_2" data-name="Layer 2"><g id="icons"><rect class="cls-1" x="1" y="10.97" width="18" height="8"/><polyline class="cls-1" points="19 18.97 19 26.97 1 26.97 1 18.97"/><polyline class="cls-1" points="19 26.97 19 34.97 1 34.97 1 26.97"/><circle class="cls-2" cx="35" cy="22.97" r="3"/><path class="cls-1" d="M46.83,20.3,45.58,17,42.47,18a8.86,8.86,0,0,0-2.08-2.19l1.08-3.06L38.28,11.3l-1.54,2.85a8.73,8.73,0,0,0-3-.08l-1.39-2.93-3.26,1.25L30,15.5a8.86,8.86,0,0,0-2.19,2.08L24.75,16.5l-1.42,3.19,2.85,1.54a8.73,8.73,0,0,0-.08,3l-2.93,1.39,1.25,3.26L27.53,28a8.81,8.81,0,0,0,2.08,2.18l-1.08,3.06,3.19,1.42,1.54-2.85a8.73,8.73,0,0,0,3,.08l1.39,2.93,3.26-1.26L40,30.44a8.86,8.86,0,0,0,2.19-2.08l3,1.08,1.42-3.19-2.85-1.54a8.73,8.73,0,0,0,.08-3Z"/><line class="cls-1" x1="16" y1="14.97" x2="13" y2="14.97"/><line class="cls-1" x1="16" y1="22.97" x2="13" y2="22.97"/><line class="cls-1" x1="16" y1="30.97" x2="13" y2="30.97"/><path class="cls-1" d="M14.5,8.1A11,11,0,0,1,24.92,1,10.88,10.88,0,0,1,35,7.11"/><polyline class="cls-2" points="35.92 2.99 35 6.97 31.05 6.49"/><path class="cls-1" d="M35,38a10.35,10.35,0,0,1-10,7,10.67,10.67,0,0,1-10-6"/><polyline class="cls-2" points="14 42.92 15 38.97 18.88 39.41"/></g></g></svg>