<svg xmlns="http://www.w3.org/2000/svg" xmlns:xlink="http://www.w3.org/1999/xlink" viewBox="0 0 145 200"><defs/><defs><path id="path-1" d="M0 0h144.2v199.2H0z"/></defs><g id="Page-1" fill="none" fill-rule="evenodd" stroke="none" stroke-width="1"><g id="Group-3"><mask id="mask-2" fill="#fff"><use xlink:href="#path-1"/></mask><path id="header-logo-shape" fill="#020303" d="M109 162a207.5 207.5 0 01-18.3 16.8l-1 .8c-5.7 5-9.6 7-15 8s-9 .3-14.9-2.6l-.9-.4a137 137 0 01-38.7-26l-.9-.8a30.1 30.1 0 01-4.5-6.1 37 37 0 007.2 3l2 .5c2 .6 4.2 1 6.4 1.2l2.3.2a47.5 47.5 0 0028.3-7.2l.9-.6 2-1.3 15-10.2c4.2-2.8 9.1-4.6 14-5.2a24.1 24.1 0 0117.8 4.7 14.4 14.4 0 015 11.1c0 1.5-.2 3-.6 4.6-.5 1.9-1.3 3.8-2.4 5.6l-3.7 4zm-96.3-36.6c.8-3.7 1.9-7.8 3.3-12.2a230 230 0 018-20.8 33.5 33.5 0 004.4 7.3c7 9 18.7 14.7 31.8 15.4a53 53 0 0013.4-1l21.3-4.1 3.6-.6c9.2-.9 17.8 1.6 23.5 6.8a20.4 20.4 0 016.8 17.4c-.1 1.9-.6 3.8-1.1 5.6-.5.8-1 1.7-1.6 2.4-.3-1.4-.8-2.7-1.4-4l-.4-1-2-3.4-.8-1c-1-1.4-2-2.6-3.3-3.8-6.7-5.9-16.4-8.6-26.6-7.4a44 44 0 00-19 7l-.2.2-17.2 11.7a39.5 39.5 0 01-15.2 5.4c-9.8 1.3-18.8-1.2-24.3-6.8a17 17 0 01-2.6-3.6l-.5-1.2-1-2.5 1-5.7zM46 48.7l.2.6c5.8 14 20.8 23.3 38.4 23.8l2.9.1 2.4.2.7.1h.3l8.2 1.6 1 .2h.4l.1.1.4.2 3.8 1.2c2.6 1 5 2.1 7.3 3.4l2.3 1.5c1.4 1 2.8 1.8 4.1 2.9l2.2 2c1 1 2.2 2 3.2 3.2.7.7 1.2 1.6 1.8 2.5.8 1 1.6 2.1 2.3 3.3 1.7 5.4 3 10.3 3.9 14.8a33 33 0 00-8.8-7l-2.2-1c-1.6-.8-3.3-1.5-5-2-1-.4-2-.6-2.9-.8a43.8 43.8 0 00-8.4-1.3l-2.5-.2a50 50 0 00-9.5 1l-21.2 4.1a43.1 43.1 0 01-10.6.8A32 32 0 0137 92.8a22.1 22.1 0 01-4.7-13.7c0-2.9.7-5.7 1.8-8.5a528 528 0 0111.9-22zm23.8-34.4a14 14 0 016.7-3c7.5-1 14.4 8.2 19.1 16.2l.8 1.3c0 .1 7.5 12.4 15.6 28.6l6.4 13.5-.3-.1a61.7 61.7 0 00-11.5-5.2h-.3l-.2-.1-.3-.1-1.4-.5-1.1-.3h-.4l-.6-.2-1.8-.5H100.3l-2.3-.6h-.4-.2l-.2-.1-2.8-.5h-.8l-1.3-.2H92l-.4-.1h-.3a57.3 57.3 0 00-3-.3h-.5L85 62c-13-.4-24.2-7-28.3-17a21 21 0 01-1-12.1l2.6-4.4c3.2-5 7-10.7 11.7-14.2zm74.3 106.3v-.7-.7l-.1-2.1c-.6-7.3-2.4-16-5.6-25.6a294.5 294.5 0 00-16.4-39c-8.3-16.7-15.8-29-16-29.4l-.8-1.3c-4-6.9-14.4-23.5-30-21.7C71 .6 67 2.4 63 5.4a64.6 64.6 0 00-14.3 17.2L45.4 28a542.5 542.5 0 00-21.2 37.9H24a307 307 0 00-18.7 44 139 139 0 00-5 21v.1a75 75 0 00-.4 5.3c-.2 11 3.6 21 11.2 29.1l2 2c11.8 11.2 26 20.6 41.2 27.4l.6.3a33 33 0 0021.7 3.5A39.8 39.8 0 0096.8 188l.9-.7a221.2 221.2 0 0023.7-22.3 194 194 0 0012.1-14.7l.7-.8 1-1.4 2.5-4a47.8 47.8 0 006.5-23.6z" mask="url(#mask-2)"/></g></g></svg>
