<?xml version="1.0" encoding="utf-8"?>
<!-- Generator: Adobe Illustrator 19.2.1, SVG Export Plug-In . SVG Version: 6.00 Build 0)  -->
<svg version="1.1" id="Layer_1" xmlns="http://www.w3.org/2000/svg" xmlns:xlink="http://www.w3.org/1999/xlink" x="0px" y="0px"
	 viewBox="0 0 195 156" style="enable-background:new 0 0 195 156;" xml:space="preserve" width="195" height="156">
<style type="text/css">
	.st0{fill:#EFB256;}
	.st1{fill:#DDDDDD;}
	.st2{fill:#344C70;}
</style>
<g>
	<g>
		<path class="st0" d="M168.4,139.3c-14.6,0-26.6-11.9-26.6-26.4c0-14.6,11.9-26.5,26.6-26.5c14.6,0,26.6,11.9,26.6,26.5
			C195,127.4,183.1,139.3,168.4,139.3z M168.4,89.6c-12.9,0-23.4,10.4-23.4,23.3s10.5,23.3,23.4,23.3c12.9,0,23.4-10.4,23.4-23.3
			S181.3,89.6,168.4,89.6z"/>
	</g>
	<rect x="165.1" y="120.8" class="st0" width="6.8" height="6.7"/>
	<polygon class="st0" points="171.8,116 165.1,116 164.4,96.5 172.4,96.5 	"/>
	<path class="st1" d="M72.3,87.3c14.1,0,25.8,10.2,28.1,23.6c1.6-0.4,3.3-0.6,5.1-0.6c12.7,0,22.9,10.2,22.9,22.8
		c0,11.4-8.5,21.2-19.5,22.8H16c-8.8,0-16-7.1-16-15.9s7.1-15.9,16-15.9c0.6,0,1.1,0,1.7,0.1c0.7-11.8,10.5-21.2,22.6-21.2
		c2.1,0,4.2,0.3,6.1,0.9C50.8,94.1,60.7,87.3,72.3,87.3"/>
	<path class="st2" d="M180.7,49.9c-1.8-6.6-8.5-10.4-15.1-8.7L122,52.7L65.4,0L49.5,4.2l36.8,58L42.6,73.8L26.4,61.1l-11.9,3.2
		l15.3,25.6l-0.1,7.2c3.3-1.2,6.8-1.9,10.5-1.9c0.6,0,1.3,0,2,0.1c6.7-9.8,18-15.9,30.1-15.9c15.3,0,28.6,9.3,33.9,23
		c4.7,0.1,9.1,1.3,13.1,3.3l9-29.3L172,64.9C178.6,63.1,182.5,56.4,180.7,49.9z"/>
</g>
</svg>
