<?xml version="1.0" encoding="UTF-8"?>
<svg id="Layer_2" data-name="Layer 2" xmlns="http://www.w3.org/2000/svg" width="252.19" height="51.702" viewBox="0 0 252.19 51.702">
  <defs>
    <style>
      .cls-1 {
        fill: #fff;
      }
    </style>
  </defs>
  <g id="Layer_1-2" data-name="Layer 1">
    <path class="cls-1" d="m34.911,16.013c.126,0,.21.043.336-.084.084-.127,0-.211-.126-.421-.126-.211-.168-.295-.294-.465-.084-.168-.252-.211-.505-.126-.21.084-.42.464-.378.633,0,.169.252.296.715.38,0,0,.126.084.252.084ZM13.091,4.328c.673.338,1.009.423,1.724.38.673-.042.841-.211,1.009-.549.084-.167.042-.505-.042-.801-.084-.169-.336-.464-.505-.464-.294,0-.715.042-.967-.043-.252-.084-.42-.043-.757-.337-.294-.296-.378-.718-.336-.928,0-.211.126-.38.126-.38,0,0,.084.084.252.295.168.21.294.338.589.505.336.127.589.338,1.135.464.547.169,1.556.465,1.556.465v-.085s-.378-.253-.925-.76c-.547-.505-1.051-1.012-1.387-1.392-.294-.337-.378-.506-.547-.59-.168-.127-.462-.127-.631-.085-.168.085-.42.128-.883.887-.463.759-.505,1.476-.421,1.94.126.464.336,1.14,1.009,1.476Zm198.695,39.78c-.21,0-.547.043-.799.169-.883.254-1.345.465-1.345.633,0,.042.126.084.378.084h.294c.378,0,.799-.042,1.261-.211.336-.127.547-.253.547-.422s-.126-.253-.336-.253Zm40.361-1.603c0-4.64-3.742-8.437-8.409-8.437H18.304c-4.625,0-8.409,3.755-8.409,8.437v.76c0,4.641,3.742,8.437,8.409,8.437h225.477c4.625,0,8.409-3.754,8.409-8.437l-.042-.76Zm-201.386-4.725c.042,0,.126.043.252.085.21.084.378.169.505.295.168.168.252.422.252.675,0,.126-.042.253-.084.38-.168.379-.42.634-.673.59-.252,0-.504-.083-.757-.294-.294-.211-.378-.38-.378-.633,0-.633.378-1.097.883-1.097Zm-8.409,2.068v.294l-.168,4.683v.465c0,.337-.084.59-.21.716-.084.085-.21.127-.378.211-.21.085-.462.169-.631.169-.21,0-.462-.084-.589-.169-.252-.169-.631-.548-.841-.886l-2.733-3.923-.126-.212-.21-.294c-.042-.085-.084-.085-.126-.085-.084,0-.126.085-.126.211v.127c0,.126-.042.168-.042.211l-.126,2.868v.296c0,.211.084.295.42.422.42.126.715.464.715.802,0,.127-.042.211-.168.338-.294.253-.757.38-1.724.38-.589,0-.925-.042-1.135-.126-.336-.127-.589-.464-.589-.76s.168-.506.42-.59l.294-.084c.168-.043.21-.254.252-.718l.084-3.501v-.507c0-.211-.042-.295-.252-.38l-.294-.168c-.294-.126-.547-.548-.547-.886,0-.127.042-.253.126-.337.126-.127.252-.169.42-.211.042,0,.336,0,.883-.042l.925-.042h.126c.21,0,.378.042.547.085.336.126.42.211.841,1.012l.252.464.126.211,1.808,3.164c.042.084.126.211.21.379.084.127.168.254.252.338.168.211.252.295.336.295s.126-.084.126-.211v-.464l.168-2.953c0-.126,0-.21.042-.296v-.168c0-.126-.042-.211-.168-.211l-.252-.084c-.168-.042-.336-.254-.462-.422-.084-.085-.084-.211-.084-.338,0-.254.126-.422.505-.506.505-.127,1.303-.253,1.892-.253.715,0,1.303.38,1.303.886.042.211-.252.423-.715.465-.294.042-.336.084-.378.338Zm6.433,3.205c-.084.549-.294.759-.799.802h-.294s-.126,0-.336.041l-.336.043-2.649.337c-.252.042-.336.084-.336.295,0,.423.336.633,1.051.633.631,0,1.472-.169,2.018-.38l.841-.338c.126-.042.252-.084.336-.084.294,0,.505.252.505.591,0,.127-.042.338-.126.421-.126.254-.42.423-.757.591-.799.338-1.808.549-2.439.549-.294,0-.547-.043-.883-.127-1.345-.38-2.018-1.266-2.018-2.616,0-.928.294-1.561,1.051-2.362.841-.843,1.934-1.35,2.985-1.35.631,0,1.009.169,1.64.717.504.465.631.718.631,1.35,0,.211-.042.549-.084.886Zm2.27,3.079h-.799c-.378,0-.589,0-.757-.084-.252-.085-.463-.422-.463-.675,0-.211.168-.38.505-.464.336-.085.42-.211.42-.718l.042-1.308v-.168c0-.296-.042-.422-.21-.465l-.252-.084c-.336-.127-.631-.464-.631-.717,0-.38.715-.718,1.64-.718.715,0,1.135.254,1.135.676v.169c0,.168-.042.338-.042.76,0,.337,0,.717-.042,1.096-.042.422-.042.802-.042,1.055,0,.084.042.127.042.169.042.043.042.085.126.127.042,0,.084.042.21.084.336.127.547.423.547.717,0,.422-.252.549-1.43.549Zm8.03-4.218v1.476c0,.337,0,.844.042,1.603.042.506.042.886.042,1.139,0,1.097-.084,1.73-.294,2.194-.294.591-1.051.928-2.27.928-1.051,0-2.144-.211-2.901-.548-.294-.128-.42-.296-.42-.549s.084-.338.378-.338c.084,0,.168.043.252.043l.841.127c.505.084,1.051.126,1.556.126.799,0,1.177-.337,1.177-1.096v-.676c0-.169-.084-.253-.21-.253-.042,0-.126,0-.21.042-.336.127-.841.211-1.345.211-.883,0-1.682-.211-2.354-.591-.673-.379-.925-.802-.925-1.434,0-.971.589-2.194,1.513-3.079.757-.76,1.556-1.098,2.439-1.098.294,0,.42.043.673.127.252.084.294.127.378.127s.126,0,.252-.127c.168-.169.336-.211.673-.211.168,0,.378,0,.631.042.252.042.462.085.589.127.294.084.505.421.505.759,0,.125,0,.21-.084.295-.084.085-.168.127-.126.085-.042,0-.126.042-.294.042-.378,0-.504.169-.504.507Zm7.736,4.26h-.757c-.673,0-.967-.043-1.261-.254-.21-.126-.378-.38-.378-.548,0-.211.126-.338.462-.422.378-.127.42-.127.505-.211.042-.085.084-.211.084-.465,0-.337-.042-.886-.084-1.265-.084-.591-.378-.844-.925-.844-.294,0-.547.042-1.093.127-.841.168-1.009.338-1.009,1.054,0,.296,0,.591-.042.886v.169c0,.422,0,.464.336.632.336.169.505.422.505.718,0,.464-.631.717-1.808.717-.294,0-.505,0-.715-.042-.463-.084-.841-.464-.841-.844,0-.169.168-.338.463-.422.378-.085.462-.211.462-.675v-.38l.126-4.049v-.042c0-.338-.084-.422-.294-.506l-.294-.085c-.421-.126-.673-.464-.673-.759,0-.464.673-.717,1.724-.717.799,0,1.135.295,1.135,1.055v.507c-.042.422-.042.718-.042.843,0,.549.042.718.294.718h.21c.252-.042.505-.042.757-.042.841,0,1.513.168,2.186.591.925.548,1.135,1.055,1.177,2.573,0,.169.042.295.042.379.042.17.042.212.336.338.252.168.463.464.463.717,0,.379-.294.549-1.051.549Zm12.445.042c-2.142,0-3.79-1.137-3.896-2.612-.209.454-.582.897-1.15,1.304-1.303.928-2.859,1.35-4.919,1.308-.505,0-.799-.042-.967-.253-.126-.126-.21-.464-.21-.674,0-.254.168-.507.462-.591.21-.084.294-.169.294-.422v-.59l.042-4.05v-.295c0-.464-.042-.507-.336-.549-.546-.043-.757-.253-.757-.633,0-.337.168-.591.463-.633l.715-.126c.42-.085.673-.127.757-.127.294,0,.673.253.757.464.084.169.126.507.126.971v.295l-.042.929v.042c0,.295.084.338.715.379,2.479.119,4.018.981,4.208,2.232.164-.496.432-.965.795-1.303.631-.633,1.808-1.054,2.817-1.054s2.144.421,2.733,1.054c.42.422.631,1.055.631,1.772,0,1.688-1.471,3.164-3.237,3.164Zm6.853-3.839c0-.127,0-.253.042-.464v-.169c0-.126-.042-.168-.126-.168-.168,0-.505.38-.631.843-.21.717-.378,1.476-.378,1.856v.211c0,.084.042.127.042.169,0,.085.084.127.21.169.505.211.715.422.715.675,0,.169-.21.38-.42.464-.463.169-1.261.254-1.976.254-.673,0-1.219-.338-1.219-.76,0-.253.252-.506.589-.548.378-.043.462-.127.462-.759v-.085l-.042-1.941v-.169c0-.042-.042-.085-.042-.127-.042-.127-.084-.127-.252-.211-.378-.127-.715-.507-.715-.802,0-.337.589-.589,1.387-.589.673,0,1.009.125,1.093.421.084.169.126.254.21.254.042,0,.084-.042.168-.085.294-.21.799-.421,1.093-.421.168,0,.336.041.505.126.631.295.967.674.967,1.097,0,.126-.042.296-.084.422-.168.76-.589,1.308-.925,1.266-.378,0-.673-.38-.673-.928Zm8.156,3.797h-.715c-.673,0-.967-.043-1.261-.254-.21-.126-.378-.38-.378-.548,0-.211.126-.338.463-.422.378-.127.42-.127.504-.211.042-.085.084-.211.084-.465,0-.337-.042-.886-.084-1.265-.084-.591-.378-.844-.925-.844-.294,0-.547.042-1.093.127-.883.168-1.051.338-1.051,1.054,0,.296,0,.591-.042.886v.211c0,.422,0,.464.336.633.336.169.504.422.504.718,0,.464-.631.717-1.808.717-.294,0-.505,0-.715-.042-.463-.084-.841-.464-.841-.844,0-.169.168-.337.463-.422.378-.084.462-.211.462-.674v-.38l.126-4.05v-.042c0-.337-.084-.422-.294-.505l-.294-.084c-.42-.127-.673-.465-.673-.76,0-.464.673-.717,1.724-.717.799,0,1.135.295,1.135,1.054v.465c-.042.422-.042.718-.042.843,0,.549.042.718.294.718h.21c.252-.042.505-.042.757-.042.841,0,1.513.168,2.186.591.925.548,1.135,1.055,1.177,2.573,0,.169.042.295.042.379.042.17.042.212.336.338.252.168.463.464.463.717,0,.379-.294.549-1.051.549Zm4.204.042c-2.186,0-3.91-1.182-3.91-2.7,0-.801.378-1.687.967-2.235.631-.633,1.808-1.054,2.817-1.054s2.144.421,2.733,1.054c.421.422.631,1.055.631,1.772,0,1.73-1.471,3.164-3.237,3.164Zm7.189,0c-2.186,0-3.868-1.182-3.91-2.7,0-.801.378-1.687.967-2.235.631-.633,1.808-1.054,2.817-1.054s2.144.421,2.733,1.054c.421.422.631,1.055.631,1.772,0,1.688-1.471,3.164-3.237,3.164Zm10.721.169c-.505.169-1.261.337-1.64.254-.126,0-.21,0-.336-.043-.168-.042-.21-.085-.336-.211-.084-.127-.168-.169-.294-.169-.084,0-.21.042-.378.085-.463.126-.841.168-1.219.168-.757,0-1.556-.211-2.186-.549-.673-.38-1.009-.97-1.009-1.771,0-.76.336-1.434,1.177-2.279.967-.97,2.06-1.519,2.985-1.519.084,0,.126.043.21.043l.21.041h.042c.126,0,.21-.126.21-.422v-.548c0-.295-.042-.338-.294-.423l-.378-.126c-.294-.084-.589-.422-.589-.675,0-.21.168-.379.462-.464.505-.085,1.219-.211,1.429-.211.589,0,1.009.422,1.051,1.013l-.042.591-.084,4.767.042.716c.042.338.084.422.252.422l.252.043c.463.042.799.422.799.886,0,.211-.084.296-.336.38Zm9.376-3.417l-.336.043-2.27.379-.252.042c-.252.043-.336.295-.336.759,0,.253.042.379.294.464.294.127.378.169.504.296.168.126.252.38.252.549,0,.253-.252.464-.631.549-.547.169-1.471.253-2.144.253-.547,0-.883-.296-.883-.802,0-.254.168-.422.504-.506q.252-.084.336-.169c.042-.042.084-.254.084-.464l.042-4.008c0-.084-.042-.125-.042-.211-.042-.21-.042-.253-.336-.38-.42-.21-.757-.633-.757-.969,0-.211.126-.422.336-.507.252-.126,1.009-.169,2.354-.253l2.649-.127c.715-.042,1.135-.042,1.177-.042.252,0,.462.084.631.211.168.169.21.295.21.802v.253l-.042,1.055c0,.379-.21.632-.505.632-.252,0-.547-.169-.715-.38-.084-.085-.126-.21-.168-.296,0-.042-.042-.126-.084-.253-.084-.253-.126-.379-.126-.379-.042-.296-.084-.337-.336-.337-.168,0-.378.041-.673.084l-1.135.168c-.589.085-.715.212-.757.844l-.084,1.223v.042c0,.295.126.422.336.422h.042l.294-.042,1.808-.169h.336c.589,0,1.009.295,1.009.759,0,.212-.21.422-.589.464Zm4.625,3.248c-2.144,0-3.868-1.182-3.91-2.7,0-.801.378-1.687.967-2.235.631-.633,1.808-1.054,2.817-1.054s2.144.421,2.733,1.054c.42.422.631,1.055.631,1.772,0,1.688-1.471,3.164-3.237,3.164Zm7.189,0c-2.144,0-3.868-1.182-3.91-2.7,0-.801.378-1.687.967-2.235.631-.633,1.808-1.054,2.817-1.054s2.144.421,2.733,1.054c.42.422.631,1.055.631,1.772,0,1.688-1.472,3.164-3.237,3.164Zm10.763.169c-.547.169-1.303.337-1.682.254-.126,0-.21,0-.336-.043-.168-.042-.21-.085-.336-.211-.084-.127-.168-.169-.294-.169-.084,0-.21.042-.378.085-.463.126-.841.168-1.219.168-.757,0-1.556-.211-2.186-.549-.673-.38-1.009-.97-1.009-1.771,0-.76.336-1.434,1.177-2.279.967-.97,2.06-1.519,2.985-1.519.084,0,.126.043.21.043l.21.041h.042c.126,0,.21-.126.21-.422v-.548c0-.295-.042-.338-.294-.423l-.378-.126c-.294-.084-.589-.422-.589-.675,0-.21.21-.379.505-.464.505-.085,1.219-.211,1.43-.211.589,0,1.009.422,1.051,1.013l-.042.591-.084,4.767.042.716c.042.338.084.422.252.422l.252.043c.463.042.799.422.799.886,0,.211-.084.296-.336.38Zm14.379-3.29l-.673.126-.378.043c-.252.042-.294.084-.336.338,0,.084-.042.211-.084.38-.084.253-.126.337-.252.549-.042.084-.084.126-.084.169,0,.084.084.168.168.253l.463.295c.21.169.336.338.336.549,0,.337-.336.59-.715.59-.336,0-.757-.127-1.219-.337-.294-.127-.378-.169-.504-.169-.084,0-.168,0-.294.084l-.505.253c-.631.295-2.102.591-3.153.591-1.976,0-3.742-1.181-3.742-2.447,0-.21.042-.465.168-.716.252-.591.715-1.013,1.556-1.519l.294-.169c.126-.127.21-.211.21-.296,0-.042-.042-.169-.21-.38-.126-.17-.21-.295-.252-.422-.126-.295-.21-.674-.21-1.055,0-1.434,1.471-2.741,3.153-2.741.841,0,1.724.295,2.691.886.715.422,1.009.844,1.009,1.393,0,.211-.084.463-.21.674-.294.549-.673.844-1.892,1.519-.126.043-.336.169-.631.337-.336.169-.463.254-.463.337,0,.085.126.211.757.76.673.591.967.802,1.177.802.084,0,.126-.084.21-.169.126-.169.168-.296.168-.338,0-.085-.126-.127-.252-.127s-.252,0-.378.042h-.21c-.126,0-.21-.084-.336-.253-.126-.169-.168-.38-.168-.549,0-.338.042-.422.336-.422.126,0,.336-.042.673-.127.336-.042.883-.127,1.64-.211.631-.042,1.135-.085,1.429-.085.505,0,.925.043,1.135.127.252.084.462.422.462.676,0,.38-.378.717-.883.759Zm11.814-.718c-1.135.759-3.364,1.603-4.499,1.603-.252.042-.336.084-.336.294v.339c.042.169.084.169.294.253.21.043.463.254.631.507.084.168.126.295.126.422,0,.21-.126.337-.505.422-.378.085-.925.127-1.598.211-.21.042-.336.042-.42.042-.715,0-1.345-.464-1.345-1.013,0-.295.168-.422.589-.506.378-.042.462-.169.462-.675l.084-4.008v-.169c0-.338-.084-.422-.42-.548-.463-.17-.715-.464-.715-.929,0-.169.042-.337.126-.422.084-.085.336-.168.631-.211,1.135-.168,1.85-.254,2.565-.254,1.093,0,2.186.169,3.237.507,1.471.464,2.228,1.181,2.228,2.152,0,.632-.505,1.519-1.135,1.982Zm8.156,3.797h-.715c-.673,0-.967-.043-1.261-.254-.21-.126-.378-.38-.378-.548,0-.211.126-.338.462-.422.379-.127.421-.127.505-.211.042-.085.084-.211.084-.465,0-.337-.042-.886-.084-1.265-.084-.591-.378-.844-.925-.844-.294,0-.547.042-1.093.127-.841.168-1.009.338-1.009,1.054,0,.296,0,.591-.042.886v.169c0,.422,0,.464.336.632.294.169.462.422.462.718,0,.464-.631.717-1.808.717-.294,0-.504,0-.715-.042-.462-.084-.841-.464-.841-.844,0-.169.168-.338.462-.422.42-.085.463-.211.463-.675v-.38l.126-4.049v-.042c0-.338-.084-.422-.294-.506l-.294-.085c-.42-.126-.673-.464-.673-.759,0-.464.673-.717,1.724-.717.799,0,1.135.295,1.135,1.055v.507c-.042.422-.042.718-.042.843,0,.549.042.718.294.718h.21c.252-.042.505-.042.757-.042.841,0,1.513.168,2.186.591.925.548,1.135,1.055,1.177,2.573,0,.169.042.295.042.379.042.17.042.212.336.338.252.168.462.464.462.717,0,.379-.294.549-1.051.549Zm7.652,0c-.42.211-.967.38-1.387.38-.378,0-.715-.127-.841-.296l-.084-.169c-.042-.042-.084-.085-.168-.085h-.126l-.589.127c-.505.127-.841.169-1.303.169-1.261,0-2.228-.591-2.228-1.392,0-.38.21-.844.463-1.055.715-.633,2.06-1.181,3.195-1.35l.673-.084c.168,0,.168-.042.21-.169.042-.126.042-.211.042-.295,0-.38-.252-.633-.673-.633-.378,0-1.093.338-1.934.885-.42.296-.589.338-.883.423-.084.042-.168.042-.21.042-.336,0-.505-.211-.505-.59s.252-.675.841-1.097c.925-.634,1.682-.929,2.439-.929,1.556,0,2.481,1.054,2.481,2.826v.464l-.042.718-.042.38v.296c0,.084.084.169.21.211l.336.084c.252.085.463.38.463.676,0,.211-.084.338-.336.464Zm5.676-4.135c-.126.76-.547,1.308-.883,1.266-.378,0-.673-.38-.673-.928,0-.127,0-.253.042-.464v-.169c0-.126-.042-.168-.126-.168-.168,0-.505.38-.631.843-.21.717-.378,1.476-.378,1.856v.211c0,.084.042.127.042.169,0,.085.084.127.21.169.505.211.715.422.715.675,0,.169-.21.38-.42.464-.463.169-1.261.254-1.976.254-.673,0-1.219-.338-1.219-.76,0-.253.252-.506.589-.548.378-.043.463-.127.463-.759v-.085l-.042-1.941v-.169c0-.042-.042-.085-.042-.127-.042-.127-.084-.169-.252-.211-.378-.127-.715-.507-.715-.802,0-.337.589-.589,1.387-.589.673,0,1.009.125,1.093.421.084.169.126.254.21.254.042,0,.084-.042.168-.085.294-.21.799-.421,1.093-.421.126,0,.294.041.462.126.631.295.967.674.967,1.097,0,.126-.042.296-.084.422Zm9.754,4.345c-.799,0-1.303-.295-1.303-.717,0-.169.126-.338.294-.38l.294-.085c.252-.084.336-.295.336-1.013,0-1.434-.294-2.109-.883-2.109-.505,0-1.093.253-1.472.59-.21.169-.294.38-.294.633v.042l.042.802v.168c0,.337,0,.38.21.506l.21.127c.21.126.336.338.336.549,0,.464-.504.633-1.808.633-.505,0-.757-.042-.967-.127-.252-.126-.463-.337-.463-.549,0-.295.21-.464.547-.548.336-.085.378-.127.378-.549v-.465c0-.59-.084-1.096-.21-1.392-.126-.296-.505-.506-.925-.506-.757,0-1.345.464-1.345,1.097v1.434c0,.126.042.211.042.253.042.169.168.295.462.464.336.169.463.38.463.633,0,.126-.084.211-.168.296-.252.169-1.051.295-1.724.295h-.799c-.42,0-.715-.295-.715-.675,0-.254.084-.338.421-.506.168-.085.294-.127.336-.212.042-.084.084-.253.084-.379v-2.194c0-.296-.042-.421-.126-.506-.042-.042-.126-.084-.378-.169-.42-.169-.589-.295-.589-.59,0-.253.084-.38.336-.507.378-.168.925-.295,1.261-.295.252,0,.505.127.673.295l.21.211c.084.043.168.084.294.084.084,0,.168,0,.336-.042.168,0,.547-.043.925-.043.631,0,1.261.168,1.808.464.168.084.21.084.294.084s.168,0,.631-.211c.21-.126.378-.17.505-.211.252-.084.673-.127,1.009-.127,1.682,0,2.607.971,2.607,2.784v.76c0,.254.126.507.252.548l.294.127c.168.084.294.295.294.549,0,.464-.589.675-2.018.675Zm8.535-.211c-.42.211-.967.38-1.387.38-.336,0-.715-.127-.841-.296l-.084-.169c-.042-.042-.084-.085-.168-.085h-.126l-.589.127c-.505.127-.841.169-1.303.169-1.261,0-2.228-.591-2.228-1.392,0-.38.21-.844.463-1.055.715-.633,2.06-1.181,3.195-1.35l.673-.084c.168,0,.168-.042.21-.169.042-.126.042-.211.042-.295,0-.38-.252-.633-.673-.633-.378,0-1.093.338-1.934.885-.42.296-.589.338-.883.423-.084.042-.168.042-.21.042-.336,0-.505-.211-.505-.59s.252-.675.841-1.097c.925-.634,1.682-.929,2.438-.929,1.598,0,2.481,1.054,2.481,2.826v.464l-.042.718-.042.38v.296c0,.084.084.169.21.211l.336.084c.252.085.463.38.463.676,0,.211-.084.338-.336.464Zm6.307-5.568l-.168,1.308c-.126.759-.294,1.097-.631,1.097-.084,0-.168,0-.294-.085-.378-.168-.504-.379-.504-.886v-.211c0-.338-.168-.548-.505-.548-.589,0-1.598.633-2.144,1.308-.378.464-.673,1.139-.673,1.518,0,.253.21.549.463.634.21.042.589.084.967.084s.799-.042,1.219-.126c.252-.043.505-.127.673-.211.042,0,.294-.127.631-.295.252-.085.336-.126.42-.126.294,0,.505.211.505.505,0,.423-.252.718-.841,1.055-.799.464-1.556.675-2.27.675-1.808,0-3.111-1.139-3.111-2.657,0-1.098.715-2.321,1.724-3.037.631-.422,1.429-.718,2.018-.718.294,0,.589.043.757.127l.21.126c.042.043.084.043.126.043s.084-.043.168-.127c.168-.169.294-.254.42-.254.084,0,.168.044.294.085.336.169.547.422.547.675v.043Zm7.315,1.645c-.252.085-.294.127-.252.169-.084.127-.168.212-.378.76l-.21.422-1.387,3.121c-.042.085-.084.211-.168.338-.21.38-.378.718-.547.97-.462.802-1.135,1.224-1.934,1.224-.21,0-.547-.042-.799-.084-.925-.211-1.345-.549-1.345-1.055,0-.296.21-.506.505-.506.042,0,.126.042.21.042.168,0,.168.043.547.212.336.169.462.211.673.211.168,0,.336-.042.463-.127.126-.042.252-.168.378-.338.168-.211.294-.506.294-.675,0-.042,0-.084-.042-.169-.042-.084-.042-.125-.084-.169,0-.042-.042-.085-.084-.211l-1.682-3.332c0-.042-.042-.085-.084-.169-.084-.211-.168-.337-.252-.464-.126-.169-.168-.169-.631-.295-.336-.127-.504-.296-.504-.759,0-.338.126-.464.547-.507.168,0,.294-.043.336-.043l.336-.084c.126-.042.294-.042.547-.042.967,0,1.598.337,1.598.844,0,.127-.084.253-.336.337-.21.127-.294.212-.294.337,0,.128,0,.254.084.38l.252.422.757,1.434.126.253c.084.211.168.295.252.295s.126-.042.252-.253l.084-.17.084-.211.631-1.477.084-.252.084-.212v-.042c0-.211-.042-.295-.336-.549-.126-.169-.168-.211-.168-.38,0-.127.042-.254.126-.338.168-.168.462-.252,1.177-.252h.21l.757.042c.757,0,1.093.169,1.093.548,0,.295-.336.591-.967.802ZM18.136,31.158c2.102,1.182,4.12,1.814,5.171,1.772,1.093-.042,1.934-.254,2.27-1.097.336-.844.294-1.392-.084-2.953-.378-1.603-1.303-3.206-2.102-4.218-.799-1.055-1.429-1.519-2.06-1.983-.508-.374-1.202-.608-1.564-.708.485-.548,1.135-1.223,1.564-1.654.589-.549.841-.717.841-.717,0,0,.168.633.673,1.561.463.886,1.934,3.164,3.742,4.134,1.808.97,3.111.97,3.784.928.715-.042,2.439-.338,3.784-1.434,1.388-1.097,2.228-2.067,2.985-3.079.757-1.013,1.934-2.742,2.438-3.543.505-.802.757-1.098.757-1.098v-.252s-.126-.253-.505-1.055c-.42-.802-.631-1.308-1.303-2.152-.673-.885-1.598-1.94-2.523-2.488-.883-.549-2.27-1.182-3.784-1.013-1.513.169-2.48.506-3.658,1.181-.658.377-1.402.948-1.987,1.427.25-.612.472-1.4.557-2.397.126-1.603-.084-2.152-.378-3.248-.336-1.14-1.051-2.109-1.892-2.743-.883-.633-2.102-.674-2.859-.591-.883.127-2.186.759-2.943,1.519-.757.76-.841.886-.841.886-.084-.084-.336-.296-.294-.971.084-1.055.126-1.307.378-2.024.21-.633.462-1.181.505-1.35.042-.17-.084-.254-.252-.296-.168-.085-.42-.043-.42-.043-.336.211-.673.632-.883,1.519-.252.886-.252.759-.336,1.772-.084,1.012-.168,1.308-.084,1.771.084.464.21.886.505,1.224.252.336.462.548.925.464.463-.084.631-.169,1.009-.591.378-.422,1.009-1.097,1.598-1.561.631-.464,1.429-.676,2.06-.549.631.168,1.219.591,1.556,1.012.336.422.715,1.308.841,2.194.084.886.21,2.109.042,3.164-.168,1.013-.168,1.35-.42,2.109-.157.473-.428,1.043-.61,1.407-.194.34-.347.641-.399.745-.084.169-.042.253-.042.253h.168s.631-.717,1.429-1.434c.799-.717,1.219-1.012,2.228-1.646.42-.252,1.093-.675,2.144-1.054,1.556-.505,2.565-.505,3.826-.254,1.43.296,3.195,1.435,4.541,3.375,1.009,1.435,1.135,1.815,1.135,1.815,0,0-.631.633-1.471,1.518-.967,1.013-2.27,2.405-3.405,3.417-.757.675-2.228,1.856-4.33,2.067-1.051.127-2.102,0-3.406-.422-1.009-.338-2.018-1.139-2.439-1.518-.631-.591-1.219-1.519-1.345-1.941-.378-1.265-.757-1.265-.757-1.265,0,0-.841.083-2.102,1.308-1.051,1.012-2.018,1.856-2.018,1.856,0,0,.504-1.055,1.009-2.784.504-1.73.547-2.194.715-3.164.168-.971.378-1.899.378-1.899l.547.844s.631.801,1.051,1.139c.421.337.883.549,1.093.632.21-.126.378-.126.42-.21.042-.085-.294-.506-.547-.802-.252-.295-1.093-1.266-1.303-1.73-.21-.464-.504-2.151-.631-2.784-.126-.633-.379-1.308-.631-1.35-.294-.084-.631.042-.757.421-.126.38-.462,2.152-.547,3.798-.126,1.603-.252,3.332-.378,4.219-.02.143-.05.287-.073.429-.325-.165-.904-.402-1.609-.429-1.724-.084-3.616.759-4.499,1.012-1.598.423-1.766-.211-1.766-.506.042-.844,1.093-1.308,1.808-1.224.883.084,2.565.506,3.069.506.462,0,1.051,0,1.219-.464.168-.464-.084-1.054-.673-1.603-.631-.549-1.724-1.35-2.649-1.519-2.439-.465-4.415.084-6.517.844-1.009.337-1.303.085-1.219-.379.084-.507.589-.971,1.598-1.308,1.261-.422,1.682-.38,2.186-.38s1.135.169,1.177.169.084-.085.084-.211c-.084,0-.168-.127-.168-.127-.21-.084-1.387-.549-2.607-.38-1.219.169-2.06.591-2.691,1.055-.631.464-.925,1.055-.967,1.477-.042.421.042.97.589,1.139.547.211.715.253.967.169.252-.043.799-.338,1.682-.634.883-.253,1.85-.548,3.195-.633,1.261-.042,2.27.085,3.237.549.967.465,1.471.802,1.598,1.055.168.253.252.506-.084.675-.21.084-.336.084-.547,0-.925-.296-2.018-.591-3.237-.422-1.345.169-1.934.591-2.186.886-.252.295-.505.844-.252,1.308.252.464.547.633,1.051.717.504.043,1.345.043,2.27-.211.925-.253,2.102-.549,2.943-.674.799-.085,1.177-.043,1.555,0,.421.084.799.168,1.051.337.107.072.179.109.232.132-.054.27-.126.548-.193.823-.124-.012-.335-.028-.669-.028-.715,0-1.387.338-1.724.802-.336.464-.504.886-.336,1.308.168.422.505.549.883.591.315.035.644.013.751.004-.026.039-.051.085-.078.122-.42.633-.883.971-.925,1.435-.042.464.042.717.252.717s.42-.169.925-.675c.45-.489,1.431-1.611,1.967-2.268.287-.031.64,0,.808.033.21.042,1.219.591,2.144,1.519.925.885,1.219,1.391,1.682,2.235.42.802,1.093,2.699.883,3.628-.168.801-.547,1.308-1.135,1.561-.378.168-1.093.041-1.892-.295-.799-.338-2.649-1.477-3.826-2.195-1.135-.717-4.919-3.416-6.853-4.978-1.934-1.561-3.49-2.91-5.339-4.851-1.85-1.941-2.817-3.248-3.532-4.471-.715-1.224-1.135-2.573-.631-3.459.505-.886,1.219-1.054,1.808-1.054s1.85.169,3.574.886c1.724.717,2.523,1.097,2.733,1.097.168-.041.252-.169.21-.253-.084-.085-.378-.464-1.219-.971-.841-.506-3.574-2.025-5.087-2.152-1.514-.084-2.354.211-2.649.423-.252.211-.925.97-.799,2.446.126,1.477.336,2.531,1.177,3.965.841,1.434,1.219,1.941,2.859,3.712,1.64,1.772,3.279,3.543,6.475,6.328,3.195,2.784,5.508,4.05,7.61,5.273Zm-.539-8.883c-.253.14-.655.335-.974.362-.505.084-.799-.421-.505-.928.336-.59.967-.548,1.261-.548.176,0,.402.088.564.161-.099.334-.217.652-.346.954Zm-5.977-9.088c.715.885,1.219,1.096,1.43,1.096.336,0,.252-.169.252-.337,0-.548-.378-.718-.841-1.941-.462-1.181-.757-2.868-.084-3.966.421-.633.967-1.139,2.354-1.055.673,0,1.177.211,1.387.337.252.127.42.296.505.38.084.043.252,0,.252,0,0,0-.336-.591-.841-1.013-.463-.464-1.387-1.054-2.354-1.012-.967.043-1.724.253-2.439,1.224-.715.97-1.093,1.94-.883,3.543.21,1.561.547,1.856,1.261,2.742Zm145.301,31.132l-.673-.506c-.757-.591-.883-.675-1.009-.675-.168,0-.631.253-1.051.549-.504.338-.799.717-.799,1.012,0,.422.589.675,1.471.675.252,0,.462-.042.715-.084.21-.043.42-.085.631-.127.547-.169,1.051-.422,1.051-.548,0,0,0-.043-.042-.084-.084-.085-.168-.127-.294-.211Zm-11.688-2.531c-.378,0-1.009.421-1.682,1.055-.673.675-1.177,1.434-1.177,1.856,0,.379.504.591,1.303.591.42,0,.841-.043,1.303-.212.252-.084.463-.211.547-.295.168-.169.252-.549.252-1.097,0-.76,0-1.266-.084-1.477-.084-.252-.252-.379-.463-.421Zm-46.542-.548l-.042.042c-1.303.042-2.397,1.139-2.397,2.363,0,.843.715,1.476,1.682,1.476,1.261,0,2.186-1.013,2.186-2.363,0-.886-.631-1.518-1.429-1.518Zm7.189,0l-.042.042c-1.303.042-2.396,1.139-2.396,2.363,0,.843.715,1.476,1.682,1.476,1.261,0,2.186-1.013,2.186-2.363,0-.886-.631-1.518-1.43-1.518Zm7.4.506c-.378,0-1.009.422-1.682,1.055-.715.675-1.177,1.434-1.177,1.856,0,.38.505.591,1.303.591.42,0,.841-.042,1.303-.211.252-.084.463-.211.547-.294.168-.17.252-.549.252-1.097,0-.718,0-1.224-.084-1.435-.042-.252-.252-.379-.462-.464Zm42.337-.929c.042,0,.126-.042.21-.084l.967-.505c.967-.507,1.471-1.013,1.471-1.393,0-.338-.504-.591-1.093-.591-.336,0-.715.084-1.009.169-.673.253-1.219.886-1.219,1.349,0,.17.084.38.126.549.126.253.378.505.547.505Zm-17.826.423l-.042.042c-1.303.042-2.396,1.139-2.396,2.363,0,.843.715,1.476,1.682,1.476,1.261,0,2.186-1.013,2.186-2.363,0-.886-.631-1.518-1.429-1.518Zm-80.975.169h-.042c-.336,0-1.093.507-1.724,1.139-.631.633-1.135,1.561-1.135,2.109,0,.338.336.507,1.009.507.505,0,1.261-.169,1.892-.422.21-.127.378-.211.505-.338.126-.127.168-.296.168-.844v-.633c0-.97-.252-1.477-.673-1.519Zm-9.922-.085c-.336,0-.925.296-1.64.76-.336.211-.589.549-.589.674,0,.043.042.084.126.084s.168,0,.336-.042l1.471-.169c.252,0,.505-.127.589-.212.042-.042.084-.211.084-.464,0-.465-.084-.633-.378-.633Zm25.184.422c-.294,0-.589,0-.967.169-.547.126-.715.253-.715.632v1.266c0,.844.042.886.378.886.505,0,1.556-.422,2.312-.886.589-.38,1.009-.886,1.009-1.223,0-.506-.883-.844-2.018-.844Zm7.4-.506l-.042.042c-1.303.042-2.396,1.139-2.396,2.363,0,.843.715,1.476,1.682,1.476,1.261,0,2.186-1.013,2.186-2.363,0-.886-.631-1.518-1.429-1.518Zm92.369-1.983c-.463,0-1.261.085-1.64.211-.252.084-.294.126-.336.548l-.126,1.476v.465c0,.506.042.548.252.548h.042c.336,0,.673-.042.967-.084.631-.126,1.219-.38,1.808-.759.631-.422,1.093-.97,1.093-1.35,0-.549-1.009-1.055-2.06-1.055Zm15.934,4.851c-.168,0-.504.043-.799.169-.883.254-1.345.465-1.345.633,0,.042.126.084.378.084h.294c.378,0,.799-.042,1.261-.211.336-.127.547-.253.547-.422s-.126-.253-.336-.253Zm-57.179-2.868l-.042.042c-1.303.042-2.396,1.139-2.396,2.363,0,.843.715,1.476,1.682,1.476,1.261,0,2.186-1.013,2.186-2.363,0-.886-.631-1.518-1.43-1.518Zm104.687-14.681c-.883.126-1.556.718-1.556,1.434,0,1.139,1.387,2.025,3.195,2.025,1.892,0,3.952-.253,5.129-.674.589-.212,1.051-.718,1.051-1.266,0-.633-.589-1.181-1.892-1.729-.378-.127-.504-.254-.589-.422-.042-.084-.084-.253-.084-.422-.042-.253-.042-.422-.042-.548,0-1.055.42-3.037,1.009-4.852.378-1.181,1.177-2.194,1.682-2.194.252,0,.378.127.378.422,0,.084-.042.253-.042.464-.084.548-.126.928-.126,1.265,0,1.477.715,2.447,1.808,2.447,1.009-.042,2.06-1.519,2.523-3.458.084-.38.168-.802.168-1.14,0-1.139-.883-2.151-2.565-2.869-.462-.211-.883-.294-1.261-.294-.799,0-2.06.506-2.859,1.139-.168.126-.294.21-.42.21-.252,0-.378-.169-.547-.633-.252-.76-1.135-1.097-2.859-1.097-2.06,0-3.616.675-3.616,1.561,0,.759.883,1.814,1.892,2.109.42.169.589.253.673.507.042.084.084.211.084.295v.464l.084,5.062v.168c0,1.604-.21,1.899-1.219,2.025Zm11.057,1.519c.21-.084.421-.253.421-.506,0-.211-.084-.338-.21-.422-.126-.085-.336-.168-.673-.168-.252,0-.42.042-.589.042v2.109h.336v-.971h.252c.252,0,.42.085.462.38.042.295.084.465.126.549h.336c-.042-.084-.084-.211-.126-.506-.042-.296-.168-.464-.336-.507Zm-.462-.126h-.252v-.759h.252c.378,0,.505.168.505.379,0,.253-.252.38-.505.38Zm-42.127-8.184c.252.043.462.084.715.084.589.043.715.169.715.759,0,.295-.042.759-.084,1.35-.042.254-.042.422-.042.633,0,1.519.126,3.206.378,4.219.21.8.589,1.476,1.051,1.94.883.802,2.523,1.393,3.826,1.393,1.177,0,2.396-.379,3.49-1.139,1.219-.802,1.892-1.73,1.892-2.532,0-.717-.673-1.308-1.43-1.308-.336,0-.589.127-1.303.591-1.051.675-1.892,1.012-2.354,1.012-.883,0-1.303-.591-1.303-2.067,0-.507.042-1.055.084-1.604l.294-2.826c.084-.802.168-.886.925-1.055l.589-.085c.252-.042.589-.084.967-.126,2.06-.253,2.901-.718,2.901-1.561,0-.38-.294-.885-.715-1.392-.589-.591-.883-.718-2.186-.718h-.589c-.252.042-.463.042-.631.042-.631,0-.967-.252-.967-.801,0-.169.042-.507.084-.971.084-.421.084-1.055.084-1.392,0-1.097-1.219-1.983-2.859-1.983-1.219,0-1.556.886-1.724,4.219-.084,1.055-.378,1.476-1.009,1.561l-.967-.042c-1.345.085-2.186.591-2.186,1.35,0,1.096,1.093,2.235,2.354,2.446Zm17.868,10.884c.841.253,1.556.337,2.354.337,1.682,0,4.33-.59,6.349-1.476.883-.422,1.598-.886,2.018-1.519.168-.253.294-.76.294-1.097,0-.885-.589-1.561-1.345-1.561-.21,0-.589.084-.883.21l-2.186.887c-1.471.59-3.616.97-5.297.97-1.892,0-2.733-.506-2.733-1.645,0-.507.21-.717.841-.802l6.937-.928.925-.084c.589-.086.883-.086.925-.127h.757c1.345-.084,1.85-.591,2.102-2.068.126-.843.252-1.729.252-2.362,0-1.645-.336-2.362-1.64-3.586-1.598-1.434-2.691-1.898-4.331-1.898-2.733,0-5.676,1.392-7.862,3.586-2.018,2.067-2.733,3.754-2.733,6.244,0,3.543,1.808,5.905,5.255,6.918Zm1.808-11.432c1.808-1.308,3.363-2.067,4.246-2.067.757,0,1.051.464,1.051,1.688,0,.717-.084,1.055-.252,1.265-.252.254-.925.549-1.555.591l-3.868.464c-.42.084-.673.084-.841.084-.21,0-.336-.084-.336-.254,0-.379.715-1.223,1.556-1.771Zm22.577,6.876c-1.051,0-1.892.844-1.892,1.898s.841,1.898,1.892,1.898,1.892-.844,1.892-1.898c-.042-1.054-.841-1.898-1.892-1.898Zm0,3.502c-.841,0-1.514-.717-1.514-1.603s.673-1.603,1.514-1.603,1.514.717,1.514,1.603-.673,1.603-1.514,1.603Zm-160.646-2.995c-.883.127-1.556.759-1.556,1.435,0,1.139,1.387,2.024,3.195,2.024,1.892,0,3.952-.253,5.129-.674.589-.211,1.051-.718,1.051-1.266,0-.633-.589-1.181-1.892-1.73-.378-.126-.505-.253-.589-.422-.042-.085-.084-.254-.084-.423-.042-.253-.042-.422-.042-.549,0-1.054.42-3.037,1.009-4.85.378-1.182,1.177-2.194,1.682-2.194.252,0,.378.127.378.422,0,.085-.042.254-.042.465-.084.548-.126.928-.126,1.265,0,1.477.715,2.447,1.808,2.447,1.009-.084,2.06-1.561,2.522-3.501.084-.38.168-.802.168-1.14,0-1.139-.883-2.151-2.565-2.869-.463-.211-.883-.294-1.261-.294-.799,0-2.06.506-2.859,1.139-.168.126-.294.21-.42.21-.252,0-.378-.169-.547-.633-.252-.76-1.135-1.097-2.859-1.097-2.06,0-3.616.675-3.616,1.561,0,.759.883,1.814,1.892,2.109.42.169.589.253.673.507.042.084.084.211.084.295v.464l.084,5.062v.168c0,1.604-.21,1.899-1.219,2.068Zm14.715,0c-.883.127-1.556.717-1.556,1.435,0,1.139,1.387,2.024,3.195,2.024,1.892,0,3.952-.253,5.129-.674.589-.211,1.051-.718,1.051-1.266,0-.633-.589-1.181-1.892-1.73-.378-.126-.505-.253-.589-.422-.042-.085-.084-.254-.084-.423-.042-.253-.042-.422-.042-.549,0-1.054.42-3.037,1.009-4.85.378-1.182,1.177-2.194,1.682-2.194.252,0,.378.127.378.422,0,.085-.042.254-.042.465-.084.548-.126.928-.126,1.265,0,1.477.715,2.447,1.808,2.447,1.009-.084,2.102-1.561,2.523-3.501.084-.38.168-.802.168-1.14,0-1.139-.883-2.151-2.565-2.869-.462-.211-.883-.294-1.261-.294-.799,0-2.06.506-2.859,1.139-.168.126-.294.21-.42.21-.252,0-.378-.169-.547-.633-.252-.76-1.135-1.097-2.859-1.097-2.06,0-3.616.675-3.616,1.561,0,.759.883,1.814,1.892,2.109.42.169.547.253.673.507.042.084.084.211.084.295v.464l.084,5.062v.168c0,1.604-.21,1.899-1.219,2.068Zm14.799-7.256l.715.254c.42.127.589.464.589,1.181v.422l-.084,3.416c-.042,1.308-.252,1.688-1.135,1.899-.841.211-1.303.633-1.303,1.265,0,.675.589,1.519,1.261,1.814.421.169.967.253,1.934.253h.21l1.808-.084c3.027-.042,3.742-.338,3.742-1.477,0-.717-.589-1.518-1.429-1.898-.294-.126-.463-.253-.589-.253-.168-.085-.252-.254-.336-.38-.042-.127-.084-.254-.084-.422,0-.718.042-1.603.084-2.742.084-1.055.084-2.025.126-2.869.042-1.139.084-1.561.126-1.983,0-.211.042-.338.042-.422,0-1.055-1.135-1.73-2.985-1.73-2.396,0-4.331.844-4.331,1.898,0,.675.715,1.519,1.64,1.856Zm-71.81,5.738l-.042.633c0,.928-.378,1.308-1.556,1.561-.799.169-1.051.422-1.051,1.012,0,1.182.715,1.815,2.27,2.067.883.127,1.598.211,2.439.211,3.363,0,4.835-.591,4.835-1.94,0-.759-.462-1.35-1.345-1.73-.841-.337-1.051-.506-1.177-.885-.126-.296-.168-.675-.168-1.139,0-1.308.378-1.941,1.303-2.236.967-.295,3.069-.506,5.255-.548l2.354-.042c.967,0,1.177.211,1.219,1.224l.042,1.687c0,.717-.252,1.055-1.051,1.35-1.135.379-1.556.717-1.556,1.266,0,.422.252,1.139.589,1.561.42.591,1.009.928,1.64.928,2.775,0,5.802-.464,6.517-.97.294-.254.504-.718.504-1.139,0-.591-.42-1.308-.883-1.561l-.883-.422c-.42-.211-.589-.549-.589-1.224v-.421l.084-.802.799-11.094.042-.633c.042-.548.336-1.012.757-1.223l.378-.169c.799-.379,1.135-.802,1.261-1.35,0-.507-.21-1.055-.589-1.561-.463-.633-1.051-.886-2.102-.886-1.64,0-4.246.296-5.592.633-.378.084-.673.253-.883.464-.21.254-.336.633-.336,1.013s.126.759.463,1.181c.378.507.462.549,1.514,1.055.505.253.631.464.631.928,0,.084,0,.338-.042.633l-.252,4.26c0,1.013-.126,1.181-.547,1.265-.168.042-.547.042-1.135.127l-1.598.085h-1.261c-.462.042-1.429.084-2.985.211-.547.042-1.093.084-1.598.084h-.084c-.715,0-.967-.338-.967-1.308v-.337l.336-4.346c.042-.168.042-.337.042-.421,0-.212.126-.422.252-.549.126-.084.294-.21.547-.295,1.345-.506,1.934-1.013,1.934-1.73,0-1.308-1.43-2.278-3.406-2.278-2.733,0-5.55.506-6.348,1.224-.252.211-.42.548-.42.928,0,.674.589,1.307,1.892,2.067.673.38.757.591.757,1.519v.59l-.21,11.475Zm23.754-4.388c.126,0,.336-.042.547-.084.799-.169,1.219-.38,2.27-1.096,2.186-1.477,4.036-2.363,5.087-2.363,1.093,0,1.724.633,1.724,1.688,0,.169-.042.422-.084.759-.084.38-.126.422-.589.464l-1.766.254c-2.943.422-6.559,1.899-8.409,3.501-.673.591-1.177,1.729-1.177,2.742,0,2.067,2.565,3.67,5.844,3.67,1.177,0,2.102-.084,3.448-.421l1.556-.38c.126-.042.252-.042.378-.042.252,0,.378.084.463.211l.252.422c.294.422,1.261.759,2.186.759s2.48-.295,3.531-.886c.631-.337.883-.717.883-1.181,0-.802-.547-1.561-1.177-1.772l-.925-.254c-.378-.126-.589-.295-.589-.591,0-.211.042-.464.042-.759l.084-1.012.126-1.899c.042-.421.042-.759.042-1.181,0-4.682-2.354-7.382-6.475-7.382-2.018,0-3.994.717-6.391,2.446-1.556,1.097-2.186,1.899-2.186,2.869s.462,1.519,1.303,1.519Zm8.03,5.484c-1.219.422-2.354.591-3.321.591h-.799c-.673,0-.967-.085-.967-.253,0-.422,1.219-1.013,3.49-1.73.757-.169,1.682-.338,2.186-.338.589,0,.841.212.841.675,0,.422-.504.759-1.43,1.055Zm41.959-13.626c.631.507,1.345.759,1.934.759.673-.042,1.387-.717,1.85-1.687.126-.294.21-.632.21-.97,0-.675-.252-1.308-.715-1.772-.336-.338-.757-.591-1.261-.718-.336-.085-.589-.169-.715-.169-1.303,0-2.27,1.223-2.27,2.868,0,.717.252,1.139.967,1.687Zm72.692,18.098c.841.253,1.556.337,2.354.337,1.682,0,4.33-.59,6.349-1.476.883-.422,1.598-.886,2.018-1.519.168-.253.294-.76.294-1.097,0-.885-.589-1.561-1.345-1.561-.21,0-.589.084-.883.21l-2.186.887c-1.471.59-3.616.97-5.297.97-1.892,0-2.733-.506-2.733-1.645,0-.507.21-.717.841-.802l6.937-.928.925-.084c.589-.086.883-.086.925-.127h.757c1.345-.084,1.85-.591,2.102-2.068.126-.843.252-1.729.252-2.362,0-1.645-.336-2.362-1.64-3.586-1.598-1.434-2.691-1.898-4.33-1.898-2.733,0-5.676,1.392-7.862,3.586-2.018,2.067-2.733,3.754-2.733,6.244,0,3.543,1.808,5.905,5.255,6.918Zm1.808-11.432c1.808-1.308,3.363-2.067,4.246-2.067.757,0,1.051.464,1.051,1.688,0,.717-.084,1.055-.252,1.265-.252.254-.925.549-1.556.591l-3.868.464c-.42.084-.673.084-.841.084-.21,0-.336-.084-.336-.254,0-.379.715-1.223,1.556-1.771Zm-40.403-2.657c.925,0,1.724-1.055,1.892-2.616l.126-.928c.084-.886.421-1.224,1.303-1.393.463-.084.967-.126,1.219-.126.673,0,1.093.254,1.177.633,0,.084.042.295.042.675v.591l-.42,11.01c0,.169-.042.421-.042.717,0,.759-.084,1.055-.168,1.224-.168.211-.589.422-1.345.591-1.177.294-1.556.59-1.556,1.265,0,1.477,1.471,2.362,3.91,2.362,1.64,0,3.616-.211,6.012-.59.547-.085.967-.253,1.135-.465.084-.084.21-.464.21-.801,0-1.139-.715-1.983-2.144-2.362-.841-.254-1.177-.465-1.261-.886-.084-.169-.084-.422-.084-.886v-.127l.336-7.551c.084-2.193.252-3.671.42-4.346.252-.843,1.009-1.392,1.85-1.392.757,0,1.093.253,1.219,1.055l.126.591.126.76c.21,1.054.463,1.561,1.177,2.067.463.337.925.506,1.43.506.42,0,.757-.083.967-.252.294-.254.505-.591.547-.971.042-.338.084-1.392.084-3.08l.126-2.531c0-1.56-.967-2.362-2.775-2.362-.252,0-.799.042-1.556.084l-11.982.718-1.177.042c-1.387.084-2.06.549-2.354,1.73-.294,1.223-.547,3.29-.547,4.851,0,1.224.883,2.194,1.976,2.194Zm21.19,14.09c.841.253,1.556.337,2.354.337,1.682,0,4.33-.59,6.348-1.476.883-.422,1.598-.886,2.018-1.519.168-.253.294-.76.294-1.097,0-.885-.589-1.561-1.345-1.561-.21,0-.589.084-.883.21l-2.186.887c-1.472.59-3.616.97-5.297.97-1.892,0-2.733-.506-2.733-1.645,0-.507.21-.717.841-.802l6.937-.928.925-.084c.547-.086.883-.086.925-.127h.757c1.303-.084,1.85-.591,2.102-2.068.126-.843.252-1.729.252-2.362,0-1.645-.336-2.362-1.64-3.586-1.598-1.434-2.691-1.898-4.33-1.898-2.733,0-5.676,1.392-7.862,3.586-2.018,2.067-2.733,3.754-2.733,6.244,0,3.543,1.808,5.905,5.255,6.918Zm1.766-11.432c1.808-1.308,3.406-2.067,4.246-2.067.757,0,1.051.464,1.051,1.688,0,.717-.084,1.055-.252,1.265-.252.254-.925.549-1.556.591l-3.868.464c-.421.084-.673.084-.841.084-.21,0-.336-.084-.336-.254,0-.379.715-1.223,1.555-1.771Zm-48.013,9.492c2.691.97,4.751,1.392,6.937,1.392,3.027,0,4.961-.844,6.222-2.7.294-.421.42-.801.42-1.139,0-.928-.841-1.73-2.817-2.7-2.06-1.055-3.826-1.772-5.424-2.278-1.388-.422-2.102-.886-2.102-1.224,0-.675,1.976-1.898,4.12-2.573.421-.127.841-.211,1.051-.211.799,0,1.051.38,1.051,1.476v.169c0,.127,0,.296.042.464.042.464.042.802.084,1.012.084.254.21.549.378.802.252.506.799.886,1.261.886,1.387,0,2.312-1.94,2.312-5.021,0-1.602-1.051-3.037-2.186-3.037-.252,0-.589.127-.757.296l-.294.295c-.126.085-.252.127-.42.127-.252,0-.589-.085-1.051-.253-.589-.211-.883-.295-1.051-.337-.42-.127-.883-.211-1.429-.211-1.766,0-3.616.759-5.55,2.32-1.514,1.223-2.396,2.531-2.396,3.459,0,.295.084.716.336,1.224.294.674.589,1.181.883,1.434.589.591,1.303.928,3.91,1.941l2.523,1.055c.883.337,1.387.633,1.387.886,0,.21-.294.337-.715.337-.883,0-2.354-.127-3.49-.337-.505-.085-1.177-.253-1.934-.422-1.471-.38-2.144-.506-2.523-.506-.799,0-1.387.548-1.387,1.223,0,.886.673,1.434,2.607,2.152Z"/>
  </g>
</svg>