<?xml version="1.0" encoding="UTF-8"?>
<svg id="Layer_2" data-name="Layer 2" xmlns="http://www.w3.org/2000/svg" width="135.376" height="27.224" viewBox="0 0 135.376 27.224">
  <defs>
    <style>
      .cls-1 {
        fill: #fff;
      }
    </style>
  </defs>
  <g id="Layer_1-2" data-name="Layer 1">
    <path class="cls-1" d="m69.497,15.754c0,6.624,5.493,11.47,12.471,11.47s12.476-4.846,12.476-11.47V.534h-6.757v14.435c0,3.576-2.48,5.983-5.738,5.983s-5.738-2.395-5.738-5.983V.534h-6.756l.042,15.22Zm42.999-9.129h8.062v20.096h6.756V6.625h8.062V.522h-22.88v6.103Zm-4.366-6.103h-6.756v26.199h6.756V.522ZM42.202,6.625h8.062v20.096h6.756V6.625h8.056V.522h-22.874v6.103ZM6.756.522H0v26.199h6.756V.522Zm31.888,10.943c0-6.623-5.492-11.465-12.476-11.465s-12.476,4.841-12.476,11.465v15.256h6.756v-14.436c0-3.575,2.48-5.983,5.738-5.983s5.738,2.396,5.738,5.983v14.436h6.756l-.042-15.256h.006Z"/>
  </g>
</svg>