<?xml version="1.0" encoding="UTF-8"?>
<svg id="Layer_2" data-name="Layer 2" xmlns="http://www.w3.org/2000/svg" width="126.975" height="35.312" viewBox="0 0 126.975 35.312">
  <defs>
    <style>
      .cls-1 {
        fill: #fff;
      }
    </style>
  </defs>
  <g id="Layer_1-2" data-name="Layer 1">
    <path class="cls-1" d="m50.437,13.224c3.652,0,6.612-2.961,6.612-6.612s-2.961-6.612-6.612-6.612-6.612,2.961-6.612,6.612,2.96,6.612,6.612,6.612Zm-37.915,1.477H0v20.61h5.909v-16.179h5.135c1.196,0,2.181.984,2.181,2.181v13.998h5.909v-13.998c0-3.658-2.954-6.612-6.612-6.612Zm58.878-7.387h-5.909v7.387h-2.602l-3.306,4.432h5.909v9.567c0,3.658,2.955,6.612,6.612,6.612h5.135v-2.462l.07-1.97h-3.869c-1.126-.07-2.04-1.055-2.04-2.18v-9.567h5.909v-4.432h-5.909v-7.387Zm-9.848,7.387h-6.683l-4.361,5.909-4.432-5.909h-6.682l7.738,10.271-7.738,10.339h6.682l4.432-5.908,4.361,5.908h6.683l-7.738-10.339,7.738-10.271Zm40.799,0l-5.135,13.154-5.135-13.154h-5.909l8.089,20.61h5.909l8.09-20.61h-5.909Zm-23.565,20.61h5.909V14.702h-5.909v20.61Zm0-22.087h5.909v-5.909h-5.909v5.909ZM30.951,30.88c-1.829,0-3.447-1.547-4.08-3.657h14.21c.141-.704.211-1.477.211-2.18-.07-5.769-4.643-10.341-10.341-10.341s-10.341,4.643-10.341,10.341,4.643,10.269,10.341,10.269h6.964l3.306-4.432h-10.27Zm0-11.747c1.829,0,3.447,1.547,4.08,3.658h-8.23c.703-2.181,2.251-3.658,4.151-3.658Zm89.547-4.432h-10.763l-1.758,4.432h10.974c1.196,0,2.181.984,2.181,2.181v1.477h-8.863c-3.306.211-5.909,2.884-5.909,6.26s2.603,6.05,5.909,6.26h14.702v-13.998c.14-3.658-2.814-6.612-6.472-6.612Zm.703,16.178h-7.034c-.141,0-.211,0-.281-.07-.844-.141-1.477-.914-1.477-1.829,0-.773.563-1.547,1.477-1.758.141,0,.211,0,.281-.07h7.034v3.727Z"/>
  </g>
</svg>