<?xml version="1.0" encoding="UTF-8"?>
<svg id="Layer_2" data-name="Layer 2" xmlns="http://www.w3.org/2000/svg" width="207.013" height="53.693" viewBox="0 0 207.013 53.693">
  <defs>
    <style>
      .cls-1 {
        fill: #fff;
      }
    </style>
  </defs>
  <g id="Layer_1-2" data-name="Layer 1">
    <path class="cls-1" d="m38.878,32.147l-.035-.589c-.146-1.96-.652-4.28-1.504-6.896v-.002c-1.006-3.085-2.498-6.622-4.434-10.512-2.233-4.484-4.238-7.795-4.317-7.927l-.198-.331C27.288,4.025,24.52-.45,20.293.037c-1.132.138-2.24.617-3.291,1.429-1.614,1.242-2.852,3.039-3.846,4.625l-.908,1.448c-.989,1.603-2.96,4.887-4.99,8.779-.29.466-.531.952-.743,1.443-.005.011-.014.017-.019.026-2.249,4.43-3.946,8.406-5.042,11.818-.411,1.278-.738,2.485-.974,3.586-.158.734-.281,1.445-.365,2.125,0,0-.002.004-.003.009-.042.344-.075.682-.098,1.01-.005.064-.005.131,0,.196-.005.078-.011.201-.011.215-.071,2.973.972,5.687,3.02,7.853l.533.527c3.175,3.016,7.014,5.571,11.098,7.387l.187.082c1.477.747,2.762,1.099,4.137,1.099.544,0,1.103-.055,1.693-.162,2.318-.424,3.863-1.442,5.426-2.807l.238-.193c1.165-.945,2.313-1.953,3.413-2.993.644-.61,1.241-1.202,1.79-1.766.406-.42.786-.824,1.186-1.263.004-.005.007-.009.011-.013,0,0,.003-.003.004-.003,1.186-1.302,2.253-2.59,3.263-3.941.002-.004.163-.215.165-.221l.264-.368c.248-.36.478-.73.692-1.105h.001c1.148-2.016,1.754-4.21,1.754-6.348l-.005-.181c.005-.061.006-.121.004-.182ZM14.966,8.858l.73-1.162c.858-1.372,1.901-2.898,3.138-3.85.618-.476,1.23-.753,1.808-.823,2.017-.227,3.879,2.226,5.164,4.405l.208.347c.019.032,2.027,3.347,4.2,7.712.625,1.253,1.201,2.469,1.726,3.639-.023-.012-.051-.021-.074-.034-.793-.46-1.634-.865-2.522-1.194-.166-.062-.352-.128-.578-.204-.031-.009-.06-.019-.092-.03l-.044-.014c-.03-.01-.049-.017-.081-.028l-.364-.11c-.006-.002-.306-.09-.31-.094l-.015-.002c-.009-.003-.059-.017-.086-.023-.077-.021-.165-.042-.168-.042h-.002s-.001,0-.001,0l-.493-.126s-.018-.002-.03-.008l-.04-.007c-.185-.044-.388-.085-.633-.132-.029-.006-.058-.012-.087-.017h-.002c-.025-.006-.048-.01-.073-.015-.019-.003-.03-.005-.05-.009-.25-.045-.499-.088-.753-.123l-.203-.025c-.121-.017-.242-.032-.363-.045-.002,0-.05-.006-.081-.009-.041-.004-.058-.009-.108-.014h-.006c-.032-.004-.054-.006-.07-.008,0,0-.007-.001-.008-.001-.007,0-.032-.004-.032-.004-.258-.025-.519-.047-.782-.06h-.003c-.042-.004-.089-.006-.105-.008h-.002l-.78-.03c-3.532-.096-6.526-1.888-7.628-4.566-.299-.729-.444-1.49-.43-2.261.005-.339.06-.682.127-1.026Zm16.065,32.26c-.135.508-.36,1.008-.648,1.497-.315.344-.645.695-1.001,1.065-.522.537-1.087,1.097-1.698,1.675-1.045.99-2.136,1.946-3.24,2.841l-.28.228c-1.515,1.321-2.57,1.884-4.032,2.15-1.448.261-2.439.097-3.998-.692l-.255-.114c-3.779-1.679-7.324-4.038-10.432-6.996l-.232-.23s-.007-.008-.012-.012c-.475-.504-.876-1.045-1.201-1.632.593.339,1.243.595,1.918.81.182.058.37.096.557.145.553.143,1.121.246,1.709.306.212.022.419.05.635.059.778.039,1.57.029,2.379-.08,1.853-.252,3.672-.899,5.255-1.869.01-.006.214-.133.224-.139.198-.127.391-.258.543-.369l4.043-2.753c1.149-.757,2.461-1.242,3.794-1.401,1.506-.177,2.909.094,4.009.725.28.164.555.331.79.542.662.589,1.088,1.322,1.258,2.151.056.277.085.564.084.862-.001.398-.057.815-.169,1.231Zm3.698-5.095c-.041.508-.154,1.018-.313,1.515-.129.22-.265.439-.409.65-.092-.381-.224-.749-.379-1.107-.038-.087-.086-.166-.127-.25-.153-.319-.33-.622-.531-.915-.069-.099-.137-.198-.211-.296-.27-.35-.563-.689-.903-.991-1.801-1.604-4.405-2.334-7.154-2.005-1.793.214-3.553.863-5.108,1.889l-.01.005h-.001l-.06.045-4.634,3.144c-1.235.757-2.65,1.261-4.095,1.457-2.643.351-5.091-.322-6.552-1.827-.287-.296-.52-.618-.712-.957-.061-.109-.093-.23-.145-.342-.098-.216-.187-.436-.247-.664.071-.501.163-1.018.277-1.548v-.002c.216-1.004.518-2.113.898-3.297.551-1.718,1.266-3.594,2.14-5.613.023.052.065.096.089.148.295.644.648,1.262,1.091,1.825,1.922,2.44,5.06,3.951,8.608,4.143.748.04,1.508.027,2.245-.049.456-.045.905-.114,1.346-.198l5.743-1.132c.322-.06.646-.108.973-.14,2.488-.241,4.804.423,6.35,1.824,1.215,1.103,1.856,2.547,1.854,4.177,0,.173-.01.346-.024.514Zm.19-6.916c-.512-.465-1.088-.86-1.699-1.207-.188-.11-.395-.182-.592-.279-.444-.215-.894-.414-1.374-.572-.247-.079-.502-.135-.758-.198-.461-.115-.926-.211-1.41-.27-.282-.036-.563-.054-.85-.071-.233-.011-.456-.057-.692-.057-.425,0-.854.022-1.287.063-.418.042-.83.101-1.252.18l-5.739,1.133c-.352.066-.71.12-1.078.156-.605.061-1.199.075-1.781.041-2.688-.145-5.025-1.24-6.411-3-.357-.454-.645-.952-.854-1.479-.282-.707-.418-1.455-.401-2.223.015-.769.179-1.539.486-2.288.159-.39.356-.765.638-1.227.901-1.722,1.779-3.312,2.564-4.684.021.054.042.107.064.159,1.554,3.778,5.608,6.303,10.346,6.433.235.001.468.012.77.031l.658.047c.019.004.123.017.199.024.032.005.071.01.074.01h.012l2.2.408.246.056c.018.005.035.003.052.008.013.003.023.013.036.015.013.004.026.003.039.005.01.004.018.013.029.016.01.003.088.026.101.03h.001v.003s.008.001.011.001h0s1.027.337,1.027.337c.689.257,1.344.563,1.96.912.22.124.406.281.616.414.379.246.767.481,1.109.759.211.171.381.371.577.555.298.277.61.546.871.849.183.215.322.452.486.676.217.297.448.584.63.898.465,1.454.813,2.789,1.037,3.998-.207-.23-.427-.454-.66-.665Zm28.939-8.778c0-1.386.997-2.042,2.335-1.994,1.459.025,2.359.9,2.432,2.019h3.746c-.219-3.065-2.602-4.841-6.081-4.841-3.503,0-5.983,1.849-5.983,4.914-.024,6.154,8.732,3.94,8.732,7.612,0,1.217-.949,2.067-2.554,2.067-1.581,0-2.481-.9-2.578-2.262h-3.648c.049,3.21,2.773,5.059,6.299,5.059,3.867,0,6.008-2.408,6.008-5.081,0-5.985-8.707-4.089-8.707-7.493Zm13.379-6.664c-1.216,0-2.092.875-2.092,1.995s.875,1.994,2.092,1.994c1.192,0,2.092-.876,2.092-1.994s-.9-1.995-2.092-1.995Zm-1.727,19.071h3.405v-13.478h-3.405v13.478Zm14.23-13.671c-1.727,0-3.186.731-4.062,1.873v-1.68h-3.405v13.478h3.405v-7.444c0-2.165,1.192-3.333,3.04-3.333,1.8,0,2.992,1.168,2.992,3.333v7.444h3.405v-7.906c0-3.721-2.238-5.765-5.375-5.765Zm18.341,2.115c-.803-1.168-2.335-2.138-4.451-2.138-3.43,0-6.154,2.698-6.154,6.904s2.724,7.006,6.154,7.006c2.116,0,3.648-1.048,4.451-2.215v2.092c0,2.506-1.459,3.577-3.332,3.577-1.703,0-2.967-.804-3.308-2.018h-3.381c.341,3.088,2.992,4.985,6.786,4.985,4.427,0,6.664-2.893,6.664-6.544v-13.572h-3.43v1.922Zm-3.575,8.781c-1.824,0-3.551-1.46-3.551-4.014s1.727-3.915,3.551-3.915c1.873,0,3.575,1.411,3.575,3.966s-1.703,3.963-3.575,3.963Zm10.339,2.775h3.405V14.734h-3.405v18Zm12.649-13.694c-3.989,0-6.762,2.698-6.762,6.956,0,4.231,2.846,6.955,6.762,6.955,3.332,0,5.57-1.969,6.299-4.452h-3.673c-.438.901-1.24,1.629-2.7,1.629-1.703,0-3.065-1.117-3.235-3.112h9.85c.073-.437.097-.876.097-1.314,0-4.013-2.748-6.662-6.64-6.662Zm-3.284,5.688c.268-1.849,1.557-2.893,3.186-2.893,1.751,0,3.162,1.118,3.21,2.893h-6.397Zm25.152,1.169h5.837c-.511,2.408-2.189,3.915-4.816,3.915-3.162,0-5.302-2.14-5.302-5.594,0-3.38,2.116-5.545,5.156-5.545,1.8,0,3.211.754,3.989,2.188h3.916c-1.095-3.405-4.11-5.325-7.905-5.325-4.913,0-8.659,3.599-8.659,8.682s3.746,8.659,8.683,8.659c4.524,0,7.613-3.162,8.294-6.616v-2.967h-9.194v2.603Zm15.131-4.547v-2.094h-3.405v13.478h3.405v-6.715c0-2.603,1.216-3.381,3.235-3.381h.9v-3.575c-1.873,0-3.284.9-4.135,2.287Zm16.151-.172c-.803-1.117-2.286-2.138-4.451-2.138-3.43,0-6.154,2.698-6.154,6.904s2.724,7.006,6.129,7.006c2.14,0,3.673-1.021,4.475-2.189v1.972h3.43v-13.478h-3.43v1.922Zm-3.575,8.781c-1.824,0-3.551-1.46-3.551-4.014s1.727-3.915,3.551-3.915c1.873,0,3.575,1.411,3.575,3.966s-1.702,3.963-3.575,3.963Zm10.339,2.775h3.405v-13.478h-3.405v13.478Zm1.727-19.071c-1.216,0-2.092.875-2.092,1.995s.876,1.994,2.092,1.994c1.192,0,2.092-.876,2.092-1.994s-.9-1.995-2.092-1.995Zm12.503,5.4c-1.727,0-3.186.731-4.062,1.873v-1.68h-3.405v13.478h3.405v-7.444c0-2.165,1.192-3.333,3.04-3.333,1.8,0,2.992,1.168,2.992,3.333v7.444h3.405v-7.906c0-3.721-2.238-5.765-5.375-5.765Z"/>
  </g>
</svg>