<?xml version="1.0" encoding="UTF-8"?>
<svg width="28px" height="30px" viewBox="0 0 28 30" version="1.1" xmlns="http://www.w3.org/2000/svg" xmlns:xlink="http://www.w3.org/1999/xlink">
    <title>growth icon</title>
    <g id="Page-1" stroke="none" stroke-width="1" fill="none" fill-rule="evenodd">
        <g id="step-0" transform="translate(-327.000000, -435.000000)" fill="#F27038" fill-rule="nonzero">
            <g id="window" transform="translate(284.000000, 222.000000)">
                <g id="growth-icon" transform="translate(43.000000, 213.000000)">
                    <path d="M26.7823792,4.03289795 L25.500412,2.90405273 L26.7823792,1.77543639 C26.9817352,1.59965514 27.049942,1.32568359 26.9563294,1.07711789 C26.8622589,0.828323379 26.6299438,0.667648301 26.3642121,0.667648301 L21.0591888,0.667648301 L21.0591888,0.439681992 C21.0591888,0.196838379 20.8623504,0 20.6195068,0 C20.3766632,0 20.1798248,0.196838379 20.1798248,0.439681992 L20.1798248,6.3695526 L16.5687561,8.3303833 C16.5488434,8.17153934 16.501236,8.01544189 16.4259339,7.86849973 L15.9171295,6.87515262 C15.5678558,6.19308469 14.728775,5.92277525 14.0471649,6.27182004 L13.6537171,6.47323605 C13.3232116,6.64260867 13.078537,6.93008426 12.9645538,7.28347781 C12.8505707,7.63664244 12.881012,8.01315305 13.0503845,8.34342955 L13.5591888,9.33700559 C13.6779785,9.56886293 13.8535309,9.75242613 14.0599823,9.88105775 C13.7899017,10.244751 13.6617279,10.6919861 13.529892,11.1566162 L13.4351349,11.492157 C13.368988,11.7258454 13.5049438,11.9689178 13.7386322,12.0348358 C13.7784577,12.0462799 13.8187409,12.0515442 13.8583374,12.0515442 C14.0501404,12.0515442 14.2263794,11.9252014 14.281311,11.7313385 L14.3760681,11.3964844 C14.5687866,10.7169342 14.6871185,10.3530121 15.063858,10.1483917 L15.7392884,9.78149414 L15.8226013,9.73892215 C15.850296,9.72473145 15.8761597,9.70870969 15.9024811,9.69291686 L20.7163239,7.07885742 C20.6858825,7.68058775 20.3620148,8.24913023 19.8287201,8.57299805 L16.6983032,10.4750061 C16.6946411,10.4770661 16.690979,10.479126 16.6875458,10.4814148 L15.7131958,11.0733032 C15.5058288,11.1994171 15.439682,11.4699554 15.5657959,11.6775513 C15.6845856,11.8732453 15.931778,11.9428253 16.1334229,11.844635 L15.3941345,14.0794372 L14.8537445,14.3009948 L13.3843231,14.903183 L13.8077545,13.4062958 C13.8736725,13.1726074 13.7379456,12.9295349 13.5042572,12.863388 C13.27034,12.7970123 13.0274964,12.933197 12.9613495,13.1668854 L12.2923279,15.5328369 C12.2836304,15.5632782 12.2779083,15.596695 12.276535,15.6285095 L12.1014404,18.8447571 C12.0961761,18.9674378 12.1222687,19.1992951 12.065506,19.3190003 L10.1209259,23.4100342 L8.70780943,23.4100342 C7.87994385,23.4100342 7.20657352,24.0834046 7.20657352,24.9110413 L7.20657352,26.1801911 C7.0170593,26.0934448 6.80671693,26.0449219 6.58493039,26.0449219 L2.99629213,26.0449219 C2.16865541,26.0449219 1.49528502,26.7180633 1.49528502,27.545929 L1.49528502,29.120636 L0.439681992,29.120636 C0.196838379,29.120636 5.44491988e-13,29.3174743 5.44491988e-13,29.560318 C5.44491988e-13,29.8031616 0.196838379,30 0.439681992,30 L26.3637543,30 C26.6065979,30 26.8034363,29.8031616 26.8034363,29.560318 C26.8034363,29.3174743 26.6065979,29.120636 26.3637543,29.120636 L25.2202606,29.120636 L25.2202606,17.7875519 C25.2202606,16.9599152 24.5468903,16.2865448 23.7192536,16.2865448 L21.0591888,16.2865448 L21.0591888,8.61602783 C21.5467072,7.95524596 21.7272949,7.08915709 21.5009308,6.26609801 C21.4654541,6.13677979 21.372757,6.03057861 21.2491608,5.97816469 C21.1885071,5.95230105 21.1235046,5.94085693 21.0591888,5.94337465 L21.0591888,5.14068604 L26.3639831,5.14068604 C26.6299438,5.14068604 26.8622589,4.98001102 26.9561004,4.73144531 C27.049942,4.48287961 26.9817352,4.2086792 26.7823792,4.03289795 L26.7823792,4.03289795 Z M13.8015747,7.55355832 C13.8434601,7.42378236 13.9331818,7.31803893 14.0544891,7.25601199 L14.447937,7.05459598 C14.5220947,7.01660156 14.6012878,6.99851988 14.6795654,6.99851988 C14.8649597,6.99851988 15.0441742,7.09991455 15.1343537,7.27592467 L15.6433869,8.2695007 C15.7621765,8.50158691 15.6852722,8.78288268 15.4740143,8.92501828 L15.3307342,9.00260924 L15.0283813,9.15756223 C14.7782135,9.28573605 14.4701385,9.18640137 14.3419647,8.93600461 L13.8329315,7.9426575 C13.7709046,7.8213501 13.7596893,7.68310547 13.8015747,7.55355832 L13.8015747,7.55355832 Z M12.9180908,23.5453034 C12.768631,23.4770965 12.6061249,23.4324646 12.435379,23.4166717 L12.9180908,22.7755737 L12.9180908,23.5453034 Z M15.005722,20.0024414 C15.2172088,19.7490692 15.2755737,19.453125 15.3227234,19.2146302 C15.3346253,19.1578675 15.5516052,17.9727173 15.5516052,17.9727173 C15.5516052,17.9727173 15.7569122,18.1006622 15.7784271,18.1098175 C15.7933044,18.1164551 15.803833,18.1311035 15.8054352,18.1482697 L16.0446167,20.5796814 L14.5710755,20.5796814 L15.005722,20.0024414 Z M17.6058197,17.5756073 L17.2345734,20.5776214 L16.9281006,20.5776214 L16.6806793,18.0622101 C16.6490936,17.7399445 16.4517975,17.4586487 16.1627197,17.3188019 L15.72052,17.0384216 L16.015091,15.4058075 C16.015091,15.4058075 17.2560882,16.8800354 17.2849274,16.917572 C17.5417328,17.2515106 17.6296234,17.3851776 17.6058197,17.5756073 Z M12.8565216,19.7035218 C12.9453278,19.4361878 12.9865265,19.1640472 12.97966,18.8873291 L13.1394196,15.9539795 L15.1730347,15.1206207 L14.8033905,17.1681976 C14.8022461,17.1736908 14.8011017,17.1794128 14.800415,17.184906 L14.4946289,18.877945 C14.4548034,19.0532684 14.4200134,19.3192291 14.3106079,19.4636536 L11.3394928,23.4100342 L11.0945892,23.4100342 L12.8565216,19.7035218 Z M2.37464906,27.5457001 C2.37464906,27.203064 2.65342711,26.9242859 2.99629213,26.9242859 L6.58493039,26.9242859 C6.92779541,26.9242859 7.20680238,27.203064 7.20680238,27.5457001 L7.20680238,29.120636 L2.37464906,29.120636 L2.37464906,27.5457001 Z M8.0859375,27.5457001 L8.0859375,24.9110413 C8.0859375,24.5681763 8.36494447,24.2893982 8.70780943,24.2893982 L12.2964478,24.2893982 C12.6393128,24.2893982 12.9180908,24.5681763 12.9180908,24.9110413 L12.9180908,29.120636 L8.08616637,29.120636 L8.08616637,27.5457001 L8.0859375,27.5457001 Z M24.3408966,17.7875519 L24.3408966,29.120636 L19.5089722,29.120636 L19.5089722,26.484375 C19.5089722,26.2415314 19.3121338,26.044693 19.0692902,26.044693 C18.8262176,26.044693 18.6293793,26.2415314 18.6293793,26.484375 L18.6293793,29.120636 L13.7974548,29.120636 L13.7974548,22.0804596 C13.7974548,21.7378235 14.0762329,21.4590454 14.4190979,21.4590454 L18.0077362,21.4590454 C18.3506012,21.4590454 18.6293793,21.7378235 18.6293793,22.0804596 L18.6293793,24.2845917 C18.6293793,24.5274353 18.8262176,24.7242737 19.0690613,24.7242737 C19.3121338,24.7242737 19.5087433,24.5274353 19.5087433,24.2845917 L19.5087433,17.7875519 C19.5087433,17.4446869 19.7877503,17.1659088 20.1306152,17.1659088 L20.6149292,17.1659088 C20.6163025,17.1659088 20.6179046,17.1661377 20.6195068,17.1661377 C20.6208802,17.1661377 20.6224823,17.1659088 20.6238556,17.1659088 L23.7190247,17.1659088 C24.0618896,17.1659088 24.3408966,17.4449157 24.3408966,17.7875519 L24.3408966,17.7875519 Z M20.1306152,16.2865448 C19.3029785,16.2865448 18.6296081,16.9599152 18.6296081,17.7875519 L18.6296081,20.7149505 C18.4721374,20.6430817 18.3004761,20.5975342 18.1198883,20.5842591 L18.4785462,17.6838684 C18.5490417,17.1185303 18.2606507,16.7438507 17.9818726,16.3813019 C17.9523468,16.3428497 16.2432861,14.3135834 16.2432861,14.3135834 L17.2917938,11.14357 L20.1798248,9.38896178 L20.1798248,16.2865448 L20.1306152,16.2865448 Z M21.0591888,4.26109313 L21.0591888,1.54724121 L25.7107544,1.54724121 L24.7089386,2.42935184 C24.572525,2.54951479 24.4942474,2.72254945 24.4942474,2.9042816 C24.4942474,3.08601381 24.572525,3.25904848 24.7089386,3.37921143 L25.7107544,4.26132199 L21.0591888,4.26132199 L21.0591888,4.26109313 Z" id="Shape"></path>
                </g>
            </g>
        </g>
    </g>
</svg>