<?xml version="1.0" encoding="UTF-8"?>
<svg width="25px" height="30px" viewBox="0 0 25 30" version="1.1" xmlns="http://www.w3.org/2000/svg" xmlns:xlink="http://www.w3.org/1999/xlink">
    <title>idea icon</title>
    <g id="Page-1" stroke="none" stroke-width="1" fill="none" fill-rule="evenodd">
        <g id="step-0" transform="translate(-331.000000, -482.000000)" fill="#F27038" fill-rule="nonzero">
            <g id="window" transform="translate(284.000000, 222.000000)">
                <g id="idea-icon" transform="translate(47.000000, 260.000000)">
                    <path d="M22.7419355,6.37171475e-15 L15.9677419,6.37171475e-15 C15.1674194,6.37171475e-15 14.516129,0.651290323 14.516129,1.4516129 L14.516129,2.41935484 C13.4487097,2.41935484 12.5806452,3.28741935 12.5806452,4.35483871 C12.5806452,5.42225806 13.4487097,6.29032258 14.516129,6.29032258 L14.516129,8.70967742 L18.3870968,8.70967742 L18.3870968,7.74193548 C18.3870968,7.20822581 18.821129,6.77419355 19.3548387,6.77419355 C19.8885484,6.77419355 20.3225806,7.20822581 20.3225806,7.74193548 L20.3225806,8.70967742 L22.7419355,8.70967742 C23.5422581,8.70967742 24.1935484,8.0583871 24.1935484,7.25806452 L24.1935484,1.4516129 C24.1935484,0.651290323 23.5422581,6.37171475e-15 22.7419355,6.37171475e-15 Z M23.2258065,7.25806452 C23.2258065,7.52467742 23.0090323,7.74193548 22.7419355,7.74193548 L21.2903226,7.74193548 C21.2903226,6.67451613 20.4222581,5.80645161 19.3548387,5.80645161 C18.2874194,5.80645161 17.4193548,6.67451613 17.4193548,7.74193548 L15.483871,7.74193548 L15.483871,5.32258065 L14.516129,5.32258065 C13.9824194,5.32258065 13.5483871,4.88854839 13.5483871,4.35483871 C13.5483871,3.82112903 13.9824194,3.38709677 14.516129,3.38709677 L15.483871,3.38709677 L15.483871,1.4516129 C15.483871,1.185 15.7006452,0.967741935 15.9677419,0.967741935 L22.7419355,0.967741935 C23.0090323,0.967741935 23.2258065,1.185 23.2258065,1.4516129 L23.2258065,7.25806452 Z" id="Shape"></path>
                    <path d="M14.516129,9.67741935 C13.4487097,9.67741935 12.5806452,10.5454839 12.5806452,11.6129032 L10.6451613,11.6129032 L10.6451613,9.19354839 L9.67741935,9.19354839 C9.14370968,9.19354839 8.70967742,8.75951613 8.70967742,8.22580645 C8.70967742,7.69209677 9.14370968,7.25806452 9.67741935,7.25806452 L10.6451613,7.25806452 L10.6451613,2.90322581 L9.34790323,2.90322581 C4.19370968,2.90322581 -4.96993751e-13,7.09693548 -4.96993751e-13,12.251129 C-4.96993751e-13,15.0662903 1.24983871,17.7033871 3.42870968,19.4859677 L5.32258065,21.0358065 L5.32258065,22.3475806 C4.76080645,22.5479032 4.35483871,23.0801613 4.35483871,23.7101613 C4.35483871,24.3793548 4.81209677,24.9387097 5.42903226,25.1056452 C5.36177419,25.2725806 5.32258065,25.4540323 5.32258065,25.6451613 C5.32258065,26.2848387 5.74112903,26.8229032 6.31645161,27.0159677 C6.51677419,28.6940323 7.9466129,30 9.67741935,30 C11.4082258,30 12.8380645,28.6940323 13.0383871,27.0159677 C13.6137097,26.8229032 14.0322581,26.2848387 14.0322581,25.6451613 C14.0322581,25.4540323 13.9930645,25.2725806 13.9258065,25.1051613 C14.5427419,24.9377419 15,24.378871 15,23.7096774 C15,23.0796774 14.5940323,22.5474194 14.0322581,22.3470968 L14.0322581,21.0353226 L15.926129,19.4854839 C18.105,17.7033871 19.3548387,15.0662903 19.3548387,12.251129 L19.3548387,11.6129032 L16.4516129,11.6129032 C16.4516129,10.5454839 15.5835484,9.67741935 14.516129,9.67741935 Z M9.34790323,3.87096774 L9.67741935,3.87096774 L9.67741935,6.29032258 C8.61,6.29032258 7.74193548,7.1583871 7.74193548,8.22580645 C7.74193548,9.29322581 8.61,10.1612903 9.67741935,10.1612903 L9.67741935,11.6129032 L7.74193548,11.6129032 C7.74193548,10.5454839 6.87387097,9.67741935 5.80645161,9.67741935 C4.73903226,9.67741935 3.87096774,10.5454839 3.87096774,11.6129032 L0.991935484,11.6129032 C1.31903226,7.28903226 4.94177419,3.87096774 9.34790323,3.87096774 Z M4.04129032,18.7369355 C2.17306452,17.2083871 1.06693548,14.9796774 0.974516129,12.5806452 L4.83870968,12.5806452 L4.83870968,11.6129032 C4.83870968,11.0791935 5.27274194,10.6451613 5.80645161,10.6451613 C6.34016129,10.6451613 6.77419355,11.0791935 6.77419355,11.6129032 L6.77419355,12.5806452 L9.67741935,12.5806452 L9.67741935,14.516129 C8.61,14.516129 7.74193548,15.3841935 7.74193548,16.4516129 C7.74193548,17.5190323 8.61,18.3870968 9.67741935,18.3870968 L9.67741935,22.2580645 L6.29032258,22.2580645 L6.29032258,20.5770968 L4.04129032,18.7369355 Z M9.67741935,29.0322581 C8.50935484,29.0322581 7.53193548,28.1995161 7.30693548,27.0967742 L12.0479032,27.0967742 C11.8229032,28.1995161 10.8454839,29.0322581 9.67741935,29.0322581 Z M12.5806452,26.1290323 L6.77419355,26.1290323 C6.50709677,26.1290323 6.29032258,25.9117742 6.29032258,25.6451613 C6.29032258,25.3785484 6.50709677,25.1612903 6.77419355,25.1612903 L12.5806452,25.1612903 C12.8477419,25.1612903 13.0645161,25.3785484 13.0645161,25.6451613 C13.0645161,25.9117742 12.8477419,26.1290323 12.5806452,26.1290323 Z M13.5483871,24.1935484 L12.5806452,24.1935484 L6.77419355,24.1935484 L5.80645161,24.1935484 C5.53935484,24.1935484 5.32258065,23.9762903 5.32258065,23.7096774 C5.32258065,23.4430645 5.53935484,23.2258065 5.80645161,23.2258065 L13.5483871,23.2258065 C13.8154839,23.2258065 14.0322581,23.4430645 14.0322581,23.7096774 C14.0322581,23.9762903 13.8154839,24.1935484 13.5483871,24.1935484 Z M15.3135484,18.7369355 L13.0645161,20.5770968 L13.0645161,22.2580645 L10.6451613,22.2580645 L10.6451613,17.4193548 L9.67741935,17.4193548 C9.14370968,17.4193548 8.70967742,16.9853226 8.70967742,16.4516129 C8.70967742,15.9179032 9.14370968,15.483871 9.67741935,15.483871 L10.6451613,15.483871 L10.6451613,12.5806452 L13.5483871,12.5806452 L13.5483871,11.6129032 C13.5483871,11.0791935 13.9824194,10.6451613 14.516129,10.6451613 C15.0498387,10.6451613 15.483871,11.0791935 15.483871,11.6129032 L15.483871,12.5806452 L18.3803226,12.5806452 C18.2879032,14.9796774 17.1817742,17.2083871 15.3135484,18.7369355 L15.3135484,18.7369355 Z" id="Shape"></path>
                </g>
            </g>
        </g>
    </g>
</svg>