<?xml version="1.0" encoding="UTF-8"?>
<svg width="357px" height="304px" viewBox="0 0 357 304" version="1.1" xmlns="http://www.w3.org/2000/svg" xmlns:xlink="http://www.w3.org/1999/xlink">
    <title>illustration</title>
    <g id="Page-1" stroke="none" stroke-width="1" fill="none" fill-rule="evenodd">
        <g id="step-0" transform="translate(-759.000000, -313.000000)">
            <g id="window" transform="translate(284.000000, 222.000000)">
                <g id="illustration" transform="translate(475.000000, 91.000000)">
                    <path d="M45.8514013,159.437334 L299.21207,158.949504 C300.608846,158.949504 301.751744,157.319077 301.751744,155.327004 L301.751744,154.905285 C301.751744,152.913211 300.608846,151.282785 299.21207,151.282785 L45.8514013,151.770916 C44.4543238,151.770916 43.3114251,153.401041 43.3114251,155.393417 L43.3114251,155.814834 C43.3114251,157.807209 44.4543238,159.437334 45.8514013,159.437334" id="Fill-1" fill="#FFFFFF"></path>
                    <path d="M299.21207,151.735688 L45.8523069,152.22382 C44.7199738,152.22382 43.7642376,153.675536 43.7642376,155.393507 L43.7642376,155.815226 C43.7642376,157.532593 44.7196719,158.98431 45.8507976,158.984914 L299.210863,158.49648 C300.343498,158.49648 301.299234,157.045065 301.299234,155.326793 L301.299234,154.905375 C301.299234,153.187405 300.343498,151.735688 299.21207,151.735688 L299.21207,151.735688 Z M45.8523069,159.890539 L45.8514013,159.890539 C44.2010507,159.890539 42.8586126,158.062082 42.8586126,155.815226 L42.8586126,155.393507 C42.8586126,153.146048 44.2010507,151.318195 45.8514013,151.318195 L299.210863,150.830063 C300.862421,150.830063 302.204859,152.65852 302.204859,154.905375 L302.204859,155.326793 C302.204859,157.57395 300.862421,159.402105 299.21207,159.402105 L45.8523069,159.890539 Z" id="Fill-3" fill="#000000"></path>
                    <polygon id="Fill-5" fill="#FFFFFF" points="310.458967 302.774587 318.127799 302.774587 282.774916 159.007524 275.106083 159.007524"></polygon>
                    <path d="M310.792991,302.348612 L317.584575,302.348612 L282.440891,159.43344 L275.649911,159.43344 L310.792991,302.348612 Z M318.671929,303.200201 L310.124942,303.200201 L310.045549,302.875987 L274.562558,158.581549 L283.108941,158.581549 L283.188938,158.905762 L318.671929,303.200201 Z" id="Fill-7" fill="#000000"></path>
                    <polygon id="Fill-9" fill="#FFFFFF" points="46.8003454 302.774587 39.1315129 302.774587 60.2784604 159.437394 67.9472929 159.437394"></polygon>
                    <path d="M39.6560207,302.321775 L46.4095682,302.321775 L67.4227851,159.890509 L60.6692376,159.890509 L39.6560207,302.321775 Z M47.1911226,303.2274 L38.6070051,303.2274 L59.8876832,158.984884 L68.4718007,158.984884 L47.1911226,303.2274 Z" id="Fill-11" fill="#000000"></path>
                    <polygon id="Fill-13" fill="#FFFFFF" points="135.611729 144.123064 163.655916 144.123064 157.678791 115.754663 129.634604 115.754663"></polygon>
                    <path d="M135.97905,143.66995 L163.097689,143.66995 L157.311349,116.207476 L130.19271,116.207476 L135.97905,143.66995 Z M164.214023,144.575575 L135.244287,144.575575 L129.076377,115.301851 L158.046113,115.301851 L164.214023,144.575575 Z" id="Fill-15" fill="#000000"></path>
                    <polygon id="Fill-17" fill="#FFFFFF" points="148.666223 95.2747386 148.709391 96.4010342 152.870738 96.2458704 152.82757 95.1159523"></polygon>
                    <path d="M78.8698549,122.492422 L212.849225,122.492422 C217.374029,122.492422 221.042112,118.824641 221.042112,114.299837 L199.699852,21.4784063 C199.062895,16.4956575 196.031769,13.2858206 191.506964,13.2858206 L57.5275942,13.2858206 C53.0027899,13.2858206 49.3350086,16.9539038 49.3350086,21.4784063 L70.6769674,114.299837 C71.742888,118.849093 74.3450505,122.492422 78.8698549,122.492422" id="Fill-19" fill="#FFFFFF"></path>
                    <path d="M49.7878513,21.4276912 L71.1183388,114.198407 C71.8041988,117.125689 73.7238219,122.039912 78.8698851,122.039912 L212.849557,122.039912 C217.100259,122.039912 220.561859,118.594914 220.589028,114.350552 L199.253711,21.5581012 L199.250692,21.5357625 C198.627018,16.6535381 195.732037,13.7386331 191.506994,13.7386331 L57.5276244,13.7386331 C53.2766207,13.7386331 49.8153219,17.1833288 49.7878513,21.4276912 M212.849557,122.945537 L78.8698851,122.945537 C74.6548044,122.945537 71.5080594,119.831998 70.2362601,114.403078 L48.8822263,21.529725 L48.8822263,21.4784062 C48.8822263,16.7111962 52.7604144,12.8330081 57.5276244,12.8330081 L191.506994,12.8330081 C196.154058,12.8330081 199.46291,16.1143894 200.146355,21.3987112 L221.495257,114.248216 L221.495257,114.299837 C221.495257,119.067047 217.616767,122.945537 212.849557,122.945537" id="Fill-21" fill="#000000"></path>
                    <polygon id="Fill-23" fill="#F2F2F2" points="78.4676064 108.478238 211.97907 108.478238 190.63681 20.6803091 57.1253458 20.6803091"></polygon>
                    <path d="M78.8235774,108.025425 L211.403153,108.025425 L190.280959,21.1331216 L57.7013837,21.1331216 L78.8235774,108.025425 Z M212.555108,108.93105 L78.1117562,108.93105 L56.5494287,20.2274966 L190.992781,20.2274966 L191.077004,20.5734454 L212.555108,108.93105 Z" id="Fill-25" fill="#000000"></path>
                    <polygon id="Fill-27" fill="#FFFFFF" points="168.449933 101.984816 167.145833 101.990854 158.406552 102.02406 157.663939 102.027079 128.70507 102.138772 115.947833 102.187072 115.063339 102.190091 113.620377 102.196129 113.547927 102.196129 109.714114 102.211222 109.711095 102.211222 108.70887 102.214241 108.159458 102.21726 101.276708 102.244429 101.10162 102.244429 99.1032079 102.250466 95.5199516 102.26556 95.0067641 102.26556 94.9433704 102.268579 89.0296391 102.28971 85.0569641 102.304804 65.8788454 27.1711348 149.271814 26.8541661 167.03112 96.4303161 168.009195 100.258091"></polygon>
                    <polygon id="Fill-31" fill="#E6E6E6" points="120.693851 151.518006 178.62789 151.518006 178.62789 144.01128 120.693851 144.01128"></polygon>
                    <path d="M121.146664,151.065193 L178.175078,151.065193 L178.175078,144.464092 L121.146664,144.464092 L121.146664,151.065193 Z M120.241341,151.970818 L179.081004,151.970818 L179.081004,143.558468 L120.241341,143.558468 L120.241341,151.970818 Z" id="Fill-33" fill="#000000"></path>
                    <polygon id="Fill-34" fill="#FFFFFF" points="112.596658 7.9610475 132.295209 7.9610475 132.295209 0.454321875 112.596658 0.454321875"></polygon>
                    <path d="M113.049471,7.508235 L131.842397,7.508235 L131.842397,0.9068325 L113.049471,0.9068325 L113.049471,7.508235 Z M112.144148,8.41386 L132.748324,8.41386 L132.748324,0.0012075 L112.144148,0.0012075 L112.144148,8.41386 Z" id="Fill-35" fill="#000000"></path>
                    <path d="M141.938727,115.643181 C141.938727,117.457148 143.409462,118.927581 145.223429,118.927581 C147.037396,118.927581 148.508131,117.457148 148.508131,115.643181 C148.508131,113.829214 147.037396,112.358479 145.223429,112.358479 C143.409462,112.358479 141.938727,113.829214 141.938727,115.643181" id="Fill-36" fill="#000000"></path>
                    <polygon id="Fill-37" fill="#CCCCCC" points="119.172673 7.96092675 120.238292 13.2856999 126.865354 13.2856999 125.884864 7.96092675"></polygon>
                    <path d="M120.609387,12.8329478 L126.321767,12.8329478 L125.507912,8.41379963 L119.725195,8.41379963 L120.609387,12.8329478 Z M127.409121,13.7385728 L119.867076,13.7385728 L118.620332,7.50817463 L126.261996,7.50817463 L127.409121,13.7385728 Z" id="Fill-38" fill="#000000"></path>
                    <path d="M124.588582,4.40284688 C124.588582,5.6040075 123.614733,6.57815813 122.413271,6.57815813 C121.21211,6.57815813 120.238261,5.6040075 120.238261,4.40284688 C120.238261,3.20168625 121.21211,2.22753563 122.413271,2.22753563 C123.614733,2.22753563 124.588582,3.20168625 124.588582,4.40284688" id="Fill-39" fill="#000000"></path>
                    <path d="M185.780637,30.3375621 L159.925949,30.3375621 C159.675695,30.3375621 159.473136,30.1350039 159.473136,29.8847496 C159.473136,29.6344952 159.675695,29.4319371 159.925949,29.4319371 L185.780637,29.4319371 C186.030589,29.4319371 186.23345,29.6344952 186.23345,29.8847496 C186.23345,30.1350039 186.030589,30.3375621 185.780637,30.3375621" id="Fill-40" fill="#000000"></path>
                    <path d="M179.174767,35.8068427 L166.531638,35.8068427 C166.281384,35.8068427 166.078826,35.6042846 166.078826,35.3540302 C166.078826,35.1037759 166.281384,34.9012177 166.531638,34.9012177 L179.174767,34.9012177 C179.425021,34.9012177 179.627579,35.1037759 179.627579,35.3540302 C179.627579,35.6042846 179.425021,35.8068427 179.174767,35.8068427" id="Fill-41" fill="#000000"></path>
                    <path d="M186.52648,81.3610783 C181.758364,81.3610783 177.87927,85.2401721 177.87927,90.0082877 C177.87927,94.7764033 181.758364,98.6554971 186.52648,98.6554971 C191.294595,98.6554971 195.173689,94.7764033 195.173689,90.0082877 C195.173689,85.2401721 191.294595,81.3610783 186.52648,81.3610783 M186.52648,99.5611221 C181.259063,99.5611221 176.973645,95.2757046 176.973645,90.0082877 C176.973645,84.7408708 181.259063,80.4554533 186.52648,80.4554533 C191.793896,80.4554533 196.079314,84.7408708 196.079314,90.0082877 C196.079314,95.2757046 191.793896,99.5611221 186.52648,99.5611221" id="Fill-42" fill="#000000"></path>
                    <path d="M186.642037,87.1798397 C184.612532,87.2266303 182.170363,87.8119659 180.986711,88.5455222 C179.488505,89.4716747 179.512655,90.9258066 179.58752,92.0379141 C179.626462,92.6081559 180.149008,92.9667834 180.697515,92.7965259 L182.982407,92.1843234 C183.444879,92.0418384 183.75098,91.5694041 183.693926,91.0966678 L183.421937,89.8070578 C183.412277,89.7149859 183.488651,89.6274422 183.585553,89.6334797 C184.177228,89.6712141 189.053415,89.6452528 189.650222,89.5628409 C189.74501,89.5474453 189.818064,89.6340834 189.793009,89.7330984 L189.530377,90.9879928 C189.391213,91.5250284 189.712408,92.0354991 190.235255,92.0940628 L192.339928,92.6262684 C192.85221,92.6833228 193.346681,92.2851497 193.423357,91.7535478 C193.798286,89.1631584 192.573579,88.1820647 191.582825,87.8515116 C190.934096,87.6347653 188.372989,87.1396903 186.642037,87.1798397" id="Fill-43" fill="#F27038"></path>
                    <path d="M82.2246823,141.007322 C80.6389329,143.531902 78.2432529,144.960073 75.5822248,144.985431 C76.8398361,142.955925 77.5676567,140.563566 77.5676567,138.000345 L77.5676567,134.598516 C78.7455729,133.790094 80.4925236,132.819264 81.8394898,133.045369 C82.4332779,133.144987 82.8830717,133.477654 83.2139267,134.060574 C84.1418904,135.695529 83.7259067,138.617076 82.2246823,141.007322 M84.0018204,133.613799 C83.5339142,132.789379 82.8565067,132.297624 81.9886161,132.152121 C80.5459554,131.907904 78.8439842,132.709684 77.5676567,133.512369 L77.5676567,129.938773 L51.0026567,129.938773 L51.0026567,138.000345 C51.0026567,145.336209 56.9492923,151.282845 64.2851567,151.282845 C68.6726079,151.282845 72.5616636,149.154626 74.9802861,145.875358 C75.1565811,145.885924 75.3322723,145.892867 75.5067561,145.892867 C78.5149404,145.892867 81.2188348,144.311344 82.9917467,141.489114 C84.6864729,138.790352 85.1018529,135.552441 84.0018204,133.613799" id="Fill-44" fill="#000000"></path>
                    <path d="M59.3312672,147.951624 C59.2325541,147.951624 59.1326334,147.927474 59.0402597,147.876759 C52.9333284,144.50723 53.6644697,134.260989 53.6985816,133.826591 C53.7248447,133.493925 54.0134372,133.240048 54.3476128,133.271745 C54.6796753,133.297706 54.9284203,133.588412 54.9024591,133.920474 C54.8949122,134.019489 54.1987884,143.8262 59.6234822,146.819593 C59.9153953,146.980492 60.0216553,147.347874 59.8604541,147.639787 C59.7505716,147.839327 59.5440891,147.951624 59.3312672,147.951624" id="Fill-45" fill="#FFFFFF"></path>
                    <path d="M70.8853517,127.816803 C70.7700354,127.816803 70.6547192,127.773031 70.5662698,127.685488 C68.1132336,125.250866 67.2673798,124.255282 67.3132648,121.244381 C67.3558292,118.456867 68.6587217,117.259027 69.9187479,116.100733 C70.7857329,115.303481 71.6047198,114.550906 72.0137604,113.265221 C72.9589311,110.294167 68.8956936,107.231041 68.8546386,107.200552 C68.6538917,107.051124 68.6119311,106.767663 68.7610573,106.566916 C68.9101836,106.366169 69.1936442,106.324813 69.3943911,106.473033 C69.5836667,106.613405 74.0182104,109.952143 72.8765192,113.539927 C72.3947267,115.054736 71.4474429,115.925343 70.5315542,116.767273 C69.3611848,117.843457 68.2554167,118.85987 68.2188898,121.258267 C68.1781367,123.918993 68.8540348,124.709604 71.2044336,127.042796 C71.3819361,127.219091 71.3828417,127.505872 71.2065467,127.683073 C71.1180973,127.772428 71.0018754,127.816803 70.8853517,127.816803" id="Fill-46" fill="#000000"></path>
                    <path d="M59.0818581,127.816803 C58.9665418,127.816803 58.8512256,127.773031 58.7627762,127.685488 C56.3097399,125.250262 55.4635843,124.255282 55.5097712,121.244381 C55.5523356,118.456867 56.8552281,117.259027 58.1149524,116.100733 C58.9819374,115.303481 59.8009243,114.550906 60.2099649,113.265221 C61.1554374,110.294167 57.0921999,107.231041 57.0508431,107.200552 C56.8503981,107.051124 56.8084374,106.767663 56.9572618,106.566916 C57.1066899,106.366169 57.3898487,106.324813 57.5905956,106.473033 C57.7798712,106.613405 62.2144149,109.952143 61.0730256,113.539927 C60.5912331,115.054736 59.6439493,115.925343 58.7280606,116.767273 C57.5576912,117.843457 56.4519231,118.85987 56.4153962,121.258267 C56.3743412,123.918993 57.0502393,124.709604 59.4009399,127.042796 C59.5784424,127.219091 59.5793481,127.505872 59.4030531,127.683073 C59.3146037,127.772428 59.1983818,127.816803 59.0818581,127.816803" id="Fill-47" fill="#000000"></path>
                    <path d="M65.3920418,125.4239 C65.2767255,125.4239 65.1614093,125.379827 65.0729599,125.291981 C62.6199236,122.857057 61.773768,121.861775 61.8199549,118.851176 C61.8625192,116.06336 63.1654118,114.865822 64.4251361,113.707226 C65.2921211,112.910276 66.111108,112.157702 66.5201486,110.872016 C67.4656211,107.900962 63.4023836,104.837837 63.3610268,104.807347 C63.1605818,104.657919 63.1186211,104.374459 63.2674455,104.173712 C63.4168736,103.972965 63.7000324,103.931306 63.9007793,104.079829 C64.0900549,104.2202 68.5245986,107.558938 67.3832093,111.146722 C66.9014168,112.661531 65.954133,113.532139 65.0382443,114.374068 C63.8678749,115.450252 62.7621068,116.466665 62.7255799,118.865062 C62.6845249,121.525487 63.360423,122.316399 65.7111236,124.649591 C65.8886261,124.825886 65.8895318,125.112365 65.7132368,125.289868 C65.6247874,125.379525 65.5085655,125.4239 65.3920418,125.4239" id="Fill-48" fill="#000000"></path>
                    <path d="M118.973677,44.8893257 C108.513104,38.6127407 122.386072,32.1154851 125.789109,35.5191257 C128.41361,38.1439288 126.907858,40.8517476 126.02276,42.0115513 C128.495116,41.7051482 130.94453,42.1486026 133.013883,43.5779807 C142.082208,49.8443019 136.91924,59.3998532 136.91924,59.3998532 C136.91924,59.3998532 133.723893,75.8828319 122.037406,69.1845276 C108.151458,61.2255932 111.683999,50.1322907 118.973677,44.8893257" id="Fill-49" fill="#000000"></path>
                    <path d="M122.217354,63.6203072 C122.217354,63.6203072 122.817481,76.0563497 122.347462,76.7147391 C120.73877,78.9670284 115.937146,80.9744972 114.840133,81.2790891 C113.743421,81.5830772 132.872938,88.7151759 132.872938,88.7151759 L141.996808,84.1586747 L138.443135,80.9998547 C138.443135,80.9998547 135.464535,79.5300253 134.150171,78.1927191 C132.835807,76.8557147 132.106779,64.2038316 132.106779,64.2038316 L122.217354,63.6203072 Z" id="Fill-50" stroke="#000000" stroke-width="0.75" fill="#FFFFFF"></path>
                    <path d="M123.518013,67.3138686 C122.049089,66.3551136 118.338441,62.7492167 118.255426,60.8347254 C118.172108,58.9205361 120.357683,59.1279242 121.026638,59.4255729 C121.472206,59.6236029 120.749215,48.8638723 120.749215,48.8638723 L135.526902,47.6482217 C135.526902,47.6482217 138.017371,57.3619554 137.527428,62.6532204 C137.03507,67.9668242 134.611315,69.3587698 130.749428,69.5604223 L123.518013,67.3138686 Z" id="Fill-52" stroke="#000000" stroke-width="0.75" fill="#FFFFFF"></path>
                    <path d="M150.725976,102.173186 C150.783031,98.0710067 150.442214,85.5051579 144.624781,81.6133854 C142.522221,80.2003086 141.222951,79.2373273 140.231292,78.7075367 C140.214387,78.6960654 140.197482,78.6903298 140.180275,78.6903298 C139.621806,78.3712479 139.166277,78.2230273 138.721615,78.1892173 C138.676032,78.1831798 138.624713,78.1831798 138.57913,78.1831798 C138.476794,78.1892173 138.379591,78.2003867 138.282689,78.2290648 L138.277255,78.2290648 C138.271519,78.2230273 138.271519,78.2230273 138.265784,78.2290648 C137.639091,78.3769836 137.12047,78.9239811 136.602151,79.6421417 C136.545096,79.7218367 136.488042,79.7957961 136.430987,79.8812267 C136.334387,80.0179761 136.237486,80.1547254 136.140584,80.3029461 L136.140584,80.3141154 C134.134926,83.2601136 131.5708,87.5449273 122.266409,81.2372492 C122.095547,81.1234423 121.924384,81.0038998 121.747787,80.8840554 C121.155509,80.4683736 120.539986,80.0068067 119.890351,79.5050904 C119.719489,79.3686429 119.508781,79.2832123 119.275129,79.2373273 C119.081326,79.1974798 118.870617,79.1863104 118.642701,79.1974798 C117.867486,79.2261579 116.922014,79.5165617 116.015785,79.8757929 C115.166912,80.2003086 114.346416,80.5879161 113.71429,80.8668486 C110.243935,82.3940342 110.181447,85.2141504 110.836516,87.8582736 C111.457472,90.3650436 112.722631,92.7127254 112.335023,93.6527642 L112.494715,96.8324136 L112.895001,102.139376 L150.725976,102.173186 Z" id="Fill-54" fill="#28B7C9"></path>
                    <path d="M152.590296,99.9203231 C152.538675,100.421737 152.470753,101.202386 152.390756,101.692631 L138.764119,101.760855 C137.932151,95.8694625 137.251423,90.4109588 136.88706,86.4283219 L136.88706,86.4222844 C136.618995,83.4651169 136.504886,81.1575844 136.57945,79.687755 C136.584883,79.5679106 136.596355,79.4595375 136.60209,79.3572019 C136.687521,78.3601087 136.869853,77.8300162 137.1832,77.8413052 C137.536393,77.8526569 137.901058,77.8870706 138.265723,77.944125 C138.271459,77.9380875 138.271459,77.9380875 138.277195,77.944125 L138.282628,77.944125 C138.41968,77.96103 138.556429,77.9839725 138.693178,78.0123488 C139.188857,78.103515 139.684536,78.2345288 140.180215,78.40539 C140.197421,78.40539 140.214326,78.4111256 140.231533,78.4225969 C143.11444,79.4082188 146.037797,81.687375 148.174468,85.3910794 C149.88942,88.3654537 153.074503,95.3049563 152.590296,99.9203231" id="Fill-55" fill="#F27038"></path>
                    <path d="M122.813316,86.6160277 C122.716716,85.9552234 122.613776,85.328229 122.517176,84.7416859 C122.254847,83.1631815 121.998555,81.8642134 121.747697,80.8840252 C121.445822,79.6647521 121.155116,78.9354221 120.881919,78.7872015 C120.711058,78.6906015 120.52299,78.6163402 120.317715,78.571059 C120.021576,78.4910621 119.685589,78.4569502 119.326358,78.4569502 C118.517333,78.462384 117.582728,78.6450184 116.625482,78.9354221 C116.625482,78.9354221 105.719946,79.6306402 102.927904,94.507644 C102.449432,97.0430921 101.999336,99.5157502 101.583353,101.886073 L112.745483,101.846225 L112.865025,101.840791 L113.298216,101.840791 L113.833742,101.840791 L120.596949,101.812113 L124.368878,101.800944 L124.699431,101.800944 C124.055531,95.7894052 123.417367,90.559119 122.813316,86.6160277" id="Fill-56" fill="#F27038"></path>
                    <polygon id="Fill-57" fill="#F2F2F2" points="138.28616 85.7955919 142.149255 92.4845381 140.172275 101.749384 140.16654 101.749384 138.274991 101.754817 137.237748 101.760855 136.16096 86.8612106 135.688224 80.3256169 135.688224 80.3141456 135.642641 79.6874531 135.33503 75.4708631 138.12677 78.1946812 138.240879 78.3084881 142.400113 82.3653863 140.747649 83.4593812 137.995756 85.28814"></polygon>
                    <polygon id="Fill-58" fill="#FFFFFF" points="125 102 120.596889 101.812325 117.069781 93.8805591 120.705262 86.3711166 114.209516 83.9953603 116.015936 82.0407197 117.918956 79.9780078 118.64255 79.1973591 119.326297 78.4568597 121.713525 75.8700928 121.861745 77.2943391 122.26656 81.2371284 122.625187 84.7868766 122.813255 86.6159372"></polygon>
                    <path d="M137.575848,55.5059374 C137.575848,55.5059374 136.059832,49.9037411 130.890525,50.1096199 C128.164291,50.217993 124.86993,50.9132111 123.355725,52.3489286 C121.896763,53.7315161 120.81273,59.5247992 120.81273,59.5247992 L118.172229,48.6512617 L134.967648,45.8060899 L137.575848,55.5059374 Z" id="Fill-59" fill="#000000"></path>
                    <path d="M1.05538519,172.544716 C1.05538519,172.544716 11.1811783,200.57381 11.1811783,211.96778 C11.1811783,223.36175 13.2158158,234.073181 21.6538258,237.495236 C30.0921377,240.917593 36.1827677,235.728663 37.6121458,233.675309 C39.3741902,231.143484 42.8650727,215.085545 25.6201614,196.315561 C18.8475958,188.944378 1.05538519,172.544716 1.05538519,172.544716" id="Fill-60" fill="#28B7C9"></path>
                    <path d="M2.09600869,174.125153 C4.31267681,180.460905 11.6340512,202.13221 11.6340512,211.967297 C11.6340512,226.081765 14.9673549,234.294878 21.8241437,237.076052 C30.0170312,240.398488 35.8447281,235.421777 37.2405981,233.416421 C38.7043899,231.313258 42.7178181,215.594627 25.2866499,196.621783 C19.6886799,190.529342 6.37448306,178.09662 2.09600869,174.125153 M27.2512524,239.094992 C25.4883024,239.094992 23.5560006,238.755383 21.4836287,237.914963 C14.2467793,234.980134 10.7284262,226.492315 10.7284262,211.967297 C10.7284262,200.782225 0.730628063,172.977726 0.629499937,172.69819 L9.05625e-05,170.956069 L1.36215056,172.211869 C1.54025681,172.375787 19.2458293,188.708432 25.9534918,196.009279 C35.2083756,206.082546 38.2603318,215.167172 39.1910124,221.013585 C40.2463674,227.646081 39.0107931,232.45827 37.9838143,233.933533 C36.8369912,235.580865 32.9231818,239.094992 27.2512524,239.094992" id="Fill-61" fill="#000000"></path>
                    <path d="M36.0269096,253.762947 C35.8264646,253.762947 35.6543959,253.61201 35.6314534,253.408546 C33.5539496,234.709503 14.346549,195.708762 14.1530471,195.31723 C14.0552396,195.119502 14.1361421,194.880719 14.3332665,194.783515 C14.5306927,194.686312 14.769174,194.766912 14.8666796,194.964037 C15.0610871,195.356474 34.3297684,234.482493 36.4229696,253.3207 C36.4474215,253.538956 36.2898427,253.735779 36.0712853,253.759929 C36.0564934,253.76174 36.0413996,253.762947 36.0269096,253.762947" id="Fill-62" fill="#000000"></path>
                    <path d="M28.9831093,139.915682 C28.9831093,139.915682 20.3546162,177.091588 25.0819787,199.668517 C29.8093412,222.245145 34.6109649,230.732662 40.6457481,224.643843 C46.6808331,218.554421 44.7370599,179.247277 40.4727737,166.848365 C36.2084874,154.449453 28.9831093,139.915682 28.9831093,139.915682" id="Fill-63" fill="#28B7C9"></path>
                    <path d="M29.1459709,141.280307 C27.708744,147.971065 21.3600109,179.683336 25.5252821,199.575087 C29.017674,216.255492 32.512179,224.894249 36.2083365,225.986432 C37.4937202,226.366493 38.8397809,225.822514 40.3241002,224.324912 C42.9072446,221.718826 44.2696065,211.923284 43.968939,198.121861 C43.6987609,185.727779 42.0849371,172.928279 40.044564,166.995831 C36.5304371,156.777362 30.9339765,144.972239 29.1459709,141.280307 M36.9977396,227.007977 C36.6457534,227.007977 36.2967859,226.956659 35.9514409,226.855229 C31.8501671,225.643201 28.2554396,217.033726 24.6386752,199.761042 C19.9454246,177.346219 28.4555827,140.186011 28.5422209,139.813497 L28.8271909,138.584564 L29.3886784,139.71418 C29.4608265,139.859382 36.6759409,154.416096 40.9009834,166.700899 C43.0011277,172.807529 44.5980465,185.426507 44.8742621,198.102239 C45.0212752,204.844919 44.9346371,220.959308 40.9673959,224.962171 C39.6186184,226.323023 38.2879534,227.007977 36.9977396,227.007977" id="Fill-64" fill="#000000"></path>
                    <path d="M40.1806191,253.762947 C40.1697516,253.762947 40.1588841,253.762947 40.1480166,253.761136 C39.9288553,253.743627 39.7655409,253.551333 39.7833516,253.332172 C40.7134284,241.917372 30.7476291,166.761063 30.6468028,166.002753 C30.6181247,165.785403 30.7711753,165.584656 30.9891291,165.555978 C31.2094978,165.527602 31.4075278,165.68035 31.4365078,165.898002 C31.8482653,168.995844 41.5140009,241.897147 40.5769809,253.396773 C40.5600759,253.605067 40.3858941,253.762947 40.1806191,253.762947" id="Fill-65" fill="#000000"></path>
                    <path d="M72.0546645,173.174699 C72.0546645,173.174699 61.9288714,201.203793 61.9288714,212.597763 C61.9288714,223.991733 59.8942339,234.703164 51.4562239,238.125219 C43.017912,241.547575 36.927282,236.358344 35.4979039,234.304991 C33.7355576,231.773467 30.244977,215.715528 47.4898883,196.945544 C54.2624539,189.574361 72.0546645,173.174699 72.0546645,173.174699" id="Fill-66" fill="#28B7C9"></path>
                    <path d="M71.0138901,174.755437 C66.7354157,178.726301 53.4212188,191.159325 47.8232488,197.252068 C30.3917788,216.225516 34.4055088,231.943543 35.8696026,234.046103 C37.2654726,236.052062 43.0937732,241.027566 51.2860569,237.705733 C58.1428457,234.924559 61.4758476,226.712049 61.4758476,212.597582 C61.4758476,202.762494 68.7972219,181.09119 71.0138901,174.755437 M45.8586463,239.724673 C40.1861132,239.724673 36.2732094,236.21115 35.1263863,234.563818 C34.0994076,233.088555 32.8635313,228.276667 33.9188863,221.64387 C34.8495669,215.796853 37.9015232,206.712831 47.1564069,196.639564 C53.8640694,189.338717 71.5696419,173.005468 71.7477482,172.84155 L73.1098082,171.58575 L72.4803988,173.328474 C72.3792707,173.608011 62.3814726,201.413113 62.3814726,212.597582 C62.3814726,227.122599 58.8634213,235.609815 51.6262701,238.544946 C49.5545019,239.385064 47.6212944,239.724673 45.8586463,239.724673" id="Fill-67" fill="#000000"></path>
                    <path d="M37.0831703,254.392628 C37.0686802,254.392628 37.0535865,254.391421 37.0387946,254.38961 C36.8202371,254.36546 36.6626584,254.168637 36.6871103,253.950382 C38.7803115,235.112778 58.0489927,195.986759 58.2434003,195.593718 C58.3409059,195.396895 58.5793871,195.315993 58.7768134,195.413197 C58.9739378,195.511004 59.0548402,195.749787 58.9570328,195.946912 C58.7635309,196.338745 39.5561303,235.339184 37.4786265,254.038227 C37.455684,254.241691 37.2833134,254.392628 37.0831703,254.392628" id="Fill-68" fill="#000000"></path>
                    <polygon id="Fill-69" fill="#D6D6D6" points="14.1256369 253.364382 61.0985944 253.364382 55.4731538 303.572232 19.4700319 303.680303"></polygon>
                    <path d="M334.016144,241.263451 C334.016144,241.263451 345.491017,299.841389 344.686218,302.65909 C343.881118,305.47649 327.493833,242.504761 327.493833,242.504761 L334.016144,241.263451 Z" id="Fill-70" fill="#000000"></path>
                    <path d="M316.494414,246.505571 C316.494414,246.505571 316.309968,300.89771 314.901118,302.70896 C313.492267,304.52021 310.071118,247.036267 310.071118,247.036267 L316.494414,246.505571 Z" id="Fill-71" fill="#000000"></path>
                    <path d="M279.682176,246.505571 C279.682176,246.505571 288.939777,301.383729 287.128527,302.750619 C285.317277,304.117811 273.839688,246.268297 273.839688,246.268297 L279.682176,246.505571 Z" id="Fill-72" fill="#000000"></path>
                    <path d="M264.598449,245.630314 C264.598449,245.630314 245.872237,301.501339 242.451087,301.903738 C239.029938,302.30644 258.1184,245.047092 258.1184,245.047092 L264.598449,245.630314 Z" id="Fill-73" fill="#000000"></path>
                    <path d="M326.754028,128.528141 C326.754028,128.528141 353.440382,125.141708 354.647882,136.544734 C355.855382,147.947458 358.752778,232.774333 340.700955,241.830583 C322.649132,250.886833 257.746007,245.754958 249.897257,243.943708 C242.048507,242.132458 243.859757,214.661833 243.859757,214.661833 L311.177882,205.605583 L319.531065,131.042458 L326.754028,128.528141 Z" id="Fill-74" fill="#EF9D81"></path>
                    <path d="M244.290291,215.061033 C244.207275,216.579162 243.93589,222.541797 244.387495,228.598315 C245.063393,237.657584 247.003543,242.811194 249.999049,243.50279 C257.103375,245.142273 322.258868,250.575419 340.497552,241.426192 C347.883527,237.720978 352.70598,219.952313 354.444478,190.041331 C355.810765,166.53523 354.834803,142.609222 354.197545,136.592249 C354.011892,134.84077 353.156378,133.349508 351.653946,132.160422 C345.004545,126.89693 327.874045,128.849759 326.85733,128.971717 L319.949826,131.376151 L311.588492,206.007198 L244.290291,215.061033 Z M299.128903,247.47788 C276.734005,247.47788 253.850672,245.320983 249.795283,244.385472 C241.664884,242.508715 243.332743,215.769835 243.40791,214.63237 L243.432362,214.262573 L243.79914,214.213066 L310.76709,205.20421 L319.113028,130.708705 L326.697034,128.07877 C327.44508,127.984283 345.100843,125.818934 352.216037,131.450412 C353.916499,132.795869 354.886122,134.493916 355.098038,136.496857 C355.737711,142.535564 356.718201,166.53523 355.348594,190.093857 C354.562512,203.617555 353.134945,214.779082 351.105741,223.268108 C348.609838,233.709965 345.177218,240.091904 340.903875,242.23582 C332.946752,246.227212 316.179105,247.47788 299.128903,247.47788 L299.128903,247.47788 Z" id="Fill-75" fill="#000000"></path>
                    <path d="M341.343677,154.670124 C341.388355,154.424398 341.225342,154.188332 340.979314,154.143654 C340.732984,154.098675 340.497521,154.261385 340.452844,154.507413 C340.365904,154.98347 331.858161,201.866771 332.281088,219.908028 L304.737711,219.908028 C304.467835,219.908028 304.248371,220.127492 304.248371,220.397368 C304.248371,220.66815 304.467835,220.887009 304.737711,220.887009 L338.648537,220.887009 C338.918715,220.887009 339.137876,220.66815 339.137876,220.397368 C339.137876,220.127492 338.918715,219.908028 338.648537,219.908028 L333.186713,219.908028 C332.757446,201.982691 341.256737,155.145275 341.343677,154.670124" id="Fill-76" fill="#000000"></path>
                    <polygon id="Fill-77" fill="#FFFFFF" points="194.994436 267.156296 189.68536 289.704245 204.762507 289.704245 208.829669 274.521442"></polygon>
                    <path d="M190.39691,289.140705 L204.330252,289.140705 L208.169196,274.807982 L195.375432,267.997078 L190.39691,289.140705 Z M205.195124,290.267906 L188.973569,290.267906 L194.6135,266.315031 L209.4899,274.234419 L205.195124,290.267906 Z" id="Fill-78" fill="#0E2549"></path>
                    <path d="M188.858041,289.046943 C188.858041,289.046943 167.067496,295.963503 166.316129,301.662903 L205.388716,301.662903 L205.388716,289.046943 L188.858041,289.046943 Z" id="Fill-79" fill="#F27038"></path>
                    <polygon id="Fill-80" fill="#FFFFFF" points="248.277728 278.676782 250.041885 289.923437 264.311818 289.923437 262.802443 277.678179"></polygon>
                    <path d="M250.524131,289.359444 L263.674711,289.359444 L262.308425,278.27731 L248.929929,279.19652 L250.524131,289.359444 Z M264.949227,290.486645 L249.560244,290.486645 L247.625527,278.156561 L263.296764,277.079772 L264.949227,290.486645 Z" id="Fill-81" fill="#0E2549"></path>
                    <path d="M249.214627,289.265983 C249.214627,289.265983 227.424082,296.182543 226.672715,301.881943 L265.745302,301.881943 L265.745302,289.265983 L249.214627,289.265983 Z" id="Fill-82" fill="#F27038"></path>
                    <polygon id="Fill-83" fill="#0E2549" points="225.250642 299.716352 225.250642 302.993205 266.765096 302.993205 266.765096 299.246635"></polygon>
                    <polygon id="Fill-84" fill="#0E2549" points="206.609861 299.281501 206.609861 302.774497 165.095105 302.774497 165.095105 299.027926"></polygon>
                    <path d="M194.756226,297.440366 C194.524386,297.440366 194.314281,297.2849 194.255113,297.050041 C194.184777,296.77292 194.352317,296.491874 194.629438,296.421538 L198.598793,295.416294 L194.373147,295.416294 C193.99852,295.416294 193.690305,295.147021 193.639892,294.776017 C193.589781,294.404711 193.81498,294.06329 194.176022,293.963068 L200.102734,292.326301 L196.24779,292.326301 C195.962518,292.326301 195.73098,292.094461 195.73098,291.809189 C195.73098,291.523314 195.962518,291.291474 196.24779,291.291474 L202.278347,291.291474 C202.652672,291.291474 202.961188,291.561048 203.011903,291.931751 C203.062015,292.303359 202.836816,292.644779 202.475472,292.745002 L196.54876,294.381768 L200.963682,294.381768 C201.341931,294.381768 201.651051,294.654059 201.69754,295.029592 C201.744632,295.405426 201.51249,295.745639 201.14541,295.838617 L194.883617,297.424668 C194.840751,297.435838 194.798187,297.440366 194.756226,297.440366 L194.756226,297.440366 Z" id="Fill-85" fill="#0E2549"></path>
                    <path d="M255.603781,297.659104 C255.372243,297.659104 255.161836,297.503639 255.102669,297.26878 C255.032332,296.991659 255.199872,296.710613 255.476692,296.640276 L259.446046,295.635032 L255.2204,295.635032 C254.845773,295.635032 254.537559,295.36576 254.486844,294.994756 C254.436732,294.624053 254.662233,294.282029 255.023276,294.18241 L260.950893,292.54504 L257.095346,292.54504 C256.809772,292.54504 256.578234,292.3132 256.578234,292.027928 C256.578234,291.742052 256.809772,291.510212 257.095346,291.510212 L263.126204,291.510212 C263.500529,291.510212 263.809045,291.779787 263.859157,292.150489 C263.909268,292.522097 263.684069,292.863518 263.323027,292.963741 L257.396617,294.600507 L261.811539,294.600507 C262.189788,294.600507 262.498606,294.872798 262.545397,295.248331 C262.591885,295.623863 262.360046,295.964076 261.992966,296.057356 L255.731172,297.643407 C255.688306,297.654576 255.64544,297.659104 255.603781,297.659104 L255.603781,297.659104 Z" id="Fill-86" fill="#0E2549"></path>
                    <path d="M282.413783,68.7743096 C282.413783,68.7743096 284.103679,86.5185221 282.683961,88.4810115 C281.263941,90.443199 278.877317,98.842569 278.877317,98.842569 L286.807875,134.450235 L316.143484,131.614421 L311.834218,104.305903 C311.834218,104.305903 304.655631,90.6762465 303.847813,88.4360321 C302.72997,85.3360777 302.726952,68.7743096 302.726952,68.7743096 L282.413783,68.7743096 Z" id="Fill-87" fill="#FFFFFF"></path>
                    <path d="M286.453142,134.939151 L278.410286,98.8291657 L278.441983,98.7186795 C278.540093,98.3727307 280.867247,90.2193889 282.317153,88.2155426 C283.278021,86.8866889 282.610273,75.6119595 281.963355,68.8170551 C281.939809,68.5683101 282.122141,68.3473376 282.370886,68.3234895 C282.620537,68.2972264 282.840604,68.4825776 282.864754,68.7313226 C283.039238,70.5649114 284.527481,86.7043564 283.051011,88.7462389 C281.779513,90.504057 279.629861,97.8667882 279.344288,98.8566364 L287.163152,133.960473 L315.62121,131.209788 L311.398583,104.450682 C310.793021,103.299934 304.210033,90.7766501 303.421838,88.5895657 C302.29041,85.4512732 302.273807,69.4537095 302.273807,68.7744907 C302.273807,68.5242364 302.476667,68.3210083 302.72662,68.3210083 C302.976572,68.3210083 303.179432,68.5242364 303.179432,68.7741889 C303.179432,68.9390126 303.195733,85.2915814 304.273729,88.282257 C305.061623,90.467832 312.163232,103.959229 312.234475,104.095073 L312.269794,104.161486 L312.281265,104.235445 L316.666,132.018813 L286.453142,134.939151 Z" id="Fill-88" fill="#000000"></path>
                    <path d="M286.457549,35.2306539 C282.799126,35.7399171 273.895927,36.8628921 274.107541,43.4304846 C274.349041,50.9215127 275.923923,60.5120814 276.840718,65.5594314 C277.202364,67.5515046 278.965616,68.9757508 280.984556,68.9105458 L303.602842,68.1815177 C305.674912,68.1145014 307.366921,66.5021871 307.535971,64.4313246 C308.105609,57.4616346 309.181794,42.7083996 308.287036,40.5179946 C305.242023,33.0653046 292.249927,34.4243458 286.457549,35.2306539" id="Fill-89" fill="#000000"></path>
                    <path d="M302.009425,73.1311507 C303.189454,71.8228245 303.517592,66.7872476 303.472009,61.0558489 C303.4705,60.8901195 303.554723,60.7376726 303.690265,60.6510345 C305.146812,59.7185426 307.234579,57.7563551 307.080925,54.9175226 C306.947496,52.458147 305.185452,53.0314076 303.81343,53.8688089 C303.568609,54.018237 303.259489,53.8425458 303.245301,53.547312 C302.912031,46.6455439 302.337261,40.6035158 302.337261,40.6035158 L275.460424,41.469897 C275.460424,41.469897 275.711584,47.6263357 276.192169,54.5235757 C276.213602,54.8329976 277.873311,71.268582 278.56702,72.7384114 C278.944666,73.5389839 279.640186,74.1916376 280.562716,74.7108626 C280.562716,74.7108626 282.332911,76.0656776 292.101284,75.750822 L302.009425,73.1311507 Z" id="Fill-90" fill="#FFFFFF"></path>
                    <path d="M289.283794,76.2514515 C282.389572,76.2514515 280.617868,75.296319 280.320219,75.0943646 C279.285392,74.5072177 278.557873,73.779699 278.157587,72.9314302 C277.405314,71.338134 275.750737,54.7105571 275.740172,54.5547896 C275.265021,47.7303015 275.010238,41.5500146 275.007823,41.4884321 L274.989107,41.0319971 L302.747419,40.1372396 L302.78787,40.5604684 C302.793907,40.6205415 303.361734,46.6260427 303.691986,53.4137021 C304.903712,52.6979565 305.866391,52.518039 306.554062,52.8796853 C307.148152,53.1921259 307.4778,53.8695334 307.533043,54.8931915 C307.714168,58.2394759 305.076686,60.3012821 303.934089,61.0321215 C303.981484,68.1436928 303.464976,72.1939496 302.346227,73.434354 C302.177781,73.6206109 301.891905,73.634799 301.706252,73.4672584 C301.520297,73.3000196 301.505505,73.0135403 301.673046,72.8278871 C302.206157,72.2371178 303.089745,69.9223403 303.019106,61.0595921 C303.016691,60.7374915 303.176383,60.4422578 303.445957,60.2695853 C304.454824,59.6238746 306.783789,57.8126246 306.628626,54.9420952 C306.603268,54.4723778 306.496706,53.872854 306.132343,53.6811634 C305.742622,53.4764921 304.983709,53.6853896 304.049104,54.2553296 C303.800359,54.4071728 303.497276,54.416229 303.239475,54.2797815 C302.974731,54.1391078 302.807492,53.8734578 302.7927,53.5691677 C302.514371,47.7915821 302.060351,42.5612959 301.925413,41.0697315 L275.932164,41.9077365 C276.000086,43.4584684 276.243398,48.7461109 276.643382,54.4919996 C276.694701,55.1796709 278.353202,71.2249309 278.976272,72.5450302 C279.297769,73.2257584 279.906349,73.8216596 280.784805,74.3164328 L280.837633,74.3514503 C280.845482,74.3559784 282.793481,75.598194 292.086099,75.2981303 C292.324883,75.2860553 292.545553,75.4858965 292.553704,75.7361509 C292.561854,75.9861034 292.365636,76.1953027 292.115683,76.2031515 C291.087497,76.2363578 290.145345,76.2514515 289.283794,76.2514515" id="Fill-91" fill="#0E2549"></path>
                    <path d="M290.859219,56.5250674 C290.470404,56.5250674 290.139851,56.226513 290.108154,55.8319624 L290.062571,55.2780217 C290.028459,54.8626417 290.337277,54.4982786 290.752959,54.4641667 C291.169547,54.4279417 291.5324,54.7391749 291.566814,55.1545549 L291.612095,55.7087974 C291.646207,56.1241774 291.337087,56.4885405 290.921707,56.5226524 C290.900576,56.5244636 290.879747,56.5250674 290.859219,56.5250674" id="Fill-92" fill="#000000"></path>
                    <path d="M279.559525,57.3345754 C279.157427,57.3345754 278.823251,57.0170029 278.806045,56.6112829 L278.778272,55.9568179 C278.761065,55.5402304 279.084675,55.188546 279.501263,55.1710372 C279.907888,55.1508116 280.268931,55.4771385 280.28644,55.893726 L280.314212,56.5484929 C280.331419,56.9647785 280.008111,57.3164629 279.591523,57.3339716 C279.580656,57.3345754 279.57009,57.3345754 279.559525,57.3345754" id="Fill-93" fill="#000000"></path>
                    <path d="M296.027651,52.4118696 C295.865544,52.4118696 295.708569,52.3243258 295.627365,52.1709733 C294.215194,49.5078321 288.963474,51.0636958 288.910042,51.0796952 C288.672467,51.1512396 288.418288,51.0172071 288.345838,50.7778202 C288.273086,50.5384333 288.407722,50.2857639 288.647109,50.2130121 C288.891628,50.1387508 294.666799,48.4262139 296.427334,51.7468389 C296.544763,51.9678114 296.46054,52.2419139 296.239869,52.3590414 C296.172249,52.3946627 296.099497,52.4118696 296.027651,52.4118696" id="Fill-94" fill="#000000"></path>
                    <path d="M284.768649,62.542221 C284.742084,62.542221 284.714916,62.539806 284.687143,62.534976 C284.289876,62.4628279 282.293576,62.0465422 282.049963,60.931416 C281.952156,60.482226 282.166185,59.315781 282.677863,56.7619185 C283.053396,54.8884822 283.567489,52.3228466 283.442814,51.7948672 C283.403872,51.6294397 283.215201,51.5086897 283.064263,51.4362397 C282.160147,51.0042566 280.085964,51.0794235 278.020536,52.0692716 C277.795337,52.1782485 277.524253,52.0822522 277.416484,51.8567516 C277.307809,51.6309491 277.403503,51.360771 277.628702,51.2526997 C279.732167,50.245041 282.127847,49.9848247 283.454286,50.6190641 C284.051696,50.9046379 284.256971,51.3031129 284.323987,51.5865735 C284.482774,52.2588491 284.143768,54.0574204 283.565979,56.9397229 C283.257463,58.4786816 282.87378,60.3934747 282.935061,60.7400272 C283.009322,61.0808441 284.003396,61.4904885 284.84925,61.6435391 C285.095278,61.6882166 285.258592,61.923981 285.213915,62.1700091 C285.174369,62.3888685 284.983282,62.542221 284.768649,62.542221" id="Fill-95" fill="#000000"></path>
                    <path d="M282.043533,65.7273947 C281.750111,66.0968897 283.050286,68.9586647 284.377027,68.7992747 C287.780366,68.3911397 289.725044,64.3671459 288.915114,64.6056272 C288.597541,64.6989066 286.448191,65.3497491 285.011568,65.6099653 C283.057531,65.9640647 282.376803,65.3077884 282.043533,65.7273947" id="Fill-96" fill="#000000"></path>
                    <path d="M306.949972,43.8318877 C304.198985,39.1833146 308.655263,38.0078134 305.844807,35.6471509 C304.166684,34.2373946 301.121973,34.3521071 301.121973,34.3521071 L301.017524,34.5051578 C300.478677,33.5560628 299.576373,32.8762402 298.06579,33.0881565 C293.915311,33.671379 293.374351,29.5598415 289.484692,30.135819 C285.59473,30.7120984 287.72144,31.833564 283.718275,32.8843909 C279.715111,33.9349159 277.678662,31.7122102 276.621194,34.8834071 C275.563424,38.054604 272.407623,37.3144065 271.052506,39.4728127 C269.697389,41.6309171 270.190955,44.1020659 272.174877,44.8739602 C274.158196,45.6458546 271.173256,47.400654 272.800664,49.1252659 C274.428072,50.8498778 281.102227,50.5199284 282.179618,47.8975402 C283.257614,45.2748502 283.821215,43.4913727 286.302929,43.3069271 C288.784643,43.1221796 291.827242,44.3372265 293.503252,43.8207184 C295.179262,43.3042102 297.430343,41.4506977 298.359213,41.8971709 C299.288082,42.343644 300.283968,43.8744521 301.191404,43.7319671 C301.264458,43.7204959 301.349888,43.688799 301.442866,43.6423102 C302.367811,44.5440109 303.239626,45.4369571 303.160233,47.0278384 C303.054577,49.1578684 308.285165,46.0881015 306.949972,43.8318877" id="Fill-97" fill="#000000"></path>
                    <path d="M264.280363,184.716709 C264.280363,184.716709 216.389102,182.726145 215.181602,193.698396 C213.974102,204.670646 243.331445,282.281803 243.331445,282.281803 L266.349414,279.21747 C266.349414,279.21747 249.788854,222.306787 250.506109,218.224532 C253.343734,202.075729 319.531035,182.462004 319.531035,182.462004 L264.280363,184.716709 Z" id="Fill-98" fill="#1A1A1A"></path>
                    <path d="M324.561027,184.554874 C324.561027,184.554874 331.286802,219.97115 299.126549,222.154009 C266.65144,224.3583 239.031991,215.56619 231.962984,221.128841 C229.892725,222.75806 212.595589,281.36196 212.595589,281.36196 L187.414385,277.678179 C187.414385,277.678179 209.958711,201.566737 213.766261,193.607501 C217.375478,186.062135 231.181128,185.200282 260.563527,184.554874 C289.945926,183.909163 324.561027,184.554874 324.561027,184.554874" id="Fill-99" fill="#000000"></path>
                    <path d="M327.378426,132.19221 C329.793426,150.05204 325.969878,187.492993 325.969878,187.492993 L260.563527,185.027881 C260.563527,185.027881 272.695883,84.6052384 281.694777,83.4490571 C285.491761,82.9612271 289.543527,88.1000452 299.605926,83.4490571 C309.668628,78.798069 324.963426,114.332077 327.378426,132.19221" id="Fill-100" fill="#F27038"></path>
                    <path d="M190.406026,151.282875 C190.406026,151.282875 199.203569,140.446468 213.277284,145.129757 C214.871486,145.660453 217.148227,146.812106 215.586024,151.282875 L190.406026,151.282875 Z" id="Fill-101" fill="#D6D6D6"></path>
                    <path d="M191.441065,150.830063 L215.26021,150.830063 C215.753776,149.289293 215.78668,148.06851 215.358017,147.19579 C214.891017,146.245789 213.924715,145.82256 213.134708,145.559627 C201.690627,141.751474 193.739843,148.510455 191.441065,150.830063 L191.441065,150.830063 Z M215.90743,151.735688 L189.455331,151.735688 L190.054553,150.997603 C190.14421,150.886513 199.214648,139.971921 213.420584,144.700491 C214.378131,145.018969 215.556047,145.544835 216.170967,146.796711 C216.73819,147.951081 216.685362,149.510567 216.01369,151.432605 L215.90743,151.735688 Z" id="Fill-102" fill="#0E2549"></path>
                    <path d="M219.082249,149.968964 C224.573356,149.497435 248.624944,149.990397 248.624944,149.990397 L246.117872,139.968449 C246.117872,139.968449 220.450347,144.336882 218.509894,143.778414 C214.864452,142.730002 212.463036,141.497748 208.154978,141.329905 C202.456484,141.107424 194.707352,143.067498 194.793085,144.616721 C194.839272,145.452009 204.944236,144.190473 206.910347,144.979574 C212.462432,147.207714 215.16844,150.305253 219.082249,149.968964" id="Fill-103" fill="#FFFFFF"></path>
                    <path d="M203.99822,144.254833 C205.372053,144.254833 206.502273,144.327886 207.079156,144.559123 C209.20013,145.41041 210.909044,146.385165 212.416608,147.245206 C214.834928,148.625681 216.744288,149.71394 219.04367,149.518325 C224.081058,149.084833 244.229101,149.452215 248.041782,149.525872 L245.780135,140.485018 C241.730783,141.17118 220.285583,144.761983 218.384978,144.213476 C217.429242,143.93877 216.562559,143.652894 215.724252,143.376376 C213.330383,142.58637 211.26254,141.904132 208.137228,141.782175 C203.176214,141.58988 196.637602,143.110425 195.3815,144.38796 C195.375764,144.393997 195.370028,144.399733 195.364595,144.405468 C196.166677,144.521992 198.370666,144.433543 200.037922,144.366225 C201.405717,144.310981 202.79555,144.254833 203.99822,144.254833 L203.99822,144.254833 Z M249.208227,150.455647 L248.615647,150.44327 C248.375656,150.43844 224.525116,149.955742 219.121553,150.420328 L219.12095,150.420328 C216.543843,150.644319 214.523092,149.489949 211.967116,148.031893 C210.485513,147.186341 208.805579,146.227586 206.74166,145.399845 C205.840261,145.037896 202.642801,145.167401 200.074448,145.270642 C195.393575,145.461125 194.384708,145.427013 194.341238,144.641535 C194.324333,144.335735 194.456857,144.036577 194.735487,143.753116 C196.301011,142.161631 203.210024,140.684255 208.172547,140.877153 C211.425552,141.004243 213.651277,141.738705 216.007713,142.516033 C216.837869,142.790135 217.696402,143.073294 218.635233,143.34317 C219.984614,143.731985 235.76513,141.270798 246.04186,139.522036 L246.455429,139.452001 L249.208227,150.455647 Z" id="Fill-104" fill="#000000"></path>
                    <path d="M285.238548,94.8648225 C285.238548,94.8648225 279.670766,112.352441 272.166455,117.909658 C264.662748,123.467479 224.904905,134.503727 224.904905,134.503727 L223.692575,150.936896 C223.692575,150.936896 261.569133,151.842219 268.54154,148.80747 C276.996757,145.127312 299.059895,133.630402 305.381761,113.728086 C311.703326,93.8263725 285.238548,94.8648225 285.238548,94.8648225" id="Fill-105" fill="#F27038"></path>
                    <path d="M228.569788,133.916791 C228.367532,133.916791 228.183086,133.780042 228.131164,133.574163 C228.069883,133.332059 228.217198,133.086031 228.459604,133.024751 C228.75363,132.950489 258.019807,125.528591 270.393664,118.497016 C279.722205,113.195488 283.802951,95.1270613 283.843101,94.9453326 C283.896532,94.7014176 284.135919,94.5468576 284.382551,94.6005913 C284.626466,94.6546269 284.781328,94.8961269 284.727292,95.1403438 C284.560054,95.8992576 280.516438,113.785955 270.841042,119.284306 C258.360624,126.376256 228.976112,133.828342 228.680576,133.902905 C228.643747,133.911961 228.606315,133.916791 228.569788,133.916791" id="Fill-106" fill="#000000"></path>
                    <path d="M261.2563,150.640787 C261.033214,150.640787 260.838807,150.475661 260.808016,150.248651 C260.774507,150.001114 260.948086,149.772896 261.195925,149.739388 C280.829573,147.075341 291.988986,135.011209 297.892756,125.359963 C304.308505,114.871316 306.089266,104.877745 306.106472,104.777824 C306.149339,104.531192 306.384197,104.366972 306.629924,104.408933 C306.876254,104.451497 307.041379,104.68545 306.999117,104.93178 C306.981306,105.03321 305.178811,115.171682 298.682159,125.804927 C294.861629,132.05706 290.188906,137.261083 284.794097,141.271493 C278.045984,146.28775 270.147726,149.438721 261.317882,150.636561 C261.296751,150.63958 261.276526,150.640787 261.2563,150.640787" id="Fill-107" fill="#000000"></path>
                    <polygon id="Stroke-29" stroke="#000000" stroke-width="1.2075" points="168.449933 101.984816 167.145833 101.990854 158.406552 102.02406 157.663939 102.027079 128.70507 102.138772 115.947833 102.187072 115.063339 102.190091 113.620377 102.196129 113.547927 102.196129 109.714114 102.211222 109.711095 102.211222 108.70887 102.214241 108.159458 102.21726 101.276708 102.244429 101.10162 102.244429 99.1032079 102.250466 95.5199516 102.26556 95.0067641 102.26556 94.9433704 102.268579 89.0296391 102.28971 85.0569641 102.304804 65.8788454 27.1711348 149.271814 26.8541661 167.03112 96.4303161 168.009195 100.258091"></polygon>
                </g>
            </g>
        </g>
    </g>
</svg>