<?xml version="1.0" encoding="UTF-8"?>
<svg width="30px" height="30px" viewBox="0 0 30 30" version="1.1" xmlns="http://www.w3.org/2000/svg" xmlns:xlink="http://www.w3.org/1999/xlink">
    <title>talk icon</title>
    <g id="Page-1" stroke="none" stroke-width="1" fill="none" fill-rule="evenodd">
        <g id="step-0" transform="translate(-325.000000, -393.000000)" fill="#F27038" fill-rule="nonzero">
            <g id="window" transform="translate(284.000000, 222.000000)">
                <g id="talk-icon" transform="translate(41.000000, 171.000000)">
                    <path d="M28.3064516,3.38709677 L26.6129032,3.38709677 L26.6129032,1.69354839 C26.6118699,0.7586558 25.8542474,0.00103334451 24.9193548,0 L5.08064516,0 C4.14575257,0.00103334451 3.38813012,0.7586558 3.38709677,1.69354839 L3.38709677,3.38709677 L1.69354839,3.38709677 C0.7586558,3.38813012 0.00103334451,4.14575257 0,5.08064516 L0,23.4677419 C0.00103334451,24.4026345 0.7586558,25.160257 1.69354839,25.1612903 L10.9711694,25.1612903 L10.2804435,27.5806452 L8.22580645,27.5806452 C7.9585719,27.5806452 7.74193548,27.7972816 7.74193548,28.0645161 L7.74193548,29.516129 C7.74193548,29.7833636 7.9585719,30 8.22580645,30 L21.7741935,30 C22.0414281,30 22.2580645,29.7833636 22.2580645,29.516129 L22.2580645,28.0645161 C22.2580645,27.7972816 22.0414281,27.5806452 21.7741935,27.5806452 L19.7195565,27.5806452 L19.0288306,25.1612903 L28.3064516,25.1612903 C29.2413442,25.160257 29.9989667,24.4026345 30,23.4677419 L30,5.08064516 C29.9989667,4.14575257 29.2413442,3.38813012 28.3064516,3.38709677 Z M4.35483871,1.69354839 C4.35517222,1.29283478 4.67993155,0.968075447 5.08064516,0.967741935 L24.9193548,0.967741935 C25.3200684,0.968075447 25.6448278,1.29283478 25.6451613,1.69354839 L25.6451613,2.90322581 L4.35483871,2.90322581 L4.35483871,1.69354839 Z M4.35483871,3.87096774 L25.6451613,3.87096774 L25.6451613,18.6290323 C25.6448278,19.0297459 25.3200684,19.3545052 24.9193548,19.3548387 L15.9677419,19.3548387 L15.9677419,15.483871 C15.9664786,14.4354585 15.1316772,13.5781456 14.0836694,13.5489919 L12.0967742,13.1516129 L12.0967742,12.8618952 C12.9776039,12.4764416 13.54719,11.6066362 13.5483871,10.6451613 L13.5483871,8.70967742 C13.5470535,7.37405743 12.4646522,6.2916562 11.1290323,6.29032258 L10.1612903,6.29032258 C8.82567033,6.2916562 7.7432691,7.37405743 7.74193548,8.70967742 L7.74193548,10.6451613 C7.74313258,11.6066362 8.3127187,12.4764416 9.19354839,12.8618952 L9.19354839,13.1516129 L7.20665323,13.5489919 C6.15864538,13.5781456 5.32384399,14.4354585 5.32258065,15.483871 L5.32258065,19.3548387 L5.08064516,19.3548387 C4.67993155,19.3545052 4.35517222,19.0297459 4.35483871,18.6290323 L4.35483871,3.87096774 Z M13.5483871,16.4516129 C13.2811525,16.4516129 13.0645161,16.6682493 13.0645161,16.9354839 L13.0645161,19.3548387 L8.22580645,19.3548387 L8.22580645,16.9354839 C8.22580645,16.6682493 8.00917004,16.4516129 7.74193548,16.4516129 C7.47470093,16.4516129 7.25806452,16.6682493 7.25806452,16.9354839 L7.25806452,19.3548387 L6.29032258,19.3548387 L6.29032258,15.483871 C6.29102231,14.949692 6.72388551,14.5168288 7.25806452,14.516129 C7.28996918,14.5162351 7.32179683,14.5129915 7.35302419,14.5064516 L9.30907258,14.1157258 C9.53675357,14.6517723 10.0627658,14.9998469 10.6451613,14.9998469 C11.2275568,14.9998469 11.753569,14.6517723 11.98125,14.1157258 L13.9372984,14.5064516 C13.9685258,14.5129915 14.0003534,14.5162351 14.0322581,14.516129 C14.5664371,14.5168288 14.9993003,14.949692 15,15.483871 L15,19.3548387 L14.0322581,19.3548387 L14.0322581,16.9354839 C14.0322581,16.6682493 13.8156217,16.4516129 13.5483871,16.4516129 Z M12.5806452,9.49173387 L12.5806452,10.6451613 C12.5795789,11.4464229 11.9302939,12.095708 11.1290323,12.0967742 L10.1612903,12.0967742 C9.36002871,12.095708 8.71074364,11.4464229 8.70967742,10.6451613 L8.70967742,10.1497984 C9.54979839,10.1171371 11.3020161,9.98951613 12.5806452,9.49173387 Z M8.70967742,9.18205645 L8.70967742,8.70967742 C8.71074364,7.90841581 9.36002871,7.25913073 10.1612903,7.25806452 L11.1290323,7.25806452 C11.8286377,7.25912386 12.4283334,7.75819267 12.5564516,8.44596774 C11.55,8.96008065 9.75,9.1391129 8.70967742,9.18205645 Z M11.1290323,13.0645161 L11.1290323,13.5483871 C11.1290323,13.8156217 10.9123958,14.0322581 10.6451613,14.0322581 C10.3779267,14.0322581 10.1612903,13.8156217 10.1612903,13.5483871 L10.1612903,13.0645161 L11.1290323,13.0645161 Z M21.2903226,28.5483871 L21.2903226,29.0322581 L8.70967742,29.0322581 L8.70967742,28.5483871 L21.2903226,28.5483871 Z M11.2868952,27.5806452 L11.977621,25.1612903 L18.022379,25.1612903 L18.7131048,27.5806452 L11.2868952,27.5806452 Z M29.0322581,23.4677419 C29.0319246,23.8684555 28.7071652,24.1932149 28.3064516,24.1935484 L1.69354839,24.1935484 C1.29283478,24.1932149 0.968075447,23.8684555 0.967741935,23.4677419 L0.967741935,22.2580645 L29.0322581,22.2580645 L29.0322581,23.4677419 Z M29.0322581,21.2903226 L0.967741935,21.2903226 L0.967741935,5.08064516 C0.968075447,4.67993155 1.29283478,4.35517222 1.69354839,4.35483871 L3.38709677,4.35483871 L3.38709677,18.6290323 C3.38813012,19.5639248 4.14575257,20.3215473 5.08064516,20.3225806 L24.9193548,20.3225806 C25.8542474,20.3215473 26.6118699,19.5639248 26.6129032,18.6290323 L26.6129032,4.35483871 L28.3064516,4.35483871 C28.7071652,4.35517222 29.0319246,4.67993155 29.0322581,5.08064516 L29.0322581,21.2903226 Z" id="Shape"></path>
                    <path d="M5.32258065,2.41935484 L5.80645161,2.41935484 C6.07368617,2.41935484 6.29032258,2.20271843 6.29032258,1.93548387 C6.29032258,1.66824931 6.07368617,1.4516129 5.80645161,1.4516129 L5.32258065,1.4516129 C5.05534609,1.4516129 4.83870968,1.66824931 4.83870968,1.93548387 C4.83870968,2.20271843 5.05534609,2.41935484 5.32258065,2.41935484 Z" id="Path"></path>
                    <path d="M7.25806452,2.41935484 L7.74193548,2.41935484 C8.00917004,2.41935484 8.22580645,2.20271843 8.22580645,1.93548387 C8.22580645,1.66824931 8.00917004,1.4516129 7.74193548,1.4516129 L7.25806452,1.4516129 C6.99082996,1.4516129 6.77419355,1.66824931 6.77419355,1.93548387 C6.77419355,2.20271843 6.99082996,2.41935484 7.25806452,2.41935484 Z" id="Path"></path>
                    <path d="M9.19354839,2.41935484 L9.67741935,2.41935484 C9.94465391,2.41935484 10.1612903,2.20271843 10.1612903,1.93548387 C10.1612903,1.66824931 9.94465391,1.4516129 9.67741935,1.4516129 L9.19354839,1.4516129 C8.92631383,1.4516129 8.70967742,1.66824931 8.70967742,1.93548387 C8.70967742,2.20271843 8.92631383,2.41935484 9.19354839,2.41935484 Z" id="Path"></path>
                    <path d="M24.6774194,4.35483871 L16.9354839,4.35483871 C16.6682493,4.35483871 16.4516129,4.57147512 16.4516129,4.83870968 L16.4516129,13.0645161 C16.4516129,13.3317507 16.6682493,13.5483871 16.9354839,13.5483871 L24.6774194,13.5483871 C24.9446539,13.5483871 25.1612903,13.3317507 25.1612903,13.0645161 L25.1612903,4.83870968 C25.1612903,4.57147512 24.9446539,4.35483871 24.6774194,4.35483871 Z M22.7419355,12.5806452 L18.8709677,12.5806452 L18.8709677,11.9758065 C18.8718343,11.2412707 19.4670771,10.6460278 20.2016129,10.6451613 L21.4112903,10.6451613 C22.1458261,10.6460278 22.7410689,11.2412707 22.7419355,11.9758065 L22.7419355,12.5806452 Z M19.8387097,8.46774194 L19.8387097,7.5 C19.8390432,7.09928639 20.1638025,6.77452706 20.5645161,6.77419355 L21.0483871,6.77419355 C21.4491007,6.77452706 21.77386,7.09928639 21.7741935,7.5 L21.7741935,8.46774194 C21.77386,8.86845554 21.4491007,9.19321488 21.0483871,9.19354839 L20.5645161,9.19354839 C20.1638025,9.19321488 19.8390432,8.86845554 19.8387097,8.46774194 L19.8387097,8.46774194 Z M24.1935484,12.5806452 L23.7096774,12.5806452 L23.7096774,11.9758065 C23.7083926,10.9760214 23.0619901,10.0913419 22.109879,9.78629032 C22.5093024,9.46511603 22.7417139,8.98027673 22.7419355,8.46774194 L22.7419355,7.5 C22.7409021,6.56510741 21.9832797,5.80748496 21.0483871,5.80645161 L20.5645161,5.80645161 C19.6296235,5.80748496 18.8720011,6.56510741 18.8709677,7.5 L18.8709677,8.46774194 C18.8711893,8.98027673 19.1036008,9.46511603 19.5030242,9.78629032 C18.5509132,10.0913419 17.9045106,10.9760214 17.9032258,11.9758065 L17.9032258,12.5806452 L17.4193548,12.5806452 L17.4193548,5.32258065 L24.1935484,5.32258065 L24.1935484,12.5806452 Z" id="Shape"></path>
                </g>
            </g>
        </g>
    </g>
</svg>